<svg width="95" height="29" viewBox="0 0 95 29" fill="none" xmlns="http://www.w3.org/2000/svg">
<path d="M0.666667 6C0.666667 8.94552 3.05448 11.3333 6 11.3333C8.94552 11.3333 11.3333 8.94552 11.3333 6C11.3333 3.05448 8.94552 0.666667 6 0.666667C3.05448 0.666667 0.666667 3.05448 0.666667 6ZM94.4991 5.95718C94.4754 5.4054 94.009 4.97727 93.4572 5.00092L84.4654 5.38628C83.9137 5.40993 83.4855 5.8764 83.5092 6.42818C83.5328 6.97996 83.9993 7.40809 84.5511 7.38444L92.5437 7.0419L92.8863 15.0346C92.9099 15.5863 93.3764 16.0145 93.9282 15.9908C94.48 15.9672 94.9081 15.5007 94.8844 14.9489L94.4991 5.95718ZM5.09204 6.41906C5.37202 7.02569 5.68445 7.62833 6.02769 8.22566L7.76179 7.22922C7.44683 6.68109 7.16194 6.13122 6.90796 5.58094L5.09204 6.41906ZM8.30227 11.5585C9.11067 12.5773 10.0083 13.5733 10.9873 14.5394L12.3921 13.1158C11.467 12.2029 10.624 11.2668 9.86898 10.3153L8.30227 11.5585ZM13.9824 17.1987C14.9943 18.0101 16.0669 18.7927 17.1948 19.5411L18.3006 17.8747C17.2211 17.1583 16.1971 16.411 15.2336 15.6383L13.9824 17.1987ZM20.6039 21.6047C21.7421 22.2322 22.9238 22.8264 24.145 23.3831L24.9746 21.5633C23.799 21.0274 22.6627 20.4559 21.5695 19.8532L20.6039 21.6047ZM27.8143 24.8962C29.039 25.3502 30.2957 25.767 31.581 26.143L32.1425 24.2235C30.9023 23.8607 29.6902 23.4586 28.5095 23.0209L27.8143 24.8962ZM35.4172 27.1225C36.6943 27.4022 37.9947 27.6414 39.3152 27.8371L39.6084 25.8587C38.3333 25.6697 37.0779 25.4388 35.845 25.1688L35.4172 27.1225ZM43.2557 28.2839C44.5602 28.3868 45.8807 28.4466 47.2147 28.4605L47.2354 26.4606C45.9475 26.4472 44.6726 26.3895 43.4131 26.2901L43.2557 28.2839ZM51.173 28.3659C52.4785 28.2899 53.7941 28.1688 55.1173 28.0001L54.8644 26.0162C53.587 26.179 52.3171 26.2959 51.0568 26.3693L51.173 28.3659ZM59.0285 27.3643C60.3108 27.1105 61.5979 26.8105 62.8877 26.4622L62.3663 24.5313C61.1207 24.8677 59.878 25.1574 58.6401 25.4024L59.0285 27.3643ZM66.6767 25.2998C67.9107 24.8752 69.1452 24.4046 70.3784 23.8861L69.6033 22.0424C68.4111 22.5436 67.2181 22.9984 66.0259 23.4086L66.6767 25.2998ZM73.9775 22.2328C75.142 21.6515 76.3036 21.0256 77.4608 20.3535L76.4564 18.624C75.3355 19.275 74.2109 19.8809 73.0842 20.4434L73.9775 22.2328ZM80.8178 18.2638C81.8978 17.5453 82.9725 16.7845 84.0407 15.9802L82.8376 14.3825C81.8003 15.1636 80.7574 15.9018 79.71 16.5986L80.8178 18.2638ZM87.1248 13.5192C88.1132 12.6849 89.0946 11.8112 90.0681 10.897L88.6991 9.43907C87.751 10.3293 86.7958 11.1796 85.8347 11.9909L87.1248 13.5192ZM92.8712 8.12848C93.3284 7.65388 93.7837 7.16982 94.2367 6.67618L92.7633 5.32382C92.3211 5.80563 91.8769 6.27791 91.4309 6.74079L92.8712 8.12848Z" fill="#73DFE9"/>
</svg>
