<svg width="95" height="28" viewBox="0 0 95 28" fill="none" xmlns="http://www.w3.org/2000/svg">
<path d="M0.666667 22.4636C0.666667 19.518 3.05448 17.1302 6 17.1302C8.94552 17.1302 11.3333 19.518 11.3333 22.4636C11.3333 25.4091 8.94552 27.7969 6 27.7969C3.05448 27.7969 0.666667 25.4091 0.666667 22.4636ZM94.4991 22.5064C94.4754 23.0582 94.009 23.4863 93.4572 23.4626L84.4654 23.0773C83.9137 23.0536 83.4855 22.5872 83.5092 22.0354C83.5328 21.4836 83.9993 21.0555 84.5511 21.0791L92.5437 21.4217L92.8863 13.429C92.9099 12.8772 93.3764 12.4491 93.9282 12.4727C94.48 12.4964 94.9081 12.9629 94.8844 13.5146L94.4991 22.5064ZM5.09204 22.0445C5.37202 21.4379 5.68445 20.8352 6.02769 20.2379L7.76179 21.2343C7.44683 21.7825 7.16194 22.3323 6.90796 22.8826L5.09204 22.0445ZM8.30227 16.9051C9.11067 15.8863 10.0083 14.8903 10.9873 13.9242L12.3921 15.3478C11.467 16.2607 10.624 17.1967 9.86898 18.1483L8.30227 16.9051ZM13.9824 11.2649C14.9943 10.4535 16.0669 9.67091 17.1948 8.92244L18.3006 10.5889C17.2211 11.3053 16.1971 12.0526 15.2336 12.8252L13.9824 11.2649ZM20.6039 6.85888C21.7421 6.23137 22.9238 5.63715 24.145 5.08046L24.9746 6.90029C23.799 7.4362 22.6627 8.00765 21.5695 8.61034L20.6039 6.85888ZM27.8143 3.56733C29.039 3.11333 30.2957 2.69652 31.581 2.32053L32.1425 4.2401C30.9023 4.60289 29.6902 5.00493 28.5095 5.44262L27.8143 3.56733ZM35.4172 1.34103C36.6943 1.0614 37.9947 0.822153 39.3152 0.626497L39.6084 2.6049C38.3333 2.79381 37.0779 3.0248 35.845 3.29475L35.4172 1.34103ZM43.2557 0.179649C44.5602 0.0767212 45.8807 0.0169258 47.2147 0.00310707L47.2354 2.003C45.9475 2.01634 44.6726 2.07407 43.4131 2.17345L43.2557 0.179649ZM51.173 0.0976467C52.4785 0.173647 53.7941 0.294735 55.1173 0.463436L54.8644 2.44738C53.587 2.28452 52.3171 2.16763 51.0568 2.09427L51.173 0.0976467ZM59.0285 1.09922C60.3108 1.35307 61.5979 1.65306 62.8877 2.0014L62.3663 3.93223C61.1207 3.59585 59.878 3.30621 58.6401 3.06114L59.0285 1.09922ZM66.6767 3.16378C67.9107 3.5884 69.1452 4.05898 70.3784 4.57742L69.6033 6.42112C68.4111 5.91992 67.2181 5.46517 66.0259 5.05495L66.6767 3.16378ZM73.9775 6.23078C75.142 6.81209 76.3036 7.43798 77.4608 8.11006L76.4564 9.83955C75.3355 9.18857 74.2109 8.58267 73.0842 8.0202L73.9775 6.23078ZM80.8178 10.1998C81.8978 10.9183 82.9725 11.6791 84.0407 12.4834L82.8376 14.0811C81.8003 13.3 80.7574 12.5617 79.71 11.8649L80.8178 10.1998ZM87.1248 14.9444C88.1132 15.7787 89.0946 16.6524 90.0681 17.5665L88.6991 19.0245C87.751 18.1342 86.7958 17.284 85.8347 16.4726L87.1248 14.9444ZM92.8712 20.3351C93.3284 20.8097 93.7837 21.2937 94.2367 21.7874L92.7633 23.1397C92.3211 22.6579 91.8769 22.1857 91.4309 21.7228L92.8712 20.3351Z" fill="#73DFE9"/>
</svg>
