<svg width="480" height="337" viewBox="0 0 480 337" fill="none" xmlns="http://www.w3.org/2000/svg">
<path d="M0.333333 3C0.333333 4.47276 1.52724 5.66667 3 5.66667C4.47276 5.66667 5.66667 4.47276 5.66667 3C5.66667 1.52724 4.47276 0.333333 3 0.333333C1.52724 0.333333 0.333333 1.52724 0.333333 3ZM480 322L475 319.113V324.887L480 322ZM2.5 3V7.03169H3.5V3H2.5ZM2.5 15.0951V23.1584H3.5V15.0951H2.5ZM2.5 31.2218V39.2852H3.5V31.2218H2.5ZM2.5 47.3485V55.4119H3.5V47.3485H2.5ZM2.5 63.4753V71.5386H3.5V63.4753H2.5ZM2.5 79.602V87.6654H3.5V79.602H2.5ZM2.5 95.7288V103.792H3.5V95.7288H2.5ZM2.5 111.855V119.919H3.5V111.855H2.5ZM2.5 127.982V136.046H3.5V127.982H2.5ZM2.5 144.109V152.172H3.5V144.109H2.5ZM2.5 160.236V168.299H3.5V160.236H2.5ZM2.5 176.362V184.426H3.5V176.362H2.5ZM2.5 192.489V200.553H3.5V192.489H2.5ZM2.5 208.616V216.679H3.5V208.616H2.5ZM2.5 224.743V232.806H3.5V224.743H2.5ZM2.5 240.869V248.933H3.5V240.869H2.5ZM2.5 256.996V265.06H3.5V256.996H2.5ZM2.5 273.123V281.186H3.5V273.123H2.5ZM2.5 289.25V297.313H3.5V289.25H2.5ZM2.5 305.376V309.408H3.5V305.376H2.5ZM2.5 309.408C2.5 310.523 2.49999 311.542 2.51012 312.472L3.51006 312.461C3.50001 311.538 3.5 310.524 3.5 309.408H2.5ZM3.14077 318.678C3.49455 319.749 4.05205 320.556 4.92242 321.135C5.77541 321.702 6.8868 322.022 8.29546 322.212L8.4287 321.221C7.08125 321.039 6.14485 320.747 5.47634 320.302C4.8252 319.869 4.38747 319.264 4.09027 318.365L3.14077 318.678ZM14.4486 322.494C15.392 322.5 16.4127 322.5 17.5152 322.5V321.5C16.412 321.5 15.3944 321.5 14.4545 321.494L14.4486 322.494ZM17.5152 322.5H21.5021V321.5H17.5152V322.5ZM29.476 322.5H37.4499V321.5H29.476V322.5ZM45.4238 322.5H53.3976V321.5H45.4238V322.5ZM61.3715 322.5H69.3454V321.5H61.3715V322.5ZM77.3193 322.5H85.2932V321.5H77.3193V322.5ZM93.267 322.5H101.241V321.5H93.267V322.5ZM109.215 322.5H117.189V321.5H109.215V322.5ZM125.163 322.5H133.136V321.5H125.163V322.5ZM141.11 322.5H149.084V321.5H141.11V322.5ZM157.058 322.5H165.032V321.5H157.058V322.5ZM173.006 322.5H180.98V321.5H173.006V322.5ZM188.954 322.5H196.927V321.5H188.954V322.5ZM204.901 322.5H212.875V321.5H204.901V322.5ZM220.849 322.5H228.823V321.5H220.849V322.5ZM236.797 322.5H244.771V321.5H236.797V322.5ZM252.745 322.5H260.718V321.5H252.745V322.5ZM268.692 322.5H276.666V321.5H268.692V322.5ZM284.64 322.5H292.614V321.5H284.64V322.5ZM300.588 322.5H308.562V321.5H300.588V322.5ZM316.536 322.5H324.509V321.5H316.536V322.5ZM332.483 322.5H340.457V321.5H332.483V322.5ZM348.431 322.5H356.405V321.5H348.431V322.5ZM364.379 322.5H372.353V321.5H364.379V322.5ZM380.327 322.5H388.3V321.5H380.327V322.5ZM396.274 322.5H404.248V321.5H396.274V322.5ZM412.222 322.5H420.196V321.5H412.222V322.5ZM428.17 322.5H436.144V321.5H428.17V322.5ZM444.118 322.5H452.091V321.5H444.118V322.5ZM460.065 322.5H468.039V321.5H460.065V322.5Z" fill="#578D8D"/>
<path d="M267.351 325.922C266.809 325.664 266.73 325.214 266.642 324.799C266.561 324.416 267.034 324.461 267.293 324.339C268.428 323.809 269.121 322.035 268.632 320.889C268.207 319.891 267.467 319.218 266.33 319.082C264.913 318.913 263.804 319.515 263.216 320.705C262.838 321.468 262.19 321.327 261.703 321.337C261.265 321.345 261.517 320.7 261.434 320.354C261.326 319.904 261.293 319.436 261.229 318.977C261.158 318.465 261.109 318.108 261.028 317.861C261.023 317.828 261.019 317.793 261.014 317.76C260.952 317.245 260.693 316.982 260.121 317.017C259.615 317.046 259.106 317.03 258.6 317.007C258.224 316.991 257.666 317.128 257.585 316.659C257.487 316.086 257.065 315.43 257.673 314.89C258.173 314.445 258.312 313.875 258.365 313.268C258.449 312.28 258.072 311.748 257.072 311.579C256.61 311.502 256.372 311.292 256.223 310.908C256.143 310.704 256.043 310.505 255.981 310.297C255.796 309.698 254.886 309.148 255.847 308.468C256.415 308.068 256.793 307.416 257.706 307.534C258.431 307.628 259.04 306.902 259.008 306.216C258.975 305.55 258.376 305.008 257.668 305C256.889 304.992 256.258 305.538 256.272 306.335C256.28 306.817 256.167 307.17 255.815 307.498C254.945 308.312 254.95 308.319 254.065 307.493C252.463 306 250.453 305.243 248.44 305.205V305.202C248.404 305.202 248.368 305.204 248.333 305.204C248.297 305.204 248.262 305.202 248.226 305.202V305.205C246.213 305.243 244.203 306 242.601 307.493C241.714 308.319 241.719 308.312 240.851 307.498C240.501 307.17 240.386 306.817 240.394 306.335C240.409 305.54 239.777 304.992 238.998 305C238.289 305.007 237.69 305.55 237.658 306.216C237.624 306.904 238.235 307.628 238.959 307.534C239.873 307.416 240.25 308.068 240.819 308.468C241.782 309.148 240.87 309.699 240.685 310.297C240.621 310.505 240.523 310.704 240.443 310.908C240.293 311.292 240.056 311.502 239.594 311.579C238.592 311.748 238.217 312.28 238.301 313.268C238.354 313.875 238.492 314.445 238.993 314.89C239.601 315.43 239.181 316.086 239.081 316.659C239 317.128 238.442 316.991 238.066 317.007C237.56 317.03 237.049 317.046 236.545 317.017C235.973 316.982 235.716 317.245 235.652 317.76C235.647 317.8 235.641 317.838 235.636 317.875H235.641C235.631 317.923 235.621 317.971 235.614 318.023C235.515 318.837 235.339 319.65 235.327 320.465C235.315 321.326 234.856 321.427 234.136 321.414C233.572 321.403 233.464 321.042 233.274 320.674C232.327 318.821 230.051 318.519 228.66 320.052C227.515 321.316 227.892 323.2 229.539 324.073C230.134 324.388 230.185 324.725 230.002 325.263C229.865 325.669 229.569 325.856 229.205 326.045C228.239 326.545 227.958 327.502 228.493 328.321C229.016 329.124 230.085 329.313 230.843 328.737C231.638 328.133 231.711 327.139 231.016 326.352C230.334 325.577 230.589 324.63 231.589 324.236C232.374 323.926 233.038 323.463 233.322 322.665C233.586 321.923 234.169 322.058 234.713 322.104C235.33 322.156 235.234 322.653 235.24 323.049C235.274 324.945 235.554 326.806 236.124 328.618C237.147 331.872 239.024 334.46 242.326 335.88C244.869 336.973 247.565 337.162 250.279 336.888C254.93 336.418 258.305 334.212 260.08 329.89C260.999 327.657 261.282 325.321 261.468 322.959C261.49 322.685 261.356 322.263 261.835 322.279C262.253 322.292 262.745 322.013 263.058 322.652C263.405 323.356 263.958 323.94 264.755 324.251C265.857 324.679 266.056 325.487 265.293 326.368C264.616 327.151 264.787 328.318 265.664 328.958C266.467 329.546 267.64 329.316 268.178 328.494C268.804 327.528 268.523 326.48 267.351 325.922Z" fill="#578D8D"/>
<path fill-rule="evenodd" clip-rule="evenodd" d="M267.712 321.281L267.711 321.281C267.402 320.553 266.933 320.161 266.211 320.075C265.196 319.954 264.505 320.355 264.112 321.149C263.987 321.401 263.836 321.606 263.666 321.772C263.784 321.905 263.879 322.055 263.956 322.211C264.211 322.728 264.591 323.113 265.118 323.319C265.433 323.441 265.743 323.609 266.007 323.831C266.188 323.657 266.384 323.573 266.494 323.533C266.62 323.486 266.758 323.455 266.82 323.44C266.828 323.438 266.834 323.437 266.84 323.436C266.866 323.429 266.882 323.425 266.892 323.422C267.155 323.29 267.454 322.961 267.639 322.483C267.831 321.99 267.823 321.543 267.712 321.281ZM264.755 324.251C263.958 323.94 263.405 323.356 263.058 322.652C262.958 322.448 262.84 322.337 262.711 322.281C262.534 322.204 262.338 322.23 262.145 322.255C262.04 322.269 261.935 322.282 261.835 322.279C261.793 322.278 261.755 322.28 261.722 322.285C261.722 322.285 261.721 322.285 261.721 322.285C261.666 322.293 261.622 322.31 261.588 322.333C261.457 322.422 261.463 322.606 261.468 322.78C261.47 322.842 261.472 322.904 261.468 322.959C261.282 325.321 260.999 327.657 260.08 329.89C258.305 334.212 254.93 336.418 250.279 336.888C247.565 337.162 244.869 336.973 242.326 335.88C239.024 334.46 237.147 331.872 236.124 328.618L237.078 328.318C238.036 331.364 239.747 333.683 242.721 334.961M260.121 317.017C259.615 317.046 259.106 317.03 258.6 317.007C258.525 317.004 258.442 317.007 258.358 317.01C258.02 317.021 257.65 317.034 257.585 316.659C257.562 316.527 257.522 316.39 257.482 316.251C257.347 315.789 257.206 315.305 257.673 314.89C258.173 314.445 258.312 313.875 258.365 313.268C258.449 312.28 258.072 311.748 257.072 311.579C256.61 311.502 256.372 311.292 256.223 310.908C256.195 310.836 256.164 310.765 256.134 310.694C256.078 310.563 256.021 310.432 255.981 310.297C255.929 310.13 255.821 309.966 255.713 309.803C255.545 309.549 255.377 309.294 255.421 309.026C255.282 309.076 255.124 309.111 254.947 309.111C254.746 309.111 254.569 309.067 254.417 309.005C254.425 308.898 254.444 308.785 254.479 308.669C254.546 308.444 254.659 308.249 254.798 308.081C254.619 308.01 254.41 307.815 254.065 307.493C252.672 306.195 250.97 305.453 249.226 305.257C248.965 305.227 248.702 305.21 248.44 305.205V305.202C248.422 305.202 248.404 305.202 248.386 305.203C248.368 305.203 248.351 305.204 248.333 305.204C248.315 305.204 248.297 305.203 248.28 305.203C248.262 305.202 248.244 305.202 248.226 305.202V305.205C247.964 305.21 247.701 305.227 247.44 305.257C245.695 305.453 243.994 306.195 242.601 307.493C242.256 307.814 242.046 308.009 241.868 308.08C241.67 308.159 241.51 308.085 241.247 307.861C241.248 307.861 241.247 307.861 241.247 307.861C241.141 307.771 241.018 307.655 240.869 307.515L240.851 307.498C240.654 307.313 240.531 307.121 240.463 306.901C240.41 306.731 240.391 306.545 240.394 306.335C240.409 305.54 239.777 304.992 238.998 305C238.289 305.007 237.69 305.55 237.658 306.216C237.624 306.904 238.235 307.628 238.959 307.534C239.248 307.497 239.483 307.537 239.688 307.621C239.932 307.721 240.132 307.885 240.327 308.057C240.327 308.057 240.327 308.057 240.327 308.057C240.356 308.082 240.385 308.108 240.413 308.133C240.544 308.25 240.675 308.367 240.819 308.468C241.095 308.664 241.217 308.848 241.246 309.026C241.29 309.296 241.121 309.55 240.953 309.804C240.845 309.967 240.737 310.13 240.685 310.297C240.644 310.432 240.588 310.563 240.532 310.693C240.502 310.765 240.471 310.836 240.443 310.908C240.293 311.292 240.056 311.502 239.594 311.579C238.592 311.748 238.217 312.28 238.301 313.268C238.354 313.875 238.492 314.445 238.993 314.89C239.461 315.306 239.319 315.791 239.184 316.254C239.144 316.392 239.104 316.528 239.081 316.659C239.016 317.034 238.646 317.021 238.308 317.01C238.224 317.007 238.141 317.004 238.066 317.007C237.66 317.025 237.251 317.04 236.844 317.029C236.744 317.027 236.645 317.023 236.545 317.017C235.973 316.982 235.716 317.245 235.652 317.76C235.648 317.787 235.645 317.812 235.641 317.837C235.64 317.85 235.638 317.862 235.637 317.874C235.637 317.875 235.636 317.875 235.636 317.875H235.641C235.642 317.875 235.641 317.875 235.641 317.875C235.64 317.883 235.638 317.891 235.636 317.899C235.628 317.939 235.62 317.979 235.614 318.023C235.583 318.281 235.543 318.539 235.504 318.797C235.5 318.823 235.496 318.849 235.492 318.875C235.412 319.405 235.334 319.934 235.327 320.465C235.322 320.8 235.25 321.019 235.121 321.162C235.032 321.261 234.916 321.324 234.776 321.362C234.776 321.362 234.776 321.362 234.776 321.362C234.598 321.41 234.382 321.419 234.136 321.414C233.837 321.408 233.666 321.304 233.544 321.153C233.46 321.05 233.399 320.925 233.335 320.795C233.315 320.755 233.295 320.715 233.274 320.674C232.327 318.821 230.051 318.519 228.66 320.052C227.515 321.316 227.892 323.2 229.539 324.073C229.713 324.166 229.841 324.26 229.93 324.361C230.144 324.603 230.131 324.883 230.002 325.263C229.929 325.481 229.809 325.636 229.658 325.761C229.528 325.87 229.374 325.957 229.205 326.045C228.239 326.545 227.958 327.502 228.493 328.321C229.016 329.124 230.085 329.313 230.843 328.737C231.638 328.133 231.711 327.139 231.016 326.352C230.911 326.232 230.828 326.109 230.767 325.984C230.684 325.816 230.641 325.645 230.635 325.478C230.635 325.478 230.635 325.478 230.635 325.478C230.622 325.127 230.774 324.793 231.076 324.536C231.215 324.418 231.387 324.315 231.589 324.236C232.374 323.926 233.038 323.463 233.322 322.665C233.376 322.514 233.443 322.399 233.52 322.313C233.684 322.128 233.895 322.072 234.122 322.065C234.123 322.065 234.123 322.065 234.124 322.065C234.266 322.06 234.415 322.075 234.564 322.09C234.613 322.095 234.663 322.099 234.713 322.104C234.928 322.122 235.057 322.194 235.133 322.298C235.248 322.453 235.244 322.679 235.241 322.896C235.24 322.948 235.24 322.999 235.24 323.049C235.274 324.945 235.554 326.806 236.124 328.618L237.078 328.318C236.539 326.606 236.273 324.84 236.24 323.032C236.24 323.001 236.24 322.967 236.241 322.912L236.241 322.907C236.242 322.858 236.243 322.793 236.242 322.727C236.24 322.595 236.231 322.385 236.164 322.161C236.122 322.022 236.056 321.87 235.953 321.726C236.229 321.36 236.321 320.907 236.327 320.48C236.334 319.99 236.402 319.545 236.481 319.032C236.522 318.762 236.567 318.473 236.606 318.15C236.607 318.147 236.607 318.143 236.609 318.135C236.611 318.123 236.614 318.109 236.62 318.084L236.633 318.023C237.142 318.045 237.646 318.027 238.111 318.006M232.716 321.715C232.566 321.51 232.455 321.277 232.406 321.175C232.397 321.156 232.39 321.141 232.386 321.132L232.384 321.129C231.754 319.896 230.32 319.711 229.401 320.723M232.716 321.715C232.567 321.899 232.458 322.109 232.38 322.33ZM231.223 323.305C231.006 323.391 230.801 323.5 230.616 323.63C230.432 323.442 230.216 323.301 230.007 323.19C228.867 322.585 228.746 321.447 229.401 320.723M230.04 326.719C230.292 326.556 230.564 326.327 230.767 325.984ZM230.04 326.719C229.905 326.806 229.776 326.875 229.666 326.932C229.379 327.081 229.275 327.252 229.242 327.357C229.213 327.454 229.211 327.592 229.33 327.775C229.539 328.096 229.947 328.161 230.238 327.94C230.429 327.796 230.483 327.65 230.491 327.541C230.499 327.425 230.463 327.237 230.266 327.013L230.265 327.012C230.183 326.919 230.107 326.821 230.04 326.719ZM239.298 313.182C239.266 312.812 239.339 312.718 239.34 312.717C239.342 312.714 239.357 312.694 239.412 312.666C239.473 312.635 239.581 312.595 239.76 312.565C240.109 312.507 240.46 312.383 240.765 312.135C241.073 311.886 241.256 311.574 241.374 311.273L241.375 311.271C241.383 311.251 241.398 311.216 241.417 311.17C241.478 311.025 241.584 310.777 241.641 310.592C241.64 310.593 241.641 310.593 241.641 310.592C241.644 310.584 241.667 310.538 241.754 310.405C241.763 310.392 241.772 310.378 241.783 310.362C241.863 310.242 242.002 310.034 242.098 309.816C242.188 309.61 242.272 309.329 242.25 309.004C242.428 308.932 242.571 308.835 242.673 308.759C242.856 308.622 243.058 308.434 243.253 308.252C243.263 308.243 243.273 308.234 243.282 308.225C244.699 306.905 246.471 306.238 248.245 306.205L248.324 306.204C248.327 306.204 248.33 306.204 248.333 306.204C248.336 306.204 248.339 306.204 248.342 306.204L248.421 306.205C250.195 306.238 251.967 306.904 253.383 308.225M239.397 306.53C239.394 306.459 239.393 306.387 239.394 306.317L239.394 306.315C239.397 306.204 239.359 306.141 239.314 306.099C239.261 306.05 239.161 305.998 239.009 306L239.008 306C238.907 306.001 238.814 306.04 238.747 306.101C238.68 306.162 238.659 306.223 238.657 306.265C238.656 306.281 238.659 306.316 238.677 306.361C238.694 306.407 238.722 306.45 238.755 306.485C238.787 306.52 238.814 306.535 238.827 306.54C238.83 306.541 238.832 306.542 238.833 306.542C239.034 306.517 239.222 306.514 239.397 306.53ZM256.338 308.057C256.534 307.885 256.735 307.721 256.979 307.62C257.03 307.527 257.076 307.429 257.114 307.326M257.706 307.534C258.431 307.628 259.04 306.902 259.008 306.216C258.975 305.55 258.376 305.008 257.668 305C256.889 304.992 256.258 305.538 256.272 306.335C256.275 306.545 256.256 306.731 256.203 306.901C256.136 307.12 256.013 307.313 255.815 307.498L256.337 308.058C256.338 308.058 256.338 308.058 256.338 308.057M260.121 317.017C260.693 316.982 260.952 317.245 261.014 317.76C261.017 317.777 261.019 317.794 261.021 317.81M255.291 311.27C255.409 311.574 255.593 311.886 255.9 312.135C256.207 312.383 256.558 312.507 256.907 312.565L257.072 311.579L256.905 312.565C257.084 312.595 257.192 312.635 257.253 312.666C257.309 312.695 257.324 312.714 257.326 312.717C257.327 312.719 257.4 312.814 257.368 313.182C257.324 313.7 257.222 313.952 257.009 314.142C256.731 314.389 256.534 314.685 256.432 315.023C256.333 315.35 256.34 315.656 256.373 315.898C256.405 316.132 256.469 316.35 256.511 316.496C256.562 316.668 256.586 316.754 256.599 316.828L256.599 316.83C256.657 317.165 256.824 317.479 257.117 317.703C257.381 317.905 257.664 317.969 257.849 317.994C258.036 318.019 258.216 318.015 258.325 318.011C258.363 318.01 258.393 318.009 258.419 318.008C258.49 318.006 258.523 318.005 258.556 318.006L258.6 317.007L258.554 318.006C259.022 318.027 259.527 318.045 260.041 318.022L260.052 318.094L260.078 318.172C260.124 318.313 260.161 318.558 260.239 319.114L260.239 319.115C260.252 319.21 260.265 319.321 260.28 319.441C260.319 319.772 260.367 320.18 260.452 320.547C260.452 320.559 260.452 320.579 260.45 320.608C260.45 320.617 260.449 320.633 260.448 320.653C260.443 320.732 260.434 320.879 260.435 320.989C260.437 321.118 260.445 321.444 260.633 321.754C260.651 321.784 260.671 321.814 260.692 321.843M261.549 321.3C261.416 321.213 261.43 320.987 261.444 320.757C261.452 320.613 261.461 320.467 261.434 320.354M261.549 321.3C261.587 321.325 261.637 321.338 261.703 321.337C261.755 321.336 261.809 321.337 261.864 321.338C261.865 321.338 261.866 321.338 261.867 321.338C261.884 321.338 261.901 321.339 261.917 321.339C262.165 321.344 262.435 321.351 262.682 321.246C262.883 321.16 263.07 321 263.216 320.705C263.804 319.515 264.913 318.913 266.33 319.082C267.467 319.218 268.207 319.891 268.632 320.889C269.121 322.035 268.428 323.809 267.293 324.339C267.221 324.373 267.132 324.394 267.042 324.415C266.843 324.462 266.644 324.509 266.633 324.7C266.631 324.729 266.634 324.762 266.642 324.799C266.644 324.811 266.647 324.824 266.65 324.837C266.677 324.965 266.705 325.097 266.747 325.224C266.837 325.497 266.993 325.751 267.351 325.922C268.523 326.48 268.804 327.528 268.178 328.494C267.64 329.316 266.467 329.546 265.664 328.958C264.787 328.318 264.616 327.151 265.293 326.368C265.591 326.024 265.742 325.692 265.75 325.388C265.754 325.254 265.73 325.125 265.677 325.004C265.677 325.003 265.677 325.004 265.677 325.004C265.67 324.986 265.662 324.969 265.653 324.952C265.51 324.668 265.209 324.427 264.755 324.251M266.049 327.023C266.187 326.863 266.315 326.689 266.423 326.502ZM266.423 326.502C266.561 326.621 266.725 326.731 266.921 326.824C267.317 327.013 267.445 327.223 267.483 327.348C267.519 327.467 267.523 327.666 267.34 327.948C267.109 328.299 266.585 328.393 266.254 328.151C265.802 327.821 265.793 327.32 266.049 327.023M255.291 311.27C255.291 311.27 255.29 311.269 255.29 311.269L256.223 310.908L255.291 311.271C255.291 311.271 255.291 311.271 255.291 311.27ZM257.368 313.182C257.368 313.182 257.368 313.182 257.368 313.182Z" fill="#578D8D"/>
</svg>
