<svg width="519" height="339" viewBox="0 0 519 339" fill="none" xmlns="http://www.w3.org/2000/svg">
<path d="M501.667 3C501.667 4.47276 500.473 5.66667 499 5.66667C497.527 5.66667 496.333 4.47276 496.333 3C496.333 1.52724 497.527 0.333333 499 0.333333C500.473 0.333333 501.667 1.52724 501.667 3ZM499 307.457L499.5 307.457V307.457L499 307.457ZM0 336L5 333.113V338.887L0 336ZM499.5 3V7.00602H498.5V3H499.5ZM499.5 15.018V23.0301H498.5V15.018H499.5ZM499.5 31.0421V39.0541H498.5V31.0421H499.5ZM499.5 47.0662V55.0782H498.5V47.0662H499.5ZM499.5 63.0902V71.1023H498.5V63.0902H499.5ZM499.5 79.1143V87.1263H498.5V79.1143H499.5ZM499.5 95.1384V103.15H498.5V95.1384H499.5ZM499.5 111.162V119.174H498.5V111.162H499.5ZM499.5 127.186V135.199H498.5V127.186H499.5ZM499.5 143.211V151.223H498.5V143.211H499.5ZM499.5 159.235V167.247H498.5V159.235H499.5ZM499.5 175.259V183.271H498.5V175.259H499.5ZM499.5 191.283V199.295H498.5V191.283H499.5ZM499.5 207.307V215.319H498.5V207.307H499.5ZM499.5 223.331V231.343H498.5V223.331H499.5ZM499.5 239.355V247.367H498.5V239.355H499.5ZM499.5 255.379V263.391H498.5V255.379H499.5ZM499.5 271.403V279.415H498.5V271.403H499.5ZM499.5 287.427V295.439H498.5V287.427H499.5ZM499.5 303.451V307.457H498.5V303.451H499.5ZM499.5 307.457C499.5 308.694 499.5 309.878 499.499 311.011L498.499 311.009C498.5 309.878 498.5 308.694 498.5 307.457L499.5 307.457ZM499.447 318.085C499.398 320.841 499.304 323.185 499.123 325.174L498.127 325.084C498.305 323.13 498.398 320.815 498.447 318.068L499.447 318.085ZM497.465 332.197C496.858 333.338 496.066 334.191 495.044 334.818C494.029 335.441 492.809 335.826 491.363 336.07L491.197 335.084C492.569 334.853 493.653 334.498 494.521 333.966C495.382 333.438 496.053 332.721 496.582 331.727L497.465 332.197ZM484.243 336.493C483.144 336.501 481.963 336.5 480.697 336.5V335.5C481.964 335.5 483.141 335.501 484.236 335.493L484.243 336.493ZM480.697 336.5H476.692V335.5H480.697V336.5ZM468.68 336.5H460.668V335.5H468.68V336.5ZM452.657 336.5H444.645V335.5H452.657V336.5ZM436.633 336.5H428.622V335.5H436.633V336.5ZM420.61 336.5H412.599V335.5H420.61V336.5ZM404.587 336.5H396.575V335.5H404.587V336.5ZM388.564 336.5H380.552V335.5H388.564V336.5ZM372.54 336.5H364.529V335.5H372.54V336.5ZM356.517 336.5H348.506V335.5H356.517V336.5ZM340.494 336.5H332.482V335.5H340.494V336.5ZM324.471 336.5H316.459V335.5H324.471V336.5ZM308.447 336.5H300.436V335.5H308.447V336.5ZM292.424 336.5H284.413V335.5H292.424V336.5ZM276.401 336.5H268.389V335.5H276.401V336.5ZM260.378 336.5H252.366V335.5H260.378V336.5ZM244.354 336.5H236.343V335.5H244.354V336.5ZM228.331 336.5H220.32V335.5H228.331V336.5ZM212.308 336.5H204.296V335.5H212.308V336.5ZM196.285 336.5H188.273V335.5H196.285V336.5ZM180.261 336.5H172.25V335.5H180.261V336.5ZM164.238 336.5H156.227V335.5H164.238V336.5ZM148.215 336.5H140.203V335.5H148.215V336.5ZM132.192 336.5H124.18V335.5H132.192V336.5ZM116.168 336.5H108.157V335.5H116.168V336.5ZM100.145 336.5H92.1335V335.5H100.145V336.5ZM84.1219 336.5H76.1103V335.5H84.1219V336.5ZM68.0986 336.5H60.087V335.5H68.0986V336.5ZM52.0754 336.5H44.0638V335.5H52.0754V336.5ZM36.0521 336.5H28.0405V335.5H36.0521V336.5ZM20.0289 336.5H12.0173V335.5H20.0289V336.5Z" fill="#3E8E8E"/>
<path d="M517.56 111.922C517.019 111.664 516.939 111.214 516.851 110.799C516.77 110.416 517.244 110.461 517.503 110.339C518.638 109.809 519.33 108.035 518.841 106.889C518.416 105.891 517.677 105.218 516.54 105.082C515.122 104.913 514.014 105.515 513.425 106.705C513.048 107.468 512.4 107.327 511.912 107.337C511.474 107.345 511.726 106.7 511.643 106.354C511.535 105.904 511.503 105.436 511.439 104.977C511.367 104.465 511.318 104.108 511.237 103.861C511.232 103.828 511.229 103.793 511.224 103.76C511.161 103.245 510.902 102.982 510.33 103.017C509.824 103.046 509.315 103.03 508.809 103.007C508.434 102.991 507.875 103.128 507.794 102.659C507.696 102.086 507.275 101.43 507.882 100.89C508.383 100.445 508.522 99.8752 508.574 99.2679C508.659 98.2798 508.281 97.7479 507.281 97.5789C506.819 97.5017 506.581 97.2916 506.432 96.9075C506.352 96.704 506.253 96.5054 506.19 96.2969C506.006 95.6978 505.095 95.1479 506.056 94.4684C506.625 94.0679 507.002 93.4163 507.916 93.5344C508.64 93.628 509.249 92.9025 509.217 92.2164C509.185 91.55 508.586 91.0083 507.877 91.0001C507.099 90.9919 506.467 91.5385 506.481 92.3346C506.489 92.8171 506.376 93.17 506.024 93.4983C505.155 94.3125 505.16 94.319 504.275 93.4934C502.672 91.9997 500.662 91.243 498.649 91.2053V91.202C498.613 91.202 498.578 91.2036 498.542 91.2036C498.507 91.2036 498.471 91.202 498.436 91.202V91.2053C496.422 91.243 494.412 91.9997 492.81 93.4934C491.923 94.319 491.928 94.3125 491.06 93.4983C490.71 93.17 490.595 92.8171 490.604 92.3346C490.619 91.5401 489.986 90.9919 489.208 91.0001C488.499 91.0067 487.9 91.55 487.868 92.2164C487.834 92.9041 488.445 93.628 489.169 93.5344C490.082 93.4163 490.46 94.0679 491.028 94.4684C491.991 95.1479 491.079 95.6995 490.895 96.2969C490.83 96.5054 490.732 96.704 490.653 96.9075C490.502 97.2916 490.265 97.5017 489.803 97.5789C488.802 97.7479 488.426 98.2798 488.511 99.2679C488.563 99.8752 488.702 100.445 489.203 100.89C489.81 101.43 489.39 102.086 489.291 102.659C489.209 103.128 488.651 102.991 488.275 103.007C487.77 103.03 487.259 103.046 486.754 103.017C486.182 102.982 485.925 103.245 485.861 103.76C485.856 103.8 485.851 103.838 485.846 103.875H485.851C485.841 103.923 485.831 103.971 485.824 104.023C485.724 104.837 485.548 105.65 485.536 106.465C485.524 107.326 485.066 107.427 484.345 107.414C483.782 107.403 483.673 107.042 483.484 106.674C482.536 104.821 480.261 104.519 478.87 106.052C477.724 107.316 478.102 109.2 479.748 110.073C480.343 110.388 480.394 110.725 480.211 111.263C480.074 111.669 479.778 111.856 479.415 112.045C478.448 112.545 478.168 113.502 478.702 114.321C479.225 115.124 480.294 115.313 481.052 114.737C481.848 114.133 481.92 113.139 481.225 112.352C480.543 111.577 480.799 110.63 481.799 110.236C482.584 109.926 483.247 109.463 483.531 108.665C483.795 107.923 484.379 108.058 484.922 108.104C485.54 108.156 485.443 108.653 485.45 109.049C485.484 110.945 485.763 112.806 486.333 114.618C487.357 117.872 489.233 120.46 492.536 121.88C495.079 122.973 497.774 123.162 500.488 122.888C505.139 122.418 508.515 120.212 510.29 115.89C511.208 113.657 511.491 111.321 511.677 108.959C511.699 108.685 511.565 108.263 512.044 108.279C512.462 108.292 512.955 108.013 513.268 108.652C513.614 109.356 514.168 109.94 514.965 110.251C516.066 110.679 516.266 111.487 515.503 112.368C514.826 113.151 514.997 114.318 515.873 114.958C516.677 115.546 517.849 115.316 518.387 114.494C519.013 113.528 518.733 112.48 517.56 111.922Z" fill="#578D8D"/>
</svg>
