<svg xmlns="http://www.w3.org/2000/svg" viewBox="0 0 616.67 367.1"><defs><style>.cls-1{fill:#fff;stroke:#1d1d1b;stroke-miterlimit:10;}.cls-2{fill:#39A6B8;}.cls-3{fill:#9a9b9b;}.cls-4,.cls-5{fill:none;stroke:#438e90;}.cls-5{stroke-width:4px;}.cls-6{fill:#438e90;}</style></defs><g id="Camada_2" data-name="Camada 2"><g id="Camada_1-2" data-name="Camada 1"><rect class="cls-1" x="271.01" y="33.76" width="148.09" height="33.57" rx="8.59"/><rect class="cls-2" x="276.03" y="37.84" width="29.86" height="23.84" rx="8.59"/><rect class="cls-2" x="315.2" y="42.71" width="94.8" height="14.12" rx="7.06"/><rect class="cls-1" x="271.01" y="76.91" width="148.09" height="33.57" rx="8.59"/><rect class="cls-2" x="276.03" y="80.98" width="29.86" height="23.84" rx="8.59"/><rect class="cls-2" x="315.2" y="85.85" width="94.8" height="14.12" rx="7.06"/><rect class="cls-1" x="271.01" y="121.38" width="148.09" height="33.57" rx="8.59"/><rect class="cls-2" x="276.03" y="125.46" width="29.86" height="23.84" rx="8.59"/><rect class="cls-2" x="315.2" y="130.32" width="94.8" height="14.12" rx="7.06"/><rect class="cls-1" x="271.01" y="164.52" width="148.09" height="33.57" rx="8.59"/><rect class="cls-2" x="276.03" y="168.6" width="29.86" height="23.84" rx="8.59"/><rect class="cls-2" x="315.2" y="173.46" width="94.8" height="14.12" rx="7.06"/><rect class="cls-1" x="271.8" y="210.01" width="148.09" height="33.57" rx="8.59"/><rect class="cls-2" x="276.82" y="214.09" width="29.86" height="23.84" rx="8.59"/><rect class="cls-2" x="315.99" y="218.95" width="94.8" height="14.12" rx="7.06"/><rect class="cls-1" x="489.96" y="0.5" width="126.21" height="113.55"/><rect class="cls-2" x="541.47" y="10.98" width="63.73" height="11.18"/><path class="cls-2" d="M607.61,51.9H539.07v-16h68.54Zm-63.73-4.82h58.91V40.71H543.88Z"/><rect class="cls-2" x="541.47" y="27.8" width="63.73" height="4.82"/><path class="cls-2" d="M594.78,69.18H499.26V56.69h95.52Zm-90.71-4.81H590V61.5H504.07Z"/><rect class="cls-2" x="501.67" y="72.48" width="45.35" height="4.82"/><path class="cls-2" d="M594.78,96.59H499.26V84.09h95.52Zm-90.71-4.82H590V88.91H504.07Z"/><rect class="cls-2" x="501.67" y="99.88" width="45.35" height="4.82"/><rect class="cls-1" x="489.96" y="124.77" width="126.21" height="113.55"/><rect class="cls-2" x="541.47" y="135.24" width="63.73" height="11.18"/><path class="cls-2" d="M607.61,176.16H539.07v-16h68.54Zm-63.73-4.81h58.91V165H543.88Z"/><rect class="cls-2" x="541.47" y="152.07" width="63.73" height="4.82"/><path class="cls-2" d="M594.78,193.45H499.26V181h95.52Zm-90.71-4.81H590v-2.87H504.07Z"/><rect class="cls-2" x="501.67" y="196.75" width="45.35" height="4.82"/><path class="cls-2" d="M594.78,220.85H499.26V208.36h95.52ZM504.07,216H590v-2.87H504.07Z"/><rect class="cls-2" x="501.67" y="224.15" width="45.35" height="4.82"/><rect class="cls-1" x="271.8" y="253.94" width="148.09" height="33.57" rx="8.59"/><rect class="cls-2" x="276.82" y="258.02" width="29.86" height="23.84" rx="8.59"/><rect class="cls-2" x="315.99" y="262.88" width="94.8" height="14.12" rx="7.06"/><rect class="cls-1" x="489.96" y="253.05" width="126.21" height="113.55"/><rect class="cls-2" x="541.47" y="263.52" width="63.73" height="11.18"/><path class="cls-2" d="M607.61,304.44H539.07v-16h68.54Zm-63.73-4.81h58.91v-6.37H543.88Z"/><rect class="cls-2" x="541.47" y="280.35" width="63.73" height="4.82"/><path class="cls-2" d="M594.78,321.73H499.26v-12.5h95.52Zm-90.71-4.82H590v-2.86H504.07Z"/><rect class="cls-2" x="501.67" y="325.03" width="45.35" height="4.82"/><path class="cls-2" d="M594.78,349.13H499.26v-12.5h95.52Zm-90.71-4.82H590v-2.86H504.07Z"/><rect class="cls-2" x="501.67" y="352.43" width="45.35" height="4.82"/><path class="cls-2" d="M424.48,65.53l-5.38-5.38a55.52,55.52,0,0,1,7.21-6.08l4.4,6.21A49.33,49.33,0,0,0,424.48,65.53Z"/><path class="cls-2" d="M486.55,60.69a47.13,47.13,0,0,0-13.19-6.78l2.38-7.23a55.25,55.25,0,0,1,15.31,7.86Zm-42.53-7-2.27-7.27a55.82,55.82,0,0,1,16.6-2.52l.39,7.61A48.57,48.57,0,0,0,444,53.69Z"/><path class="cls-2" d="M486.66,266.5l5.38,5.38a55.63,55.63,0,0,1-7.2,6.09l-4.4-6.21A47.83,47.83,0,0,0,486.66,266.5Z"/><path class="cls-2" d="M424.59,271.35a47.29,47.29,0,0,0,13.2,6.77l-2.38,7.24a55,55,0,0,1-15.31-7.87Zm42.54,7,2.27,7.27a55.52,55.52,0,0,1-16.61,2.53l-.38-7.61A48.61,48.61,0,0,0,467.13,278.34Z"/><path class="cls-2" d="M423.94,181.73l-5.38-5.38a56.31,56.31,0,0,1,7.2-6.09l4.4,6.21A48.5,48.5,0,0,0,423.94,181.73Z"/><path class="cls-2" d="M486,176.88a47.53,47.53,0,0,0-13.19-6.78l2.37-7.23a55.25,55.25,0,0,1,15.31,7.86Zm-42.54-7-2.27-7.27a55.88,55.88,0,0,1,16.61-2.52l.38,7.61A48.61,48.61,0,0,0,443.47,169.88Z"/><rect class="cls-3" x="19.17" y="25.72" width="152" height="16.1"/><rect class="cls-4" x="0.5" y="0.5" width="225.45" height="366.1" rx="8.59"/><rect class="cls-3" x="19.17" y="64.43" width="174.22" height="16.55"/><rect class="cls-3" x="19.17" y="102.43" width="121.78" height="16.1"/><rect class="cls-3" x="19.17" y="137.16" width="174.22" height="16.55"/><rect class="cls-3" x="19.17" y="172.35" width="121.78" height="16.1"/><rect class="cls-3" x="19.17" y="207.99" width="152" height="16.1"/><rect class="cls-3" x="19.17" y="280.39" width="121.78" height="16.1"/><rect class="cls-3" x="19.17" y="243.62" width="152" height="16.1"/><rect class="cls-3" x="19.17" y="319.39" width="121.78" height="16.1"/><line class="cls-5" x1="81.83" y1="180.4" x2="219.02" y2="180.4"/><polygon class="cls-6" points="215.76 156.1 215.76 204.7 240.05 180.4 215.76 156.1"/></g></g></svg>