<svg xmlns="http://www.w3.org/2000/svg" viewBox="0 0 454.6 258.33"><defs><style>.cls-1{opacity:0.4;}.cls-2{fill:#39A6B8;}.cls-3{fill:#f5f4f5;}.cls-4{fill:#e0e0e0;}.cls-5{fill:#010101;}.cls-6{fill:#263239;}.cls-7{fill:#455a64;}.cls-8{fill:#ee7160;}.cls-11,.cls-9{fill:#afafaf;}.cls-10,.cls-12{fill:#fff;}.cls-11{stroke:#010202;}.cls-11,.cls-12,.cls-13{stroke-width:3px;}.cls-12,.cls-13{stroke:#010101;stroke-linecap:round;stroke-linejoin:round;}.cls-13,.cls-14{fill:none;}.cls-14{stroke:#438e90;}</style></defs><g id="Camada_2" data-name="Camada 2"><g id="Camada_1-2" data-name="Camada 1"><g class="cls-1"><rect class="cls-2" x="300.85" y="110.44" width="153.68" height="37.26"/></g><g class="cls-1"><rect class="cls-2" x="300.85" y="183.47" width="153.68" height="37.26"/></g><g class="cls-1"><rect class="cls-2" x="300.92" y="38.37" width="153.68" height="37.26"/></g><rect class="cls-3" x="300.88" y="2.67" width="153.68" height="37.26"/><rect class="cls-3" x="300.88" y="74.55" width="153.68" height="37.26"/><path class="cls-4" d="M320.24,30.84h0a8,8,0,0,1-8-8h0a8,8,0,0,1,8-8h0a8,8,0,0,1,8,8h0A8,8,0,0,1,320.24,30.84Z"/><polygon class="cls-2" points="317.01 22.2 320.24 17.69 323.11 22.31 320.03 21.21 317.01 22.2"/><polygon class="cls-2" points="316.88 22.93 320.06 24.71 323.19 23.07 320.06 21.69 316.88 22.93"/><path class="cls-2" d="M316.88,23.73c.07.05,3.18,4.09,3.18,4.09l3.13-4.09-3.13,1.68Z"/><path class="cls-4" d="M321.23,64.1h0a8,8,0,0,1-8-8h0a8,8,0,0,1,8-8h0a8,8,0,0,1,8,8h0A8,8,0,0,1,321.23,64.1Z"/><path class="cls-4" d="M321.23,99.6h0a8,8,0,0,1-8-8h0a8,8,0,0,1,8-8h0a8,8,0,0,1,8,8h0A8,8,0,0,1,321.23,99.6Z"/><path class="cls-5" d="M358.24,23.66c0,.14-5.24.26-11.7.26s-11.71-.12-11.71-.26,5.24-.26,11.71-.26S358.24,23.52,358.24,23.66Z"/><path class="cls-4" d="M384.5,27.82c0,.14-11.08.26-24.76.26S335,28,335,27.82s11.09-.27,24.76-.27S384.5,27.67,384.5,27.82Z"/><path class="cls-5" d="M360,55.7c0,.14-5.24.26-11.7.26s-11.71-.12-11.71-.26,5.24-.26,11.71-.26S360,55.56,360,55.7Z"/><path class="cls-4" d="M386.26,59.86c0,.14-11.09.26-24.76.26s-24.76-.12-24.76-.26,11.08-.26,24.76-.26S386.26,59.71,386.26,59.86Z"/><path class="cls-5" d="M361.83,91.11c0,.14-5.24.26-11.7.26s-11.71-.12-11.71-.26,5.24-.26,11.71-.26S361.83,91,361.83,91.11Z"/><path class="cls-4" d="M388.09,95.26c0,.15-11.08.26-24.76.26s-24.76-.11-24.76-.26S349.66,95,363.33,95,388.09,95.12,388.09,95.26Z"/><path class="cls-2" d="M319.68,52.07l-1,4.09a1.16,1.16,0,0,0-.92.75,1.66,1.66,0,0,0-.17,1l.6-.26-.43,2.25H324l.46-1.76h-3.75l.31-1.65a1.65,1.65,0,0,0,1.11-1.53l-.7.12.75-3Z"/><path class="cls-6" d="M404.91,25.08v1h-.43v-1a3.24,3.24,0,0,1-2-.77l.25-.49a2.84,2.84,0,0,0,1.79.72V22.3c-.94-.23-1.89-.52-1.89-1.64,0-.82.59-1.53,1.89-1.63v-1h.43v1a3.33,3.33,0,0,1,1.72.53l-.21.5a3.16,3.16,0,0,0-1.51-.49v2.25c1,.23,2,.51,2,1.65C406.88,24.28,406.26,25,404.91,25.08Zm-.43-3.38V19.57c-.88.08-1.27.53-1.27,1.07S403.78,21.52,404.48,21.7Zm1.78,1.79c0-.67-.62-.9-1.35-1.08v2.13C405.84,24.47,406.26,24,406.26,23.49Z"/><path class="cls-6" d="M411.61,19.07v6H411V19.62h-1.4v-.55Z"/><path class="cls-6" d="M413,22.05c0-1.9,1-3,2.37-3s2.39,1.13,2.39,3-1,3-2.39,3S413,24,413,22.05Zm4.13,0c0-1.59-.72-2.47-1.76-2.47s-1.75.88-1.75,2.47.72,2.47,1.75,2.47S417.16,23.64,417.16,22.05Z"/><path class="cls-6" d="M419.49,24.61a1.3,1.3,0,0,1-.12.49L419,26.28h-.41L418.9,25a.43.43,0,0,1-.31-.43.44.44,0,0,1,.45-.46A.44.44,0,0,1,419.49,24.61Z"/><path class="cls-6" d="M424.4,23.32c0,1-.72,1.76-2.16,1.76a3.07,3.07,0,0,1-2.14-.76l.3-.49a2.6,2.6,0,0,0,1.84.69c1,0,1.53-.46,1.53-1.2s-.5-1.18-1.6-1.18h-.43v-.45l1.65-2.07h-3.05v-.55h3.84v.44l-1.69,2.12C423.77,21.69,424.4,22.37,424.4,23.32Z"/><path class="cls-6" d="M429.22,23.28c0,1-.7,1.8-2.16,1.8a3.07,3.07,0,0,1-2.14-.76l.3-.49a2.61,2.61,0,0,0,1.83.69c1,0,1.55-.49,1.55-1.22s-.47-1.24-2-1.24h-1.27l.31-3h3.26v.55h-2.73l-.2,1.9h.77C428.54,21.52,429.22,22.22,429.22,23.28Z"/><path class="cls-6" d="M434.48,23.25a1.86,1.86,0,0,1-2,1.83c-1.58,0-2.44-1.09-2.44-3S431.11,19,432.72,19a2.67,2.67,0,0,1,1.42.33l-.25.49a2,2,0,0,0-1.16-.28c-1.28,0-2.11.82-2.11,2.44a4.57,4.57,0,0,0,0,.49,1.89,1.89,0,0,1,1.82-1A1.8,1.8,0,0,1,434.48,23.25Zm-.61,0c0-.78-.57-1.29-1.49-1.29a1.39,1.39,0,0,0-1.54,1.31c0,.65.55,1.27,1.58,1.27A1.3,1.3,0,0,0,433.87,23.27Z"/><path class="cls-6" d="M435.28,24.61a.44.44,0,0,1,.45-.46.45.45,0,0,1,.46.46.47.47,0,0,1-.46.47A.46.46,0,0,1,435.28,24.61Z"/><path class="cls-6" d="M437,22.05c0-1.9,1-3,2.38-3s2.38,1.13,2.38,3-1,3-2.38,3S437,24,437,22.05Zm4.13,0c0-1.59-.71-2.47-1.75-2.47s-1.76.88-1.76,2.47.72,2.47,1.76,2.47S441.11,23.64,441.11,22.05Z"/><path class="cls-6" d="M442.62,22.05c0-1.9,1-3,2.38-3s2.38,1.13,2.38,3-1,3-2.38,3S442.62,24,442.62,22.05Zm4.13,0c0-1.59-.72-2.47-1.75-2.47s-1.76.88-1.76,2.47.72,2.47,1.76,2.47S446.75,23.64,446.75,22.05Z"/><path class="cls-6" d="M418.3,54.6v1h-.42v-1a3.22,3.22,0,0,1-2-.78l.25-.48a2.89,2.89,0,0,0,1.79.71V51.82c-.94-.23-1.89-.52-1.89-1.64,0-.82.58-1.53,1.89-1.63v-1h.42v1a3.43,3.43,0,0,1,1.73.53l-.21.5a3.28,3.28,0,0,0-1.52-.49v2.26c1,.23,2,.5,2,1.64C420.28,53.81,419.66,54.52,418.3,54.6Zm-.42-3.37V49.1c-.88.07-1.27.53-1.27,1.06S417.18,51.05,417.88,51.23ZM419.66,53c0-.67-.63-.9-1.36-1.08v2.13C419.24,54,419.66,53.56,419.66,53Z"/><path class="cls-6" d="M425,48.6v5.95h-.61V49.14H423V48.6Z"/><path class="cls-6" d="M426.43,51.57c0-1.89,1-3,2.37-3s2.39,1.14,2.39,3-1,3-2.39,3S426.43,53.47,426.43,51.57Zm4.13,0c0-1.59-.72-2.46-1.76-2.46s-1.75.87-1.75,2.46S427.76,54,428.8,54,430.56,53.17,430.56,51.57Z"/><path class="cls-6" d="M435.92,52.84c0,1-.72,1.77-2.16,1.77a3.11,3.11,0,0,1-2.15-.77l.3-.49a2.6,2.6,0,0,0,1.85.69c1,0,1.53-.46,1.53-1.2s-.5-1.18-1.61-1.18h-.43v-.45l1.66-2.07h-3.05V48.6h3.83V49L434,51.15C435.28,51.22,435.92,51.89,435.92,52.84Z"/><path class="cls-6" d="M437.7,54.13a1.26,1.26,0,0,1-.12.49l-.36,1.18h-.41l.29-1.24a.43.43,0,0,1-.3-.43.45.45,0,1,1,.9,0Z"/><path class="cls-6" d="M442.63,52.8c0,1-.71,1.81-2.16,1.81a3.08,3.08,0,0,1-2.14-.77l.3-.49a2.57,2.57,0,0,0,1.83.69c1,0,1.55-.49,1.55-1.21s-.48-1.25-2-1.25h-1.27l.3-3h3.26v.54h-2.72l-.2,1.9h.76C442,51,442.63,51.75,442.63,52.8Z"/><path class="cls-6" d="M447.88,52.78a1.85,1.85,0,0,1-2,1.83c-1.59,0-2.45-1.1-2.45-3,0-2,1.11-3.09,2.73-3.09a2.7,2.7,0,0,1,1.41.33l-.24.49a2.15,2.15,0,0,0-1.16-.28c-1.29,0-2.11.83-2.11,2.44,0,.14,0,.31,0,.49a1.9,1.9,0,0,1,1.82-1A1.8,1.8,0,0,1,447.88,52.78Zm-.6,0c0-.78-.58-1.28-1.5-1.28a1.38,1.38,0,0,0-1.53,1.3c0,.66.54,1.28,1.57,1.28A1.31,1.31,0,0,0,447.28,52.79Z"/><path class="cls-7" d="M429.11,28.88v.66l-1.64,3.77h-1.12l1.59-3.6h-1.47v.72h-.91V28.88Z"/><path class="cls-7" d="M429.23,32.74a.62.62,0,0,1,1.23,0,.62.62,0,1,1-1.23,0Z"/><path class="cls-7" d="M434.27,31.91c0,.79-.57,1.47-1.84,1.47a3.1,3.1,0,0,1-1.69-.47l.4-.79a2.1,2.1,0,0,0,1.26.4c.52,0,.83-.21.83-.57s-.22-.58-1-.58h-1.13l.23-2.49H434v.82h-1.85l-.07.84h.36C433.75,30.54,434.27,31.13,434.27,31.91Z"/><path class="cls-7" d="M438.4,32c0,.84-.74,1.36-1.87,1.36s-1.86-.52-1.86-1.36a1.13,1.13,0,0,1,.67-1,1,1,0,0,1-.51-.91c0-.78.69-1.27,1.7-1.27s1.72.49,1.72,1.27a1,1,0,0,1-.52.91A1.11,1.11,0,0,1,438.4,32Zm-1,0c0-.39-.33-.63-.84-.63s-.82.24-.82.63.31.64.82.64S437.37,32.38,437.37,32Zm-1.52-1.88c0,.34.26.54.68.54s.7-.2.7-.54-.28-.56-.7-.56S435.85,29.76,435.85,30.11Z"/><path class="cls-7" d="M438.74,30.05a1.1,1.1,0,1,1,1.1,1.22A1.1,1.1,0,0,1,438.74,30.05Zm1.56,0c0-.48-.18-.71-.46-.71s-.46.24-.46.71.19.7.46.7S440.3,30.52,440.3,30.05Zm2.18-1.17h.75l-3,4.43h-.75Zm-.73,3.26a1.11,1.11,0,1,1,1.09,1.22A1.11,1.11,0,0,1,441.75,32.14Zm1.56,0c0-.47-.19-.71-.47-.71s-.46.23-.46.71.19.7.46.7S443.31,32.6,443.31,32.14Z"/><path class="cls-8" d="M422.62,60.33h1.79v.79h-1.79Z"/><path class="cls-8" d="M428.67,61.11A1.53,1.53,0,0,1,427,62.59c-1.22,0-2-.77-2-2.2A2.16,2.16,0,0,1,427.27,58a2.47,2.47,0,0,1,1.24.3l-.38.76a1.44,1.44,0,0,0-.83-.22,1.17,1.17,0,0,0-1.25,1.28,1.48,1.48,0,0,1,1.09-.39A1.4,1.4,0,0,1,428.67,61.11Zm-1,0a.67.67,0,0,0-.76-.66.68.68,0,0,0-.76.66c0,.38.28.66.78.66A.66.66,0,0,0,427.68,61.16Z"/><path class="cls-8" d="M429.08,61.94a.59.59,0,0,1,.61-.61.6.6,0,0,1,.62.61.61.61,0,0,1-.62.62A.6.6,0,0,1,429.08,61.94Z"/><path class="cls-8" d="M434.14,61.67v.84H430.8v-.67l1.7-1.61c.4-.37.47-.6.47-.82s-.24-.55-.71-.55a1.1,1.1,0,0,0-.92.44l-.75-.48a2.05,2.05,0,0,1,1.76-.82c1,0,1.65.51,1.65,1.31a1.78,1.78,0,0,1-.74,1.4l-1,1Z"/><path class="cls-8" d="M438.28,61.22c0,.84-.74,1.37-1.87,1.37s-1.86-.53-1.86-1.37a1.11,1.11,0,0,1,.67-1,1,1,0,0,1-.52-.91c0-.78.7-1.27,1.71-1.27s1.71.49,1.71,1.27a1,1,0,0,1-.52.91A1.1,1.1,0,0,1,438.28,61.22Zm-1,0c0-.39-.32-.63-.83-.63s-.83.24-.83.63.32.64.83.64S437.24,61.58,437.24,61.19Zm-1.52-1.88c0,.34.27.55.69.55s.69-.21.69-.55-.27-.56-.69-.56S435.72,59,435.72,59.31Z"/><path class="cls-8" d="M438.61,59.25a1.11,1.11,0,1,1,1.1,1.22A1.1,1.1,0,0,1,438.61,59.25Zm1.57,0c0-.48-.19-.7-.47-.7s-.46.23-.46.7.19.7.46.7S440.18,59.72,440.18,59.25Zm2.18-1.17h.75l-3,4.43h-.75Zm-.73,3.26a1.11,1.11,0,1,1,1.09,1.22A1.09,1.09,0,0,1,441.63,61.34Zm1.56,0c0-.47-.19-.7-.47-.7s-.46.22-.46.7.19.7.46.7S443.19,61.81,443.19,61.34Z"/><path class="cls-7" d="M446.24,33.14h-1.37a.43.43,0,0,1-.37-.64l.68-1.18.68-1.18a.43.43,0,0,1,.75,0l.68,1.18L448,32.5a.43.43,0,0,1-.37.64Z"/><path class="cls-6" d="M407.88,92.7v1h-.42v-1a3.22,3.22,0,0,1-2-.78l.25-.48a2.89,2.89,0,0,0,1.79.71V89.92c-.94-.23-1.89-.52-1.89-1.64,0-.82.59-1.52,1.89-1.63v-1h.42v1a3.43,3.43,0,0,1,1.73.53l-.21.51a3.18,3.18,0,0,0-1.52-.5v2.26c1,.23,2,.5,2,1.64C409.86,91.91,409.24,92.62,407.88,92.7Zm-.42-3.37V87.2c-.88.07-1.27.53-1.27,1.06S406.76,89.15,407.46,89.33Zm1.78,1.78c0-.67-.62-.9-1.36-1.08v2.13C408.82,92.09,409.24,91.66,409.24,91.11Z"/><path class="cls-6" d="M414.59,86.7v6H414V87.24h-1.4V86.7Z"/><path class="cls-6" d="M420.05,90.9c0,1-.7,1.81-2.16,1.81a3.08,3.08,0,0,1-2.14-.77l.3-.48a2.61,2.61,0,0,0,1.83.68c1,0,1.55-.49,1.55-1.21s-.48-1.25-2-1.25h-1.27l.31-3h3.26v.54H417l-.2,1.9h.76C419.37,89.14,420.05,89.85,420.05,90.9Z"/><path class="cls-6" d="M421.75,92.23a1.48,1.48,0,0,1-.12.49l-.36,1.18h-.41l.29-1.24a.43.43,0,0,1-.31-.43.45.45,0,0,1,.46-.46A.44.44,0,0,1,421.75,92.23Z"/><path class="cls-6" d="M426.66,90.94c0,1-.72,1.77-2.16,1.77a3.11,3.11,0,0,1-2.15-.77l.3-.48a2.64,2.64,0,0,0,1.85.68c1,0,1.53-.46,1.53-1.2s-.5-1.18-1.61-1.18H424v-.45l1.66-2.07h-3V86.7h3.83v.43l-1.69,2.12C426,89.32,426.66,90,426.66,90.94Z"/><path class="cls-6" d="M431.48,90.9c0,1-.71,1.81-2.16,1.81a3.08,3.08,0,0,1-2.14-.77l.3-.48a2.61,2.61,0,0,0,1.83.68c1,0,1.55-.49,1.55-1.21s-.48-1.25-2-1.25H427.6l.3-3h3.26v.54h-2.72l-.21,1.9H429C430.8,89.14,431.48,89.85,431.48,90.9Z"/><path class="cls-6" d="M436.73,90.88a1.85,1.85,0,0,1-2,1.83c-1.58,0-2.45-1.1-2.45-3,0-2,1.11-3.09,2.73-3.09a2.7,2.7,0,0,1,1.41.33l-.24.49a2.15,2.15,0,0,0-1.16-.28c-1.29,0-2.11.83-2.11,2.44,0,.14,0,.31,0,.49a1.9,1.9,0,0,1,1.82-1A1.8,1.8,0,0,1,436.73,90.88Zm-.6,0c0-.78-.58-1.28-1.5-1.28a1.38,1.38,0,0,0-1.53,1.3c0,.66.54,1.28,1.57,1.28A1.31,1.31,0,0,0,436.13,90.89Z"/><path class="cls-6" d="M437.53,92.23a.46.46,0,0,1,.46-.46.47.47,0,0,1,.46.46.47.47,0,0,1-.46.47A.47.47,0,0,1,437.53,92.23Z"/><path class="cls-6" d="M440.88,86.7v6h-.61V87.24h-1.41V86.7Z"/><path class="cls-6" d="M442.3,89.68c0-1.9,1-3,2.38-3s2.38,1.14,2.38,3-1,3-2.38,3S442.3,91.57,442.3,89.68Zm4.13,0c0-1.6-.71-2.47-1.75-2.47s-1.76.87-1.76,2.47.72,2.46,1.76,2.46S446.43,91.27,446.43,89.68Z"/><path class="cls-7" d="M426.87,96.5v.66l-1.65,3.77h-1.11l1.59-3.59h-1.47v.72h-.91V96.5Z"/><path class="cls-7" d="M427,100.36a.59.59,0,0,1,.61-.61.6.6,0,0,1,.62.61.61.61,0,0,1-.62.62A.6.6,0,0,1,427,100.36Z"/><path class="cls-7" d="M432,99.54c0,.78-.58,1.47-1.84,1.47a3.06,3.06,0,0,1-1.7-.48l.41-.78a2.17,2.17,0,0,0,1.26.4c.51,0,.83-.22.83-.58s-.23-.58-1-.58h-1.14l.23-2.49h2.71v.82h-1.85l-.07.84h.36C431.51,98.16,432,98.75,432,99.54Z"/><path class="cls-7" d="M436.16,99.65c0,.83-.75,1.36-1.87,1.36s-1.87-.53-1.87-1.36a1.14,1.14,0,0,1,.67-1.05,1,1,0,0,1-.51-.91c0-.78.7-1.27,1.71-1.27s1.71.49,1.71,1.27a1,1,0,0,1-.52.91A1.13,1.13,0,0,1,436.16,99.65Zm-1,0c0-.39-.32-.63-.83-.63s-.83.24-.83.63.32.64.83.64S435.12,100,435.12,99.61Zm-1.52-1.88c0,.34.27.55.69.55s.69-.21.69-.55-.28-.55-.69-.55S433.6,97.39,433.6,97.73Z"/><path class="cls-7" d="M436.49,97.67a1.11,1.11,0,1,1,1.1,1.22A1.1,1.1,0,0,1,436.49,97.67Zm1.57,0c0-.47-.19-.7-.47-.7s-.46.23-.46.7.19.7.46.7S438.06,98.15,438.06,97.67Zm2.17-1.17H441l-3,4.43h-.75Zm-.72,3.26A1.1,1.1,0,1,1,440.6,101,1.09,1.09,0,0,1,439.51,99.76Zm1.55,0c0-.47-.18-.7-.46-.7s-.46.23-.46.7.19.7.46.7S441.06,100.23,441.06,99.76Z"/><path class="cls-7" d="M445.12,100.76h-1.36a.43.43,0,0,1-.38-.64l.69-1.18.68-1.18a.43.43,0,0,1,.74,0l.68,1.18.68,1.18a.42.42,0,0,1-.37.64Z"/><path class="cls-8" d="M446.24,59.29h1.36a.43.43,0,0,1,.37.65l-.68,1.18-.68,1.18a.44.44,0,0,1-.75,0l-.68-1.18-.68-1.18a.43.43,0,0,1,.37-.65Z"/><path class="cls-2" d="M324.6,93.33a1.92,1.92,0,0,0-1.21-2,2,2,0,0,0,.86-1.73,1.89,1.89,0,0,0-1.61-2V86.46h-1.15v1.15h-.65V86.46H319.7v1.15h-1.76v1.15h.72v5.55h-.8v1.15h1.84v1.33h1.14V95.46h.65v1.33h1.15V95.41A2,2,0,0,0,324.6,93.33Zm-4.49-4.57h1.55c.86,0,1.34.35,1.34,1.08s-.48,1.08-1.34,1.08H319.9V88.76Zm1.79,5.55h-2V92.05h2c.94,0,1.45.35,1.45,1.13S322.84,94.31,321.9,94.31Z"/><path class="cls-5" d="M454.34,2.67c0,.14-34.29.26-76.58.26s-76.58-.12-76.58-.26,34.28-.26,76.58-.26S454.34,2.53,454.34,2.67Z"/><path class="cls-4" d="M454.34,39.93c0,.15-34.29.26-76.58.26s-76.58-.11-76.58-.26,34.28-.26,76.58-.26S454.34,39.79,454.34,39.93Z"/><path class="cls-4" d="M454.34,74.55c0,.15-34.29.26-76.58.26s-76.58-.11-76.58-.26,34.28-.26,76.58-.26S454.34,74.41,454.34,74.55Z"/><path class="cls-4" d="M454.34,111.81c0,.15-34.29.27-76.58.27s-76.58-.12-76.58-.27,34.28-.26,76.58-.26S454.34,111.67,454.34,111.81Z"/><path class="cls-4" d="M320.51,137.47h0a8,8,0,0,1-8-8h0a8,8,0,0,1,8-8h0a8,8,0,0,1,8,8h0A8,8,0,0,1,320.51,137.47Z"/><path class="cls-5" d="M359.29,129.07c0,.15-5.25.26-11.71.26s-11.7-.11-11.7-.26,5.24-.26,11.7-.26S359.29,128.93,359.29,129.07Z"/><path class="cls-4" d="M385.54,133.23c0,.14-11.08.26-24.75.26s-24.76-.12-24.76-.26,11.08-.26,24.76-.26S385.54,133.08,385.54,133.23Z"/><path class="cls-2" d="M319,125.44l-1,4.09a1.16,1.16,0,0,0-.92.75,1.76,1.76,0,0,0-.18,1l.61-.26-.43,2.25h6.23l.46-1.76H320l.31-1.65a1.64,1.64,0,0,0,1.1-1.53l-.69.12.75-3Z"/><path class="cls-6" d="M417.59,128v1h-.43v-1a3.19,3.19,0,0,1-2-.78l.24-.48a2.94,2.94,0,0,0,1.79.71v-2.24c-.94-.23-1.89-.52-1.89-1.64,0-.82.59-1.53,1.89-1.63v-1h.43v1a3.46,3.46,0,0,1,1.73.53l-.22.5a3.24,3.24,0,0,0-1.51-.49v2.26c1,.23,2,.5,2,1.64C419.56,127.18,418.94,127.89,417.59,128Zm-.43-3.37v-2.13c-.87.07-1.27.53-1.27,1.06S416.46,124.42,417.16,124.6Zm1.78,1.78c0-.67-.62-.9-1.35-1.08v2.13C418.52,127.36,418.94,126.93,418.94,126.38Z"/><path class="cls-6" d="M424.29,122v6h-.61v-5.42h-1.41V122Z"/><path class="cls-6" d="M425.71,124.94c0-1.89,1-3,2.38-3s2.38,1.14,2.38,3-1,3-2.38,3S425.71,126.84,425.71,124.94Zm4.13,0c0-1.59-.71-2.46-1.75-2.46s-1.76.87-1.76,2.46.72,2.47,1.76,2.47S429.84,126.54,429.84,124.94Z"/><path class="cls-6" d="M435.21,126.21c0,1-.73,1.77-2.17,1.77a3.08,3.08,0,0,1-2.14-.77l.3-.48a2.64,2.64,0,0,0,1.84.68c1,0,1.54-.46,1.54-1.2S434.07,125,433,125h-.43v-.45l1.65-2.07h-3.05V122H435v.43l-1.69,2.12C434.57,124.59,435.21,125.26,435.21,126.21Z"/><path class="cls-6" d="M437,127.5a1.48,1.48,0,0,1-.12.49l-.36,1.18h-.41l.29-1.24a.43.43,0,0,1-.31-.43.46.46,0,1,1,.91,0Z"/><path class="cls-6" d="M441.92,126.17c0,1-.71,1.81-2.17,1.81a3.05,3.05,0,0,1-2.13-.77l.29-.48a2.65,2.65,0,0,0,1.83.68c1,0,1.55-.49,1.55-1.21s-.47-1.25-2-1.25H438l.31-3h3.26v.54h-2.72l-.21,1.9h.77C441.23,124.41,441.92,125.12,441.92,126.17Z"/><path class="cls-6" d="M447.17,126.15a1.86,1.86,0,0,1-2,1.83c-1.58,0-2.44-1.1-2.44-3,0-2,1.11-3.09,2.72-3.09a2.76,2.76,0,0,1,1.42.33l-.25.49a2.12,2.12,0,0,0-1.16-.28c-1.28,0-2.11.83-2.11,2.44a4.57,4.57,0,0,0,0,.49,1.89,1.89,0,0,1,1.82-1A1.81,1.81,0,0,1,447.17,126.15Zm-.61,0c0-.78-.57-1.28-1.49-1.28a1.38,1.38,0,0,0-1.54,1.3c0,.66.55,1.28,1.58,1.28A1.3,1.3,0,0,0,446.56,126.16Z"/><path class="cls-8" d="M421.91,133.7h1.79v.79h-1.79Z"/><path class="cls-8" d="M428,134.48a1.53,1.53,0,0,1-1.68,1.48c-1.22,0-2-.77-2-2.2a2.16,2.16,0,0,1,2.26-2.39,2.43,2.43,0,0,1,1.23.3l-.38.76a1.42,1.42,0,0,0-.83-.22,1.18,1.18,0,0,0-1.25,1.28,1.51,1.51,0,0,1,1.1-.39A1.4,1.4,0,0,1,428,134.48Zm-1,.05a.67.67,0,0,0-.75-.66.69.69,0,0,0-.77.66c0,.38.29.66.78.66A.66.66,0,0,0,427,134.53Z"/><path class="cls-8" d="M428.36,135.31a.6.6,0,0,1,.62-.61.59.59,0,0,1,.61.61.6.6,0,0,1-.61.62A.61.61,0,0,1,428.36,135.31Z"/><path class="cls-8" d="M433.43,135v.84h-3.35v-.67l1.71-1.61c.39-.37.46-.6.46-.82s-.24-.55-.71-.55a1.06,1.06,0,0,0-.91.45l-.75-.49a2.05,2.05,0,0,1,1.76-.82c1,0,1.64.51,1.64,1.31a1.78,1.78,0,0,1-.74,1.4l-1,1Z"/><path class="cls-8" d="M437.57,134.59c0,.84-.75,1.37-1.88,1.37s-1.86-.53-1.86-1.37a1.13,1.13,0,0,1,.67-1,1,1,0,0,1-.51-.91c0-.78.7-1.27,1.7-1.27s1.72.49,1.72,1.27a1,1,0,0,1-.52.91A1.12,1.12,0,0,1,437.57,134.59Zm-1,0c0-.39-.32-.63-.84-.63s-.82.24-.82.63.32.64.82.64S436.53,135,436.53,134.56ZM435,132.68c0,.34.26.55.68.55s.7-.21.7-.55-.28-.56-.7-.56S435,132.33,435,132.68Z"/><path class="cls-8" d="M437.9,132.62a1.11,1.11,0,1,1,1.1,1.22A1.1,1.1,0,0,1,437.9,132.62Zm1.56,0c0-.48-.18-.7-.46-.7s-.46.23-.46.7.19.7.46.7S439.46,133.09,439.46,132.62Zm2.18-1.17h.76l-3,4.43h-.76Zm-.73,3.26a1.11,1.11,0,1,1,1.1,1.22A1.1,1.1,0,0,1,440.91,134.71Zm1.56,0c0-.47-.18-.7-.46-.7s-.46.22-.46.7.19.7.46.7S442.47,135.18,442.47,134.71Z"/><path class="cls-8" d="M445.52,132.66h1.36a.43.43,0,0,1,.37.65l-.68,1.18-.68,1.18a.43.43,0,0,1-.74,0l-.68-1.18-.68-1.18a.43.43,0,0,1,.37-.65Z"/><rect class="cls-3" x="300.85" y="146.78" width="153.68" height="37.26"/><rect class="cls-3" x="300.85" y="218.66" width="153.68" height="37.26"/><path class="cls-4" d="M320.2,174.94h0a8,8,0,0,1-8-8h0a8,8,0,0,1,8-8h0a8,8,0,0,1,8,8h0A8,8,0,0,1,320.2,174.94Z"/><polygon class="cls-2" points="316.97 166.31 320.2 161.8 323.08 166.42 319.99 165.31 316.97 166.31"/><polygon class="cls-2" points="316.84 167.04 320.03 168.82 323.16 167.17 320.03 165.8 316.84 167.04"/><path class="cls-2" d="M316.84,167.83c.08.06,3.19,4.09,3.19,4.09l3.13-4.09L320,169.52Z"/><path class="cls-4" d="M321.19,208.2h0a8,8,0,0,1-8-8h0a8,8,0,0,1,8-8h0a8,8,0,0,1,8,8h0A8,8,0,0,1,321.19,208.2Z"/><path class="cls-4" d="M321.19,243.7h0a8,8,0,0,1-8-8h0a8,8,0,0,1,8-8h0a8,8,0,0,1,8,8h0A8,8,0,0,1,321.19,243.7Z"/><path class="cls-5" d="M358.21,167.76c0,.15-5.24.27-11.71.27s-11.7-.12-11.7-.27,5.24-.26,11.7-.26S358.21,167.62,358.21,167.76Z"/><path class="cls-4" d="M384.47,171.92c0,.14-11.09.26-24.76.26s-24.76-.12-24.76-.26,11.08-.26,24.76-.26S384.47,171.78,384.47,171.92Z"/><path class="cls-5" d="M360,199.81c0,.14-5.24.26-11.7.26s-11.7-.12-11.7-.26,5.23-.26,11.7-.26S360,199.66,360,199.81Z"/><path class="cls-4" d="M386.22,204c0,.15-11.08.26-24.75.26s-24.76-.11-24.76-.26,11.08-.26,24.76-.26S386.22,203.82,386.22,204Z"/><path class="cls-5" d="M361.8,235.21c0,.14-5.24.26-11.71.26s-11.7-.12-11.7-.26,5.24-.26,11.7-.26S361.8,235.07,361.8,235.21Z"/><path class="cls-4" d="M388.06,239.37c0,.14-11.09.26-24.76.26s-24.76-.12-24.76-.26,11.08-.26,24.76-.26S388.06,239.22,388.06,239.37Z"/><path class="cls-2" d="M319.65,196.17l-1,4.1a1.16,1.16,0,0,0-.93.75,1.75,1.75,0,0,0-.17.95l.61-.26-.44,2.25H324l.47-1.76h-3.75l.31-1.64a1.64,1.64,0,0,0,1.1-1.53l-.69.12.75-3Z"/><path class="cls-6" d="M404.87,169.18v1h-.43v-1a3.16,3.16,0,0,1-2-.78l.25-.48a2.89,2.89,0,0,0,1.78.71V166.4c-.93-.23-1.89-.52-1.89-1.64,0-.82.59-1.52,1.89-1.63v-1h.43v1a3.33,3.33,0,0,1,1.73.52l-.22.51a3.15,3.15,0,0,0-1.51-.5v2.26c1,.23,2,.5,2,1.64C406.84,168.39,406.22,169.1,404.87,169.18Zm-.43-3.37v-2.13c-.87.08-1.27.53-1.27,1.06S403.75,165.63,404.44,165.81Zm1.78,1.79c0-.68-.62-.91-1.35-1.08v2.12C405.81,168.58,406.22,168.14,406.22,167.6Z"/><path class="cls-6" d="M411.57,163.18v6H411v-5.42h-1.41v-.54Z"/><path class="cls-6" d="M413,166.16c0-1.9,1-3,2.38-3s2.38,1.13,2.38,3-1,3-2.38,3S413,168.06,413,166.16Zm4.13,0c0-1.59-.71-2.47-1.75-2.47s-1.76.88-1.76,2.47.72,2.47,1.76,2.47S417.12,167.75,417.12,166.16Z"/><path class="cls-6" d="M419.46,168.71a1.53,1.53,0,0,1-.12.5l-.36,1.17h-.41l.29-1.23a.46.46,0,0,1,.14-.9A.45.45,0,0,1,419.46,168.71Z"/><path class="cls-6" d="M424.37,167.43c0,1-.72,1.76-2.16,1.76a3.11,3.11,0,0,1-2.15-.77l.3-.48a2.6,2.6,0,0,0,1.85.69c1,0,1.53-.46,1.53-1.2s-.5-1.19-1.61-1.19h-.43v-.45l1.66-2.07h-3.05v-.54h3.83v.43l-1.69,2.12C423.73,165.8,424.37,166.47,424.37,167.43Z"/><path class="cls-6" d="M429.19,167.38c0,1-.71,1.81-2.16,1.81a3.08,3.08,0,0,1-2.14-.77l.3-.48a2.57,2.57,0,0,0,1.83.69c1,0,1.55-.5,1.55-1.22s-.48-1.24-2-1.24h-1.26l.3-3h3.26v.54h-2.72l-.21,1.9h.77C428.51,165.62,429.19,166.33,429.19,167.38Z"/><path class="cls-6" d="M434.44,167.36a1.85,1.85,0,0,1-2,1.83c-1.59,0-2.45-1.1-2.45-3,0-2,1.11-3.08,2.73-3.08a2.7,2.7,0,0,1,1.41.32l-.24.49a2.15,2.15,0,0,0-1.16-.28c-1.29,0-2.11.83-2.11,2.45a4.27,4.27,0,0,0,0,.48,1.92,1.92,0,0,1,1.82-1A1.8,1.8,0,0,1,434.44,167.36Zm-.6,0c0-.79-.58-1.29-1.5-1.29a1.38,1.38,0,0,0-1.53,1.3c0,.66.54,1.28,1.57,1.28A1.31,1.31,0,0,0,433.84,167.38Z"/><path class="cls-6" d="M435.24,168.71a.46.46,0,1,1,.45.47A.46.46,0,0,1,435.24,168.71Z"/><path class="cls-6" d="M437,166.16c0-1.9,1-3,2.37-3s2.39,1.13,2.39,3-1,3-2.39,3S437,168.06,437,166.16Zm4.13,0c0-1.59-.72-2.47-1.76-2.47s-1.75.88-1.75,2.47.71,2.47,1.75,2.47S441.08,167.75,441.08,166.16Z"/><path class="cls-6" d="M442.58,166.16c0-1.9,1-3,2.38-3s2.38,1.13,2.38,3-1,3-2.38,3S442.58,168.06,442.58,166.16Zm4.13,0c0-1.59-.71-2.47-1.75-2.47s-1.75.88-1.75,2.47.71,2.47,1.75,2.47S446.71,167.75,446.71,166.16Z"/><path class="cls-6" d="M418.27,198.7v1h-.43v-1a3.19,3.19,0,0,1-2-.77l.24-.49a3,3,0,0,0,1.79.72v-2.24c-.94-.23-1.89-.52-1.89-1.65,0-.81.59-1.52,1.89-1.62v-1h.43v1a3.24,3.24,0,0,1,1.72.53l-.21.5a3.06,3.06,0,0,0-1.51-.49v2.25c1,.23,2,.5,2,1.65C420.24,197.91,419.62,198.63,418.27,198.7Zm-.43-3.37V193.2c-.88.08-1.27.53-1.27,1.07S417.14,195.15,417.84,195.33Zm1.78,1.79c0-.67-.62-.9-1.35-1.08v2.13C419.2,198.1,419.62,197.66,419.62,197.12Z"/><path class="cls-6" d="M425,192.7v6h-.62v-5.41H423v-.55Z"/><path class="cls-6" d="M426.39,195.68c0-1.9,1-3,2.38-3s2.38,1.13,2.38,3-1,3-2.38,3S426.39,197.58,426.39,195.68Zm4.13,0c0-1.59-.72-2.47-1.75-2.47s-1.76.88-1.76,2.47.72,2.47,1.76,2.47S430.52,197.27,430.52,195.68Z"/><path class="cls-6" d="M435.88,197c0,1-.72,1.76-2.16,1.76a3.12,3.12,0,0,1-2.14-.76l.29-.49a2.64,2.64,0,0,0,1.85.69c1,0,1.53-.46,1.53-1.2s-.5-1.18-1.61-1.18h-.42v-.46l1.65-2.06h-3.05v-.55h3.83v.43L434,195.25C435.25,195.32,435.88,196,435.88,197Z"/><path class="cls-6" d="M437.66,198.23a1.46,1.46,0,0,1-.11.5l-.36,1.17h-.41l.29-1.23a.43.43,0,0,1-.31-.44.45.45,0,0,1,.45-.46A.44.44,0,0,1,437.66,198.23Z"/><path class="cls-6" d="M442.59,196.91c0,1-.7,1.8-2.16,1.8a3.12,3.12,0,0,1-2.14-.76l.3-.49a2.59,2.59,0,0,0,1.83.69c1,0,1.55-.49,1.55-1.22s-.47-1.24-2-1.24h-1.27l.31-3h3.26v.55h-2.73l-.2,1.89h.77C441.91,195.14,442.59,195.85,442.59,196.91Z"/><path class="cls-6" d="M447.85,196.88a1.86,1.86,0,0,1-2,1.83c-1.58,0-2.44-1.1-2.44-3s1.11-3.08,2.72-3.08a2.76,2.76,0,0,1,1.42.32l-.25.5a2.06,2.06,0,0,0-1.16-.28c-1.28,0-2.11.82-2.11,2.44a4.26,4.26,0,0,0,0,.48,1.9,1.9,0,0,1,1.82-1A1.81,1.81,0,0,1,447.85,196.88Zm-.61,0c0-.79-.58-1.29-1.5-1.29a1.38,1.38,0,0,0-1.53,1.31c0,.65.55,1.27,1.58,1.27A1.3,1.3,0,0,0,447.24,196.9Z"/><path class="cls-7" d="M429.08,173v.67l-1.65,3.76h-1.11l1.59-3.59h-1.47v.72h-.91V173Z"/><path class="cls-7" d="M429.19,176.84a.59.59,0,0,1,.62-.6.59.59,0,0,1,.61.6.6.6,0,0,1-.61.62A.61.61,0,0,1,429.19,176.84Z"/><path class="cls-7" d="M434.24,176c0,.78-.58,1.47-1.85,1.47a3,3,0,0,1-1.69-.48l.41-.78a2.15,2.15,0,0,0,1.26.4c.51,0,.83-.22.83-.58s-.23-.57-1-.57H431l.23-2.5H434v.82h-1.84l-.07.85h.36C433.72,174.65,434.24,175.23,434.24,176Z"/><path class="cls-7" d="M438.37,176.13c0,.83-.75,1.36-1.88,1.36s-1.86-.53-1.86-1.36a1.14,1.14,0,0,1,.67-1,1,1,0,0,1-.51-.91c0-.78.7-1.27,1.7-1.27s1.72.49,1.72,1.27a1,1,0,0,1-.52.91A1.13,1.13,0,0,1,438.37,176.13Zm-1,0c0-.4-.32-.64-.84-.64s-.82.24-.82.64.32.64.82.64S437.33,176.49,437.33,176.1Zm-1.52-1.89c0,.34.27.55.68.55s.7-.21.7-.55-.28-.55-.7-.55S435.81,173.87,435.81,174.21Z"/><path class="cls-7" d="M438.7,174.15a1.11,1.11,0,1,1,1.1,1.22A1.1,1.1,0,0,1,438.7,174.15Zm1.56,0c0-.47-.18-.7-.46-.7s-.46.23-.46.7.19.7.46.7S440.26,174.63,440.26,174.15Zm2.18-1.17h.76l-3,4.43h-.75Zm-.73,3.26a1.11,1.11,0,1,1,1.1,1.22A1.1,1.1,0,0,1,441.71,176.24Zm1.56,0c0-.47-.18-.7-.46-.7s-.46.23-.46.7.19.7.46.7S443.27,176.71,443.27,176.24Z"/><path class="cls-8" d="M422.59,204.44h1.79v.79h-1.79Z"/><path class="cls-8" d="M428.63,205.21a1.52,1.52,0,0,1-1.67,1.48c-1.23,0-2-.77-2-2.2a2.16,2.16,0,0,1,2.26-2.38,2.37,2.37,0,0,1,1.24.3l-.38.75a1.5,1.5,0,0,0-.83-.22,1.18,1.18,0,0,0-1.25,1.29,1.51,1.51,0,0,1,1.1-.4A1.41,1.41,0,0,1,428.63,205.21Zm-1,.06a.67.67,0,0,0-.75-.67.7.7,0,0,0-.77.67c0,.38.28.65.78.65A.66.66,0,0,0,427.64,205.27Z"/><path class="cls-8" d="M429,206a.62.62,0,0,1,1.23,0,.62.62,0,1,1-1.23,0Z"/><path class="cls-8" d="M434.11,205.78v.83h-3.35V206l1.71-1.61c.39-.38.46-.61.46-.82s-.24-.55-.71-.55a1.08,1.08,0,0,0-.92.44l-.74-.48a2.05,2.05,0,0,1,1.76-.82c1,0,1.64.5,1.64,1.31a1.78,1.78,0,0,1-.74,1.4l-1,1Z"/><path class="cls-8" d="M438.25,205.33c0,.84-.75,1.36-1.88,1.36s-1.86-.52-1.86-1.36a1.14,1.14,0,0,1,.67-1.05,1,1,0,0,1-.51-.91c0-.78.69-1.26,1.7-1.26s1.72.48,1.72,1.26a1,1,0,0,1-.52.91A1.13,1.13,0,0,1,438.25,205.33Zm-1,0c0-.4-.33-.64-.84-.64s-.82.24-.82.64.32.64.82.64S437.21,205.69,437.21,205.3Zm-1.52-1.88c0,.33.26.54.68.54s.7-.21.7-.54-.28-.56-.7-.56S435.69,203.07,435.69,203.42Z"/><path class="cls-8" d="M438.58,203.35a1.1,1.1,0,0,1,1.1-1.22,1.23,1.23,0,0,1,0,2.45A1.1,1.1,0,0,1,438.58,203.35Zm1.56,0c0-.47-.18-.7-.46-.7s-.46.23-.46.7.19.71.46.71S440.14,203.83,440.14,203.35Zm2.18-1.17h.75l-3,4.43h-.76Zm-.73,3.26a1.11,1.11,0,1,1,1.1,1.23A1.11,1.11,0,0,1,441.59,205.44Zm1.56,0c0-.47-.18-.7-.46-.7s-.47.23-.47.7.2.71.47.71S443.15,205.91,443.15,205.44Z"/><path class="cls-7" d="M446.2,177.25h-1.36a.43.43,0,0,1-.37-.65l.68-1.18.68-1.18a.43.43,0,0,1,.74,0l.68,1.18.68,1.18a.43.43,0,0,1-.37.65Z"/><path class="cls-6" d="M407.85,236.8v1h-.43v-1a3.19,3.19,0,0,1-2-.77l.24-.49a3,3,0,0,0,1.79.72V234c-.94-.23-1.89-.52-1.89-1.65,0-.81.59-1.52,1.89-1.62v-1h.43v1a3.36,3.36,0,0,1,1.73.53l-.22.5a3,3,0,0,0-1.51-.49v2.25c1,.23,2,.5,2,1.65C409.82,236,409.2,236.73,407.85,236.8Zm-.43-3.37V231.3c-.87.08-1.27.53-1.27,1.07S406.72,233.25,407.42,233.43Zm1.78,1.79c0-.67-.62-.9-1.35-1.08v2.13C408.78,236.2,409.2,235.76,409.2,235.22Z"/><path class="cls-6" d="M414.55,230.8v6h-.61v-5.41h-1.41v-.55Z"/><path class="cls-6" d="M420,235c0,1-.71,1.8-2.17,1.8a3.09,3.09,0,0,1-2.13-.76l.29-.49a2.61,2.61,0,0,0,1.83.69c1,0,1.55-.49,1.55-1.22s-.47-1.24-2-1.24h-1.27l.31-3h3.26v.55H417l-.21,1.89h.77C419.33,233.24,420,234,420,235Z"/><path class="cls-6" d="M421.71,236.34a1.3,1.3,0,0,1-.12.49l-.36,1.17h-.41l.29-1.23a.43.43,0,0,1-.3-.43.44.44,0,0,1,.45-.46A.44.44,0,0,1,421.71,236.34Z"/><path class="cls-6" d="M426.62,235.05c0,1-.72,1.76-2.16,1.76a3.12,3.12,0,0,1-2.14-.76l.29-.49a2.64,2.64,0,0,0,1.85.69c1,0,1.53-.46,1.53-1.2s-.5-1.18-1.61-1.18H424v-.45l1.65-2.07h-3.05v-.55h3.83v.44l-1.68,2.12C426,233.42,426.62,234.1,426.62,235.05Z"/><path class="cls-6" d="M431.44,235c0,1-.7,1.8-2.16,1.8a3.12,3.12,0,0,1-2.14-.76l.3-.49a2.59,2.59,0,0,0,1.83.69c1,0,1.55-.49,1.55-1.22s-.48-1.24-2-1.24h-1.27l.31-3h3.26v.55H428.4l-.2,1.89H429C430.76,233.24,431.44,234,431.44,235Z"/><path class="cls-6" d="M436.7,235a1.86,1.86,0,0,1-2,1.83c-1.58,0-2.44-1.1-2.44-3s1.11-3.08,2.72-3.08a2.76,2.76,0,0,1,1.42.32l-.25.5a2.06,2.06,0,0,0-1.16-.28c-1.28,0-2.11.82-2.11,2.44a4.26,4.26,0,0,0,0,.48,1.9,1.9,0,0,1,1.82-1A1.81,1.81,0,0,1,436.7,235Zm-.61,0c0-.79-.58-1.29-1.5-1.29a1.38,1.38,0,0,0-1.53,1.31c0,.65.55,1.27,1.58,1.27A1.3,1.3,0,0,0,436.09,235Z"/><path class="cls-6" d="M437.5,236.34a.44.44,0,0,1,.45-.46.45.45,0,0,1,.46.46.46.46,0,0,1-.46.46A.45.45,0,0,1,437.5,236.34Z"/><path class="cls-6" d="M440.84,230.8v6h-.61v-5.41h-1.4v-.55Z"/><path class="cls-6" d="M442.27,233.78c0-1.9,1-3,2.37-3s2.39,1.13,2.39,3-1,3-2.39,3S442.27,235.68,442.27,233.78Zm4.13,0c0-1.59-.72-2.47-1.76-2.47s-1.75.88-1.75,2.47.71,2.47,1.75,2.47S446.4,235.37,446.4,233.78Z"/><path class="cls-7" d="M426.83,240.6v.67L425.19,245h-1.12l1.59-3.6h-1.47v.72h-.91V240.6Z"/><path class="cls-7" d="M427,244.47a.62.62,0,0,1,1.23,0,.62.62,0,1,1-1.23,0Z"/><path class="cls-7" d="M432,243.64c0,.79-.57,1.47-1.84,1.47a3.08,3.08,0,0,1-1.69-.47l.4-.79a2.1,2.1,0,0,0,1.26.4c.52,0,.83-.21.83-.57s-.22-.58-1-.58h-1.13l.23-2.5h2.7v.83h-1.85l-.07.84h.36C431.47,242.27,432,242.86,432,243.64Z"/><path class="cls-7" d="M436.12,243.75c0,.84-.74,1.36-1.87,1.36s-1.86-.52-1.86-1.36a1.11,1.11,0,0,1,.67-1,1,1,0,0,1-.51-.92c0-.77.69-1.26,1.7-1.26s1.72.49,1.72,1.26a1,1,0,0,1-.52.92A1.11,1.11,0,0,1,436.12,243.75Zm-1,0c0-.39-.33-.63-.84-.63s-.82.24-.82.63.31.64.82.64S435.09,244.11,435.09,243.72Zm-1.52-1.88c0,.33.26.54.68.54s.7-.21.7-.54-.28-.56-.7-.56S433.57,241.49,433.57,241.84Z"/><path class="cls-7" d="M436.46,241.78a1.1,1.1,0,1,1,1.1,1.22A1.1,1.1,0,0,1,436.46,241.78Zm1.56,0c0-.48-.18-.71-.46-.71s-.47.24-.47.71.2.7.47.7S438,242.25,438,241.78Zm2.18-1.18H441l-3,4.44h-.75Zm-.73,3.27a1.11,1.11,0,1,1,1.09,1.22A1.11,1.11,0,0,1,439.47,243.87Zm1.56,0c0-.47-.19-.71-.47-.71s-.46.23-.46.71.19.7.46.7S441,244.33,441,243.87Z"/><path class="cls-7" d="M445.08,244.87h-1.36a.43.43,0,0,1-.37-.64l.68-1.18.68-1.18a.42.42,0,0,1,.74,0l.68,1.18.69,1.18a.43.43,0,0,1-.38.64Z"/><path class="cls-8" d="M446.2,203.4h1.36a.42.42,0,0,1,.37.64l-.68,1.18-.68,1.18a.42.42,0,0,1-.74,0l-.68-1.18-.68-1.18a.42.42,0,0,1,.37-.64Z"/><path class="cls-2" d="M324.56,237.43a1.93,1.93,0,0,0-1.2-2,2,2,0,0,0,.86-1.72,1.89,1.89,0,0,0-1.62-2v-1.23h-1.14v1.15h-.65v-1.15h-1.14v1.15H317.9v1.14h.72v5.56h-.8v1.14h1.85v1.34h1.14v-1.34h.65v1.34h1.14v-1.38A2,2,0,0,0,324.56,237.43Zm-4.49-4.57h1.55c.86,0,1.35.36,1.35,1.09s-.49,1.07-1.35,1.07h-1.76v-2.16Zm1.8,5.56h-2v-2.27h2c.93,0,1.44.35,1.44,1.14S322.8,238.42,321.87,238.42Z"/><path class="cls-5" d="M454.3,146.78c0,.14-34.29.26-76.57.26s-76.59-.12-76.59-.26,34.28-.26,76.59-.26S454.3,146.63,454.3,146.78Z"/><path class="cls-4" d="M454.3,184c0,.14-34.29.26-76.57.26s-76.59-.12-76.59-.26,34.28-.26,76.59-.26S454.3,183.89,454.3,184Z"/><path class="cls-4" d="M454.3,218.66c0,.14-34.29.26-76.57.26s-76.59-.12-76.59-.26,34.28-.26,76.59-.26S454.3,218.51,454.3,218.66Z"/><rect class="cls-9" x="46.57" y="17.86" width="81.13" height="81.13" rx="9.95"/><polygon class="cls-10" points="87.13 32.2 64.33 47.01 64.33 49.96 109.93 50.1 109.93 47.01 87.13 32.2"/><rect class="cls-10" x="64.7" y="51.5" width="8.63" height="1.37"/><rect class="cls-10" x="64.7" y="75.5" width="8.63" height="1.37"/><rect class="cls-10" x="65.88" y="52.19" width="6.26" height="24"/><rect class="cls-10" x="82.69" y="51.5" width="8.63" height="1.37"/><rect class="cls-10" x="82.69" y="75.5" width="8.63" height="1.37"/><rect class="cls-10" x="83.88" y="52.19" width="6.26" height="24"/><rect class="cls-10" x="101.3" y="51.5" width="8.63" height="1.37"/><rect class="cls-10" x="101.3" y="75.5" width="8.63" height="1.37"/><rect class="cls-10" x="102.48" y="52.19" width="6.26" height="24"/><rect class="cls-10" x="61.91" y="78.26" width="50.45" height="2.63"/><rect class="cls-10" x="58.33" y="82.02" width="57.61" height="2.63"/><circle class="cls-4" cx="87.01" cy="40.49" r="3.62"/><path class="cls-6" d="M73.55,52.87a18.61,18.61,0,0,1-4.42.26,18.61,18.61,0,0,1-4.42-.26,19.26,19.26,0,0,1,4.42-.26A19.26,19.26,0,0,1,73.55,52.87Z"/><path class="cls-6" d="M91.52,52.87a18.61,18.61,0,0,1-4.42.26,18.61,18.61,0,0,1-4.42-.26,19.26,19.26,0,0,1,4.42-.26A19.26,19.26,0,0,1,91.52,52.87Z"/><path class="cls-6" d="M110,52.87a18.66,18.66,0,0,1-4.43.26,18.61,18.61,0,0,1-4.42-.26,19.26,19.26,0,0,1,4.42-.26A19.31,19.31,0,0,1,110,52.87Z"/><path class="cls-6" d="M73.55,75.45a18.61,18.61,0,0,1-4.42.26,18.61,18.61,0,0,1-4.42-.26,19.26,19.26,0,0,1,4.42-.26A19.26,19.26,0,0,1,73.55,75.45Z"/><path class="cls-6" d="M91.52,75.45a18.61,18.61,0,0,1-4.42.26,18.61,18.61,0,0,1-4.42-.26,19.26,19.26,0,0,1,4.42-.26A19.26,19.26,0,0,1,91.52,75.45Z"/><path class="cls-6" d="M110,75.45a18.66,18.66,0,0,1-4.43.26,18.61,18.61,0,0,1-4.42-.26,19.26,19.26,0,0,1,4.42-.26A19.31,19.31,0,0,1,110,75.45Z"/><path class="cls-6" d="M110.05,47c0,.15-10.22.27-22.84.27S64.37,47.19,64.37,47s10.22-.26,22.84-.26S110.05,46.9,110.05,47Z"/><path class="cls-3" d="M166.6,204H128.52a8.89,8.89,0,0,1-8.89-8.89V111.4a8.9,8.9,0,0,1,8.89-8.89H166.6a8.9,8.9,0,0,1,8.89,8.89v16.45h-2.77V111.4a6.13,6.13,0,0,0-6.12-6.12H128.52a6.13,6.13,0,0,0-6.12,6.12v83.75a6.12,6.12,0,0,0,6.12,6.12H166.6a6.12,6.12,0,0,0,6.12-6.12V169.21h2.77v25.94A8.89,8.89,0,0,1,166.6,204Z"/><rect class="cls-3" x="121.01" y="116.01" width="45.94" height="2.77"/><rect class="cls-3" x="128.16" y="186.42" width="45.94" height="2.77"/><rect class="cls-3" x="144.51" y="109" width="6.11" height="2.77"/><rect class="cls-3" x="144.51" y="193.8" width="6.11" height="2.77"/><rect class="cls-3" x="127.8" y="131.49" width="8.46" height="2.77"/><rect class="cls-3" x="130.12" y="137.7" width="6.14" height="2.77"/><rect class="cls-3" x="133.19" y="143.9" width="3.07" height="2.77"/><rect class="cls-3" x="132.03" y="150.11" width="4.23" height="2.77"/><rect class="cls-3" x="130.12" y="156.32" width="6.14" height="2.77"/><rect class="cls-3" x="127.8" y="162.52" width="8.46" height="2.77"/><rect class="cls-11" x="143.03" y="131.72" width="67.17" height="34"/><path class="cls-11" d="M150.2,159.77h53.66V138.28H150.2Z"/><path class="cls-12" d="M189.87,149a12.74,12.74,0,1,1-12.74-12.75A12.74,12.74,0,0,1,189.87,149Z"/><path class="cls-12" d="M172.67,153.28a3.39,3.39,0,0,0,3.41,3.4h1.83c4.68,0,5.42-7.34,0-7.26l-1.62-.15c-4.74,0-4.8-7.24,0-7.26h1.62c2.43,0,3.77,1.58,3.77,3.39"/><path class="cls-5" d="M200.57,150a3.46,3.46,0,1,1-3.46-3.46h0A3.46,3.46,0,0,1,200.57,150Z"/><path class="cls-5" d="M157,153.25a3.46,3.46,0,0,1,0-6.91C161.55,146.34,161.56,153.25,157,153.25Z"/><line class="cls-13" x1="177.19" y1="139.67" x2="177.19" y2="159.02"/><path class="cls-10" d="M85.32,93.62h-54a6,6,0,0,0-5.92,5.93v32.27a5.92,5.92,0,0,0,5.93,5.92h54a5.92,5.92,0,0,0,5.93-5.91h0V99.55a5.94,5.94,0,0,0-5.93-5.93Z"/><path class="cls-13" d="M85.32,93.62h-54a6,6,0,0,0-5.92,5.93v32.27a5.92,5.92,0,0,0,5.93,5.92h54a5.92,5.92,0,0,0,5.93-5.91h0V99.55a5.94,5.94,0,0,0-5.93-5.93Z"/><path class="cls-9" d="M48.51,107.75a3.3,3.3,0,0,1-3.3,3.29H35a3.29,3.29,0,0,1-3.3-3.29v-3.92a3.3,3.3,0,0,1,3.3-3.29h10.2a3.31,3.31,0,0,1,3.3,3.29Z"/><line class="cls-13" x1="40.54" y1="128.38" x2="33.51" y2="128.38"/><line class="cls-13" x1="54.61" y1="128.38" x2="47.58" y2="128.38"/><line class="cls-13" x1="68.68" y1="128.38" x2="61.66" y2="128.38"/><line class="cls-13" x1="82.76" y1="128.38" x2="75.73" y2="128.38"/><line class="cls-13" x1="64.46" y1="119.77" x2="33.51" y2="119.77"/><path class="cls-2" d="M92.48,233.39h-3V206.54l-10.85-17,0-.1A5.93,5.93,0,0,1,78,188l-6.62-24.15a6,6,0,0,1,11.51-3.16l2.07,7.57.06,0V139.28a6,6,0,1,1,11.93,0l.07,5a6,6,0,0,1,9.45,4.85l0,2.23a6,6,0,0,1,9.48,4.82v.13a6,6,0,0,1,9.51,4.8v7.36a5,5,0,0,1,2.16,4.15v19.2L121,206.42v13H118V205.76l6.61-14.59V172.63a2,2,0,0,0-1.23-1.85l-.94-.39v-9.27a2.91,2.91,0,0,0-5.82,0l-.18,8.08-3.05,0-.46-13a2.91,2.91,0,1,0-5.82-.05l-.35,12.95-3.06,0-.28-20a2.91,2.91,0,1,0-5.82,0l-.24,20h-3l-.4-29.84a2.91,2.91,0,1,0-5.82,0v31.13l-1.14.3a2,2,0,0,0-1.33,1.14l-1.72,4-4-14.41a2.92,2.92,0,0,0-3.58-2,2.92,2.92,0,0,0-2,3.58l6.63,24.15a2.78,2.78,0,0,0,.52,1l.45.57,0,.23,10.64,16.67Z"/><rect class="cls-2" x="89.25" y="119.51" width="3.06" height="10.98"/><rect class="cls-2" x="96.59" y="127.64" width="6.01" height="3.06" transform="translate(-62.15 108.19) rotate(-44.97)"/><rect class="cls-2" x="81.11" y="126.74" width="3.06" height="5.33" transform="translate(-67.3 96.34) rotate(-45)"/><rect class="cls-2" x="99.38" y="135.05" width="3.36" height="3.06"/><rect class="cls-2" x="79.11" y="135.05" width="3.36" height="3.06"/><rect class="cls-14" x="0.5" y="0.5" width="219.11" height="257.33" rx="12.89"/></g></g></svg>