<svg xmlns="http://www.w3.org/2000/svg" viewBox="0 0 564.81 357.57"><defs><style>.cls-1,.cls-3{fill:#fff;}.cls-1{stroke:#000;stroke-linecap:round;stroke-linejoin:round;}.cls-1,.cls-10,.cls-7{stroke-width:3px;}.cls-2{fill:#39A6B8;}.cls-3{stroke:#1d1d1b;}.cls-3,.cls-4{stroke-miterlimit:10;}.cls-4,.cls-6{fill:none;}.cls-4{stroke:#263239;}.cls-5{fill:#263239;}.cls-6{stroke:#9c9b9b;}.cls-7,.cls-8{fill:#d9dcd8;}.cls-10,.cls-7{stroke:#020302;}.cls-9{fill:#262626;}.cls-10{fill:#428e8f;}</style></defs><g id="Camada_2" data-name="Camada 2"><g id="Camada_1-2" data-name="Camada 1"><rect class="cls-1" x="338.08" y="1.5" width="225.23" height="354.57"/><rect class="cls-2" x="354.6" y="68.28" width="194.26" height="12.39"/><rect class="cls-2" x="354.6" y="134.36" width="194.26" height="12.39"/><rect class="cls-2" x="354.6" y="164.11" width="194.26" height="12.39"/><rect class="cls-3" x="354.6" y="253.33" width="194.26" height="78.13"/><rect class="cls-2" x="354.6" y="103.13" width="55.11" height="12.39"/><rect class="cls-2" x="354.6" y="184.83" width="19.17" height="12.39"/><rect class="cls-2" x="377.48" y="184.83" width="19.17" height="12.39"/><rect class="cls-2" x="400.35" y="184.83" width="19.17" height="12.39"/><rect class="cls-2" x="412.7" y="103.13" width="135.33" height="12.39"/><rect class="cls-2" x="354.6" y="213.49" width="55.11" height="12.39"/><rect class="cls-2" x="412.7" y="213.49" width="135.33" height="12.39"/><line class="cls-4" x1="523.48" y1="87.83" x2="548.03" y2="87.83"/><line class="cls-4" x1="494.26" y1="87.83" x2="520.64" y2="87.83"/><line class="cls-4" x1="483.77" y1="87.83" x2="491.42" y2="87.83"/><line class="cls-4" x1="447.74" y1="87.83" x2="481.78" y2="87.83"/><line class="cls-4" x1="403.49" y1="87.83" x2="444.05" y2="87.83"/><line class="cls-4" x1="371.15" y1="87.83" x2="399.24" y2="87.83"/><line class="cls-4" x1="355.79" y1="87.83" x2="367.47" y2="87.83"/><line class="cls-4" x1="380.34" y1="96.66" x2="355.79" y2="96.66"/><line class="cls-4" x1="409.55" y1="96.66" x2="383.17" y2="96.66"/><line class="cls-4" x1="420.05" y1="96.66" x2="412.39" y2="96.66"/><line class="cls-4" x1="456.07" y1="96.66" x2="422.03" y2="96.66"/><line class="cls-4" x1="500.32" y1="96.66" x2="459.76" y2="96.66"/><line class="cls-4" x1="532.66" y1="96.66" x2="504.58" y2="96.66"/><line class="cls-4" x1="548.03" y1="96.66" x2="536.35" y2="96.66"/><line class="cls-4" x1="523.48" y1="120.29" x2="548.03" y2="120.29"/><line class="cls-4" x1="494.26" y1="120.29" x2="520.64" y2="120.29"/><line class="cls-4" x1="483.77" y1="120.29" x2="491.42" y2="120.29"/><line class="cls-4" x1="447.74" y1="120.29" x2="481.78" y2="120.29"/><line class="cls-4" x1="403.49" y1="120.29" x2="444.05" y2="120.29"/><line class="cls-4" x1="371.15" y1="120.29" x2="399.24" y2="120.29"/><line class="cls-4" x1="355.79" y1="120.29" x2="367.47" y2="120.29"/><line class="cls-4" x1="380.34" y1="129.12" x2="355.79" y2="129.12"/><line class="cls-4" x1="409.55" y1="129.12" x2="383.17" y2="129.12"/><line class="cls-4" x1="420.05" y1="129.12" x2="412.39" y2="129.12"/><line class="cls-4" x1="456.07" y1="129.12" x2="422.03" y2="129.12"/><line class="cls-4" x1="500.32" y1="129.12" x2="459.76" y2="129.12"/><line class="cls-4" x1="532.66" y1="129.12" x2="504.58" y2="129.12"/><line class="cls-4" x1="548.03" y1="129.12" x2="536.35" y2="129.12"/><line class="cls-4" x1="523.48" y1="233.93" x2="548.03" y2="233.93"/><line class="cls-4" x1="494.26" y1="233.93" x2="520.64" y2="233.93"/><line class="cls-4" x1="483.77" y1="233.93" x2="491.42" y2="233.93"/><line class="cls-4" x1="447.74" y1="233.93" x2="481.78" y2="233.93"/><line class="cls-4" x1="403.49" y1="233.93" x2="444.05" y2="233.93"/><line class="cls-4" x1="371.15" y1="233.93" x2="399.24" y2="233.93"/><line class="cls-4" x1="355.79" y1="233.93" x2="367.47" y2="233.93"/><line class="cls-4" x1="380.34" y1="242.76" x2="355.79" y2="242.76"/><line class="cls-4" x1="409.55" y1="242.76" x2="383.17" y2="242.76"/><line class="cls-4" x1="420.05" y1="242.76" x2="412.39" y2="242.76"/><line class="cls-4" x1="456.07" y1="242.76" x2="422.03" y2="242.76"/><line class="cls-4" x1="500.32" y1="242.76" x2="459.76" y2="242.76"/><line class="cls-4" x1="532.66" y1="242.76" x2="504.58" y2="242.76"/><line class="cls-4" x1="548.03" y1="242.76" x2="536.35" y2="242.76"/><line class="cls-4" x1="523.48" y1="150.69" x2="548.03" y2="150.69"/><line class="cls-4" x1="494.26" y1="150.69" x2="520.64" y2="150.69"/><line class="cls-4" x1="483.77" y1="150.69" x2="491.42" y2="150.69"/><line class="cls-4" x1="447.74" y1="150.69" x2="481.78" y2="150.69"/><line class="cls-4" x1="403.49" y1="150.69" x2="444.05" y2="150.69"/><line class="cls-4" x1="371.15" y1="150.69" x2="399.24" y2="150.69"/><line class="cls-4" x1="355.79" y1="150.69" x2="367.47" y2="150.69"/><line class="cls-4" x1="380.34" y1="159.51" x2="355.79" y2="159.51"/><line class="cls-4" x1="409.55" y1="159.51" x2="383.17" y2="159.51"/><line class="cls-4" x1="420.05" y1="159.51" x2="412.39" y2="159.51"/><line class="cls-4" x1="456.07" y1="159.51" x2="422.03" y2="159.51"/><line class="cls-4" x1="500.32" y1="159.51" x2="459.76" y2="159.51"/><line class="cls-4" x1="532.66" y1="159.51" x2="504.58" y2="159.51"/><line class="cls-4" x1="548.03" y1="159.51" x2="536.35" y2="159.51"/><line class="cls-4" x1="533.35" y1="186.76" x2="548.03" y2="186.76"/><line class="cls-4" x1="515.88" y1="186.76" x2="531.65" y2="186.76"/><line class="cls-4" x1="509.61" y1="186.76" x2="514.19" y2="186.76"/><line class="cls-4" x1="488.07" y1="186.76" x2="508.42" y2="186.76"/><line class="cls-4" x1="461.61" y1="186.76" x2="485.87" y2="186.76"/><line class="cls-4" x1="442.28" y1="186.76" x2="459.07" y2="186.76"/><line class="cls-4" x1="433.1" y1="186.76" x2="440.08" y2="186.76"/><line class="cls-4" x1="447.77" y1="195.58" x2="433.1" y2="195.58"/><line class="cls-4" x1="465.24" y1="195.58" x2="449.47" y2="195.58"/><line class="cls-4" x1="471.51" y1="195.58" x2="466.93" y2="195.58"/><line class="cls-4" x1="493.05" y1="195.58" x2="472.7" y2="195.58"/><line class="cls-4" x1="519.51" y1="195.58" x2="495.26" y2="195.58"/><line class="cls-4" x1="538.84" y1="195.58" x2="522.05" y2="195.58"/><line class="cls-4" x1="548.03" y1="195.58" x2="541.04" y2="195.58"/><polygon class="cls-3" points="548.03 225.88 466.1 225.88 472.25 213.49 548.03 213.49 548.03 225.88"/><path class="cls-5" d="M380.23,59.27V28.77h-5.75V25.24h16.09v3.53H385v30.5Z"/><path class="cls-5" d="M391.92,59.27l7.22-34h4.58l7.27,34H406.5l-1.56-8.57H398l-1.64,8.57Zm6.72-12h5.67L401.45,32Z"/><path class="cls-5" d="M412.33,59.27l7.11-17.81-7-16.22h4.41l5.17,12,4.71-12h4.41L424,41.83l7.47,17.44h-4.41l-5.54-12.81-4.79,12.81Z"/><path class="cls-5" d="M444.31,59.27v-34h13.15v3.4h-8.4V40h6.51v3.36h-6.51V59.27Z"/><path class="cls-5" d="M469.44,59.65a10,10,0,0,1-5.51-1.34A7.4,7.4,0,0,1,461,54.46a17.58,17.58,0,0,1-.88-5.86V35.7a16.59,16.59,0,0,1,.9-5.78,7.21,7.21,0,0,1,2.94-3.7,10.28,10.28,0,0,1,5.49-1.28,10,10,0,0,1,5.46,1.31,7.33,7.33,0,0,1,2.92,3.69,16.43,16.43,0,0,1,.9,5.76V48.64a17,17,0,0,1-.9,5.8,7.67,7.67,0,0,1-2.92,3.84A9.56,9.56,0,0,1,469.44,59.65Zm0-3.74a4.44,4.44,0,0,0,2.85-.78A3.84,3.84,0,0,0,473.6,53a14.6,14.6,0,0,0,.33-3.3V34.73a14,14,0,0,0-.33-3.25,3.63,3.63,0,0,0-1.31-2.1,4.64,4.64,0,0,0-2.85-.74,4.74,4.74,0,0,0-2.88.74,3.61,3.61,0,0,0-1.33,2.1,14,14,0,0,0-.33,3.25V49.65a14.6,14.6,0,0,0,.33,3.3,3.82,3.82,0,0,0,1.33,2.18A4.54,4.54,0,0,0,469.44,55.91Z"/><path class="cls-5" d="M483.39,59.27v-34h6.84a15.12,15.12,0,0,1,5.63.9,6.25,6.25,0,0,1,3.3,2.9,11,11,0,0,1,1.07,5.23,14.21,14.21,0,0,1-.42,3.59,6.85,6.85,0,0,1-1.34,2.73A5.16,5.16,0,0,1,496,42.21l4.84,17.06h-4.58l-4.46-16h-3.7v16Zm4.74-19.37h1.81a9.08,9.08,0,0,0,3.28-.5,3.41,3.41,0,0,0,1.85-1.73,8,8,0,0,0,.58-3.4A6.78,6.78,0,0,0,494.56,30c-.73-.88-2.17-1.32-4.33-1.32h-2.1Z"/><path class="cls-5" d="M505.11,59.27l.63-34h4.66l6,27.6,6.05-27.6h4.62l.63,34h-3.82l-.38-24.7-5.75,24.7h-2.69l-5.72-24.7L509,59.27Z"/><line class="cls-6" x1="483.14" y1="191.65" x2="454.11" y2="250.35"/><path class="cls-7" d="M199.27,247.34V224.26H124.68v23.08A24.72,24.72,0,0,1,103,271.86v.19H221v-.19A24.73,24.73,0,0,1,199.27,247.34Z"/><path class="cls-1" d="M322.46,227.29a12.09,12.09,0,0,1-12.1,12.09H13.6A12.09,12.09,0,0,1,1.5,227.29V63.56a12.1,12.1,0,0,1,12.1-12.1H310.36a12.1,12.1,0,0,1,12.1,12.1Z"/><rect class="cls-1" x="1.5" y="20.8" width="320.96" height="187.94" rx="12.1"/><rect class="cls-8" x="16.4" y="34.52" width="291.17" height="159.7"/><path class="cls-1" d="M242.18,282.07a7.13,7.13,0,0,1-7.13,7.13H88.91a7.14,7.14,0,0,1-7.14-7.13v-2.89a7.14,7.14,0,0,1,7.14-7.13H235.05a7.13,7.13,0,0,1,7.13,7.13Z"/><polygon class="cls-9" points="180.05 175.97 44.54 175.97 44.54 65.44 47.83 65.44 47.83 172.68 180.05 172.68 180.05 175.97"/><rect class="cls-9" x="176.48" y="82.36" width="3.8" height="3.29" transform="translate(-18.5 94.74) rotate(-28.34)"/><path class="cls-9" d="M154.21,97.13,146,95.81l.53-3.25,8.23,1.32Zm-16.47-2.65-8.24-1.33L130,89.9l8.23,1.33Zm25.07-.2-1.57-2.9,7.34-4,1.57,2.9Z"/><polygon class="cls-9" points="116.76 93.6 114.16 91.58 117.08 87.81 121.79 88.57 121.27 91.82 118.48 91.37 116.76 93.6"/><rect class="cls-9" x="103.22" y="101.17" width="8.62" height="3.29" transform="translate(-39.61 124.76) rotate(-52.2)"/><polygon class="cls-9" points="97.64 118.26 93.21 115.28 95.05 112.55 96.92 113.81 98.31 112.03 100.91 114.04 97.64 118.26"/><path class="cls-9" d="M87.33,111.33l-5.87-3.94,1.84-2.73,5.87,3.94Zm-11.74-7.89-5.88-4,1.84-2.73,5.87,3.95ZM64.14,97.85H57.06V94.56h7.08Z"/><rect class="cls-9" x="46.18" y="94.56" width="3.8" height="3.29"/><polygon class="cls-2" points="68.04 142.62 46.18 142.62 46.18 139.32 67.51 139.32 96.44 129.85 117.19 111.24 156.05 113.51 178.79 99.8 180.49 102.62 156.88 116.85 118.37 114.61 98.12 132.76 68.04 142.62"/><rect class="cls-9" x="44.54" y="162.57" width="3.29" height="11.75"/><rect class="cls-9" x="56.86" y="170.53" width="3.29" height="3.8"/><rect class="cls-9" x="56.86" y="153.36" width="3.29" height="8.59"/><rect class="cls-9" x="56.86" y="140.97" width="3.29" height="3.8"/><rect class="cls-9" x="69.19" y="170.53" width="3.29" height="3.8"/><rect class="cls-9" x="69.19" y="152.69" width="3.29" height="8.92"/><rect class="cls-9" x="69.19" y="139.97" width="3.29" height="3.8"/><rect class="cls-9" x="81.52" y="170.53" width="3.29" height="3.8"/><path class="cls-9" d="M84.81,164.39H81.52v-6.14h3.29Zm0-12.29H81.52V146h3.29Z"/><rect class="cls-9" x="81.52" y="136.02" width="3.29" height="3.8"/><rect class="cls-9" x="93.84" y="170.53" width="3.29" height="3.8"/><path class="cls-9" d="M97.14,163.56h-3.3v-7h3.3Zm0-13.94h-3.3v-7h3.3Z"/><rect class="cls-9" x="93.84" y="131.89" width="3.29" height="3.8"/><rect class="cls-9" x="106.17" y="170.53" width="3.29" height="3.8"/><path class="cls-9" d="M109.46,161.55h-3.29v-9h3.29Zm0-18h-3.29v-9h3.29Z"/><rect class="cls-9" x="106.17" y="121.86" width="3.29" height="3.8"/><rect class="cls-9" x="118.5" y="170.53" width="3.29" height="3.8"/><path class="cls-9" d="M121.79,162.86H118.5v-7.67h3.29Zm0-15.34H118.5v-7.66h3.29Zm0-15.33H118.5v-7.67h3.29Z"/><rect class="cls-9" x="118.5" y="113.06" width="3.29" height="3.8"/><rect class="cls-9" x="130.83" y="170.53" width="3.29" height="3.8"/><path class="cls-9" d="M134.12,163h-3.29V155.4h3.29Zm0-15.13h-3.29v-7.56h3.29Zm0-15.13h-3.29v-7.56h3.29Z"/><rect class="cls-9" x="130.83" y="113.78" width="3.29" height="3.8"/><rect class="cls-9" x="143.15" y="170.53" width="3.29" height="3.8"/><path class="cls-9" d="M146.44,163.06h-3.29V155.6h3.29Zm0-14.92h-3.29v-7.46h3.29Zm0-14.92h-3.29v-7.46h3.29Z"/><rect class="cls-9" x="143.15" y="114.5" width="3.29" height="3.8"/><rect class="cls-9" x="155.48" y="170.53" width="3.29" height="3.8"/><path class="cls-9" d="M158.77,163.11h-3.29v-7.43h3.29Zm0-14.84h-3.29v-7.43h3.29Zm0-14.85h-3.29V126h3.29Z"/><rect class="cls-9" x="155.48" y="114.78" width="3.29" height="3.8"/><rect class="cls-9" x="167.8" y="170.53" width="3.29" height="3.8"/><path class="cls-9" d="M171.1,162h-3.3v-8.48h3.3Zm0-17h-3.3V136.6h3.3Zm0-17h-3.3v-8.48h3.3Z"/><rect class="cls-9" x="167.8" y="107.35" width="3.29" height="3.8"/><path class="cls-1" d="M251.73,80.92l8.52,25.85a27.31,27.31,0,0,0,15.8-13.39Z"/><path class="cls-10" d="M225.09,75.55h0c-.2,2.5-.53,1.69-.52,5.37h0a27.2,27.2,0,0,0,8,19.19l19.18-19.19V53.56A27.22,27.22,0,0,0,225.09,75.55Z"/><path class="cls-1" d="M251.73,80.92l-19.18,19.19h0a27.26,27.26,0,0,0,27.69,6.66Z"/><path class="cls-1" d="M264.23,56.5h-.05a27.34,27.34,0,0,0-12.45-2.95V80.92l24.36,12.46A27.3,27.3,0,0,0,264.23,56.5Z"/><path class="cls-1" d="M252,164.35l3.28-27a27.18,27.18,0,0,0-20,5.4Z"/><path class="cls-10" d="M273.85,180.55h0c1.24-2.18,1.2-1.31,2.75-4.65h0a27.2,27.2,0,0,0,.94-20.76L252,164.35l-11.64,24.77A27.25,27.25,0,0,0,273.85,180.55Z"/><path class="cls-1" d="M252,164.35l25.52-9.21h0a27.24,27.24,0,0,0-22.23-17.8Z"/><path class="cls-1" d="M230.32,181.14l.05,0a27.42,27.42,0,0,0,10,8L252,164.35l-16.75-21.63A27.3,27.3,0,0,0,230.32,181.14Z"/><path class="cls-7" d="M363.23,344.9a13.89,13.89,0,0,1-19.65-.25l-54.85-54.83c-4.2-4.22-4.75-8.53-1-12.29l7.39-7.39c4.76-4.77,9-4.32,13.29,0L363.27,325a13.89,13.89,0,0,1,.24,19.66Z"/><path class="cls-1" d="M329.71,235.15a75.06,75.06,0,1,1-75-75.06A75,75,0,0,1,329.71,235.15Z"/><path class="cls-2" d="M309.46,235.15a54.8,54.8,0,1,1-54.8-54.8A54.8,54.8,0,0,1,309.46,235.15Z"/></g></g></svg>