<svg width="545" height="339" viewBox="0 0 545 339" fill="none" xmlns="http://www.w3.org/2000/svg">
<path d="M527.667 3C527.667 4.47276 526.473 5.66667 525 5.66667C523.527 5.66667 522.333 4.47276 522.333 3C522.333 1.52724 523.527 0.333333 525 0.333333C526.473 0.333333 527.667 1.52724 527.667 3ZM525 307.457L525.5 307.457V307.457L525 307.457ZM0 336L5 333.113V338.887L0 336ZM525.5 3V7.00602H524.5V3H525.5ZM525.5 15.018V23.0301H524.5V15.018H525.5ZM525.5 31.0421V39.0541H524.5V31.0421H525.5ZM525.5 47.0662V55.0782H524.5V47.0662H525.5ZM525.5 63.0902V71.1023H524.5V63.0902H525.5ZM525.5 79.1143V87.1263H524.5V79.1143H525.5ZM525.5 95.1384V103.15H524.5V95.1384H525.5ZM525.5 111.162V119.174H524.5V111.162H525.5ZM525.5 127.186V135.199H524.5V127.186H525.5ZM525.5 143.211V151.223H524.5V143.211H525.5ZM525.5 159.235V167.247H524.5V159.235H525.5ZM525.5 175.259V183.271H524.5V175.259H525.5ZM525.5 191.283V199.295H524.5V191.283H525.5ZM525.5 207.307V215.319H524.5V207.307H525.5ZM525.5 223.331V231.343H524.5V223.331H525.5ZM525.5 239.355V247.367H524.5V239.355H525.5ZM525.5 255.379V263.391H524.5V255.379H525.5ZM525.5 271.403V279.415H524.5V271.403H525.5ZM525.5 287.427V295.439H524.5V287.427H525.5ZM525.5 303.451V307.457H524.5V303.451H525.5ZM525.5 307.457C525.5 308.72 525.5 309.927 525.498 311.08L524.498 311.079C524.5 309.926 524.5 308.72 524.5 307.457L525.5 307.457ZM525.44 318.292C525.384 321.114 525.277 323.499 525.07 325.512L524.075 325.41C524.278 323.438 524.385 321.084 524.44 318.272L525.44 318.292ZM523.105 332.626C521.744 334.738 519.651 335.687 516.618 336.122L516.476 335.132C519.369 334.717 521.126 333.851 522.264 332.084L523.105 332.626ZM509.356 336.494C508.233 336.501 507.03 336.5 505.744 336.5V335.5C507.032 335.5 508.231 335.501 509.35 335.494L509.356 336.494ZM505.744 336.5H501.793V335.5H505.744V336.5ZM493.89 336.5H485.988V335.5H493.89V336.5ZM478.086 336.5H470.184V335.5H478.086V336.5ZM462.281 336.5H454.379V335.5H462.281V336.5ZM446.477 336.5H438.575V335.5H446.477V336.5ZM430.672 336.5H422.77V335.5H430.672V336.5ZM414.868 336.5H406.966V335.5H414.868V336.5ZM399.063 336.5H391.161V335.5H399.063V336.5ZM383.259 336.5H375.357V335.5H383.259V336.5ZM367.454 336.5H359.552V335.5H367.454V336.5ZM351.65 336.5H343.748V335.5H351.65V336.5ZM335.845 336.5H327.943V335.5H335.845V336.5ZM320.041 336.5H312.139V335.5H320.041V336.5ZM304.236 336.5H296.334V335.5H304.236V336.5ZM288.432 336.5H280.53V335.5H288.432V336.5ZM272.627 336.5H264.725V335.5H272.627V336.5ZM256.823 336.5H248.921V335.5H256.823V336.5ZM241.018 336.5H233.116V335.5H241.018V336.5ZM225.214 336.5H217.312V335.5H225.214V336.5ZM209.409 336.5H201.507V335.5H209.409V336.5ZM193.605 336.5H185.703V335.5H193.605V336.5ZM177.8 336.5H169.898V335.5H177.8V336.5ZM161.996 336.5H154.094V335.5H161.996V336.5ZM146.191 336.5H138.289V335.5H146.191V336.5ZM130.387 336.5H122.485V335.5H130.387V336.5ZM114.582 336.5H106.68V335.5H114.582V336.5ZM98.7778 336.5H90.8756V335.5H98.7778V336.5ZM82.9733 336.5H75.0711V335.5H82.9733V336.5ZM67.1688 336.5H59.2666V335.5H67.1688V336.5ZM51.3643 336.5H43.4621V335.5H51.3643V336.5ZM35.5598 336.5H27.6576V335.5H35.5598V336.5ZM19.7553 336.5H11.8531V335.5H19.7553V336.5Z" fill="#578D8D"/>
<path d="M543.56 111.922C543.019 111.664 542.939 111.214 542.851 110.799C542.77 110.416 543.244 110.461 543.503 110.339C544.638 109.809 545.33 108.035 544.841 106.889C544.416 105.891 543.677 105.218 542.54 105.082C541.122 104.913 540.014 105.515 539.425 106.705C539.048 107.468 538.4 107.327 537.912 107.337C537.474 107.345 537.726 106.7 537.643 106.354C537.535 105.904 537.503 105.436 537.439 104.977C537.367 104.465 537.318 104.108 537.237 103.861C537.232 103.828 537.229 103.793 537.224 103.76C537.161 103.245 536.902 102.982 536.33 103.017C535.824 103.046 535.315 103.03 534.809 103.007C534.434 102.991 533.875 103.128 533.794 102.659C533.696 102.086 533.275 101.43 533.882 100.89C534.383 100.445 534.522 99.8752 534.574 99.2679C534.659 98.2798 534.281 97.7479 533.281 97.5789C532.819 97.5017 532.581 97.2916 532.432 96.9075C532.352 96.704 532.253 96.5054 532.19 96.2969C532.006 95.6978 531.095 95.1479 532.056 94.4684C532.625 94.0679 533.002 93.4162 533.916 93.5344C534.64 93.628 535.249 92.9025 535.217 92.2164C535.185 91.55 534.586 91.0083 533.877 91.0001C533.099 90.9919 532.467 91.5385 532.481 92.3346C532.489 92.8171 532.376 93.17 532.024 93.4983C531.155 94.3125 531.16 94.319 530.275 93.4934C528.672 91.9997 526.662 91.243 524.649 91.2053V91.202C524.613 91.202 524.578 91.2036 524.542 91.2036C524.507 91.2036 524.471 91.202 524.436 91.202V91.2053C522.422 91.243 520.412 91.9997 518.81 93.4934C517.923 94.319 517.928 94.3125 517.06 93.4983C516.71 93.17 516.595 92.8171 516.604 92.3346C516.619 91.5401 515.986 90.9919 515.208 91.0001C514.499 91.0067 513.9 91.55 513.868 92.2164C513.834 92.9041 514.445 93.628 515.169 93.5344C516.082 93.4162 516.46 94.0679 517.028 94.4684C517.991 95.1479 517.079 95.6995 516.895 96.2969C516.83 96.5054 516.732 96.704 516.653 96.9075C516.502 97.2916 516.265 97.5017 515.803 97.5789C514.802 97.7479 514.426 98.2798 514.511 99.2679C514.563 99.8752 514.702 100.445 515.203 100.89C515.81 101.43 515.39 102.086 515.291 102.659C515.209 103.128 514.651 102.991 514.275 103.007C513.77 103.03 513.259 103.046 512.754 103.017C512.182 102.982 511.925 103.245 511.861 103.76C511.856 103.8 511.851 103.838 511.846 103.875H511.851C511.841 103.923 511.831 103.971 511.824 104.023C511.724 104.837 511.548 105.65 511.536 106.465C511.524 107.326 511.066 107.427 510.345 107.414C509.782 107.403 509.673 107.042 509.484 106.674C508.536 104.821 506.261 104.519 504.87 106.052C503.724 107.316 504.102 109.2 505.748 110.073C506.343 110.388 506.394 110.725 506.211 111.263C506.074 111.669 505.778 111.856 505.415 112.045C504.448 112.545 504.168 113.502 504.702 114.321C505.225 115.124 506.294 115.313 507.052 114.737C507.848 114.133 507.92 113.139 507.225 112.352C506.543 111.577 506.799 110.63 507.799 110.236C508.584 109.926 509.247 109.463 509.531 108.665C509.795 107.923 510.379 108.058 510.922 108.104C511.54 108.156 511.443 108.653 511.45 109.049C511.484 110.945 511.763 112.806 512.333 114.618C513.357 117.872 515.233 120.46 518.536 121.88C521.079 122.973 523.774 123.162 526.488 122.888C531.139 122.418 534.515 120.212 536.29 115.89C537.208 113.657 537.491 111.321 537.677 108.959C537.699 108.685 537.565 108.263 538.044 108.279C538.462 108.292 538.955 108.013 539.268 108.652C539.614 109.356 540.168 109.94 540.965 110.251C542.066 110.679 542.266 111.487 541.503 112.368C540.826 113.151 540.997 114.318 541.873 114.958C542.677 115.546 543.849 115.316 544.387 114.494C545.013 113.528 544.733 112.48 543.56 111.922Z" fill="#578D8D"/>
<path fill-rule="evenodd" clip-rule="evenodd" d="M543.921 107.281L543.921 107.281C543.611 106.553 543.143 106.161 542.421 106.075C541.405 105.954 540.714 106.355 540.321 107.149C540.197 107.401 540.045 107.606 539.875 107.772C539.993 107.905 540.088 108.055 540.165 108.211C540.42 108.728 540.8 109.113 541.327 109.319C541.643 109.441 541.952 109.609 542.216 109.831C542.397 109.657 542.594 109.573 542.703 109.533C542.829 109.486 542.967 109.455 543.029 109.44C543.037 109.438 543.044 109.437 543.049 109.436C543.075 109.429 543.092 109.425 543.101 109.422C543.364 109.29 543.663 108.961 543.849 108.483C544.04 107.99 544.033 107.543 543.921 107.281ZM540.965 110.251C540.168 109.94 539.614 109.356 539.268 108.652C539.167 108.448 539.049 108.337 538.92 108.281C538.744 108.204 538.548 108.23 538.355 108.255C538.249 108.269 538.145 108.282 538.044 108.279C538.002 108.278 537.965 108.28 537.931 108.285C537.931 108.285 537.93 108.285 537.93 108.285C537.875 108.293 537.832 108.31 537.798 108.333C537.667 108.422 537.672 108.606 537.678 108.78C537.68 108.842 537.681 108.904 537.677 108.959C537.491 111.321 537.208 113.657 536.29 115.89C534.515 120.212 531.139 122.418 526.488 122.888C523.774 123.162 521.079 122.973 518.536 121.88C515.233 120.46 513.357 117.872 512.333 114.618L513.287 114.318C514.245 117.364 515.957 119.683 518.931 120.961M536.33 103.017C535.824 103.046 535.315 103.03 534.809 103.007C534.734 103.004 534.651 103.007 534.567 103.01C534.229 103.021 533.859 103.034 533.794 102.659C533.771 102.527 533.731 102.39 533.691 102.251C533.556 101.789 533.415 101.305 533.882 100.89C534.383 100.445 534.522 99.8752 534.574 99.2679C534.659 98.2798 534.281 97.7479 533.281 97.5789C532.819 97.5017 532.581 97.2916 532.432 96.9075C532.404 96.8361 532.374 96.7653 532.343 96.6944C532.287 96.5634 532.231 96.4322 532.19 96.2969C532.139 96.1296 532.03 95.9661 531.922 95.8026C531.754 95.5486 531.586 95.2945 531.63 95.0256C531.491 95.0761 531.333 95.1106 531.156 95.1108C530.955 95.111 530.778 95.0668 530.626 95.0052C530.634 94.8976 530.653 94.7853 530.688 94.6693C530.756 94.4438 530.869 94.2492 531.008 94.0807C530.829 94.01 530.619 93.8148 530.275 93.4934C528.881 92.1945 527.18 91.453 525.436 91.2568C525.174 91.2273 524.912 91.2102 524.649 91.2053V91.202C524.631 91.202 524.613 91.2024 524.596 91.2028C524.578 91.2032 524.56 91.2036 524.542 91.2036C524.525 91.2036 524.507 91.2032 524.489 91.2028C524.471 91.2024 524.453 91.202 524.436 91.202V91.2053C524.173 91.2102 523.911 91.2273 523.649 91.2568C521.905 91.453 520.203 92.1945 518.81 93.4934C518.466 93.814 518.256 94.0091 518.077 94.0802C517.879 94.159 517.719 94.0853 517.457 93.8613C517.457 93.8614 517.457 93.8611 517.457 93.8613C517.351 93.7705 517.227 93.6547 517.078 93.5148L517.06 93.4983C516.863 93.3134 516.741 93.1207 516.673 92.9015C516.62 92.7314 516.6 92.5454 516.604 92.3346C516.619 91.5401 515.986 90.9919 515.208 91.0001C514.499 91.0067 513.9 91.55 513.868 92.2164C513.834 92.9041 514.445 93.628 515.169 93.5344C515.458 93.4971 515.693 93.5366 515.897 93.6209C516.141 93.7211 516.341 93.8846 516.536 94.0569C516.536 94.0569 516.536 94.057 516.536 94.0569C516.565 94.0822 516.594 94.1079 516.622 94.1334C516.753 94.2501 516.885 94.3673 517.028 94.4684C517.305 94.6636 517.427 94.8482 517.456 95.0264C517.499 95.2955 517.331 95.55 517.162 95.8039C517.054 95.9672 516.946 96.1303 516.895 96.2969C516.853 96.4319 516.797 96.5627 516.741 96.6934C516.711 96.7646 516.681 96.8358 516.653 96.9075C516.502 97.2916 516.265 97.5017 515.803 97.5789C514.802 97.7479 514.426 98.2798 514.511 99.2679C514.563 99.8752 514.702 100.445 515.203 100.89C515.671 101.306 515.529 101.791 515.393 102.254C515.353 102.392 515.313 102.528 515.291 102.659C515.226 103.034 514.856 103.021 514.518 103.01C514.433 103.007 514.351 103.004 514.275 103.007C513.869 103.025 513.46 103.04 513.054 103.029C512.954 103.027 512.854 103.023 512.754 103.017C512.182 102.982 511.925 103.245 511.861 103.76C511.858 103.787 511.854 103.812 511.851 103.837C511.849 103.85 511.848 103.862 511.846 103.874C511.846 103.875 511.846 103.875 511.846 103.875H511.851C511.851 103.875 511.851 103.875 511.851 103.875C511.849 103.883 511.847 103.891 511.846 103.899C511.837 103.939 511.829 103.979 511.824 104.023C511.792 104.281 511.753 104.539 511.714 104.797C511.71 104.823 511.706 104.849 511.702 104.875C511.621 105.405 511.544 105.934 511.536 106.465C511.532 106.8 511.459 107.019 511.331 107.162C511.242 107.261 511.125 107.324 510.985 107.362C510.985 107.362 510.985 107.362 510.985 107.362C510.807 107.41 510.591 107.419 510.345 107.414C510.047 107.408 509.876 107.304 509.753 107.153C509.67 107.05 509.608 106.925 509.544 106.795C509.525 106.755 509.505 106.715 509.484 106.674C508.536 104.821 506.261 104.519 504.87 106.052C503.724 107.316 504.102 109.2 505.748 110.073C505.923 110.166 506.05 110.26 506.139 110.361C506.353 110.603 506.341 110.883 506.211 111.263C506.138 111.481 506.019 111.636 505.868 111.761C505.737 111.87 505.583 111.957 505.415 112.045C504.448 112.545 504.168 113.502 504.702 114.321C505.225 115.124 506.294 115.313 507.052 114.737C507.848 114.133 507.92 113.139 507.225 112.352C507.12 112.232 507.037 112.109 506.976 111.984C506.893 111.816 506.85 111.645 506.844 111.478C506.844 111.478 506.844 111.478 506.844 111.478C506.831 111.127 506.984 110.793 507.285 110.536C507.425 110.418 507.596 110.315 507.799 110.236C508.584 109.926 509.247 109.463 509.531 108.665C509.585 108.514 509.652 108.399 509.729 108.313C509.893 108.128 510.104 108.072 510.332 108.065C510.332 108.065 510.333 108.065 510.333 108.065C510.476 108.06 510.624 108.075 510.773 108.09C510.823 108.095 510.872 108.099 510.922 108.104C511.137 108.122 511.266 108.194 511.342 108.298C511.457 108.453 511.454 108.679 511.451 108.896C511.45 108.948 511.449 108.999 511.45 109.049C511.484 110.945 511.763 112.806 512.333 114.618L513.287 114.318C512.748 112.606 512.482 110.84 512.45 109.032C512.449 109.001 512.45 108.967 512.45 108.912L512.451 108.907C512.451 108.858 512.452 108.793 512.451 108.727C512.449 108.595 512.44 108.385 512.373 108.161C512.331 108.022 512.265 107.87 512.163 107.726C512.439 107.36 512.53 106.907 512.536 106.48C512.543 105.99 512.611 105.545 512.69 105.032C512.732 104.762 512.776 104.473 512.816 104.15C512.816 104.147 512.817 104.143 512.818 104.135C512.821 104.123 512.823 104.109 512.829 104.084L512.842 104.023C513.352 104.045 513.855 104.027 514.32 104.006M508.925 107.715C508.776 107.51 508.665 107.277 508.616 107.175C508.607 107.156 508.6 107.141 508.595 107.132L508.593 107.129C507.963 105.896 506.53 105.711 505.611 106.723M508.925 107.715C508.777 107.899 508.668 108.109 508.589 108.33ZM507.432 109.305C507.215 109.391 507.011 109.5 506.825 109.63C506.641 109.442 506.426 109.301 506.216 109.19C505.076 108.585 504.955 107.447 505.611 106.723M506.249 112.719C506.501 112.556 506.773 112.327 506.976 111.984ZM506.249 112.719C506.115 112.806 505.986 112.875 505.875 112.932C505.588 113.081 505.484 113.252 505.452 113.357C505.422 113.454 505.42 113.592 505.54 113.775C505.749 114.096 506.156 114.161 506.447 113.94C506.638 113.796 506.692 113.65 506.7 113.541C506.709 113.425 506.672 113.237 506.475 113.013L506.474 113.012C506.392 112.919 506.317 112.821 506.249 112.719ZM515.507 99.1823C515.475 98.8125 515.548 98.7185 515.549 98.7169C515.552 98.7136 515.566 98.694 515.621 98.6661C515.682 98.6349 515.79 98.5953 515.969 98.565C516.318 98.5066 516.669 98.3829 516.975 98.1348C517.282 97.8856 517.465 97.5741 517.584 97.2725L517.584 97.2715C517.592 97.2513 517.607 97.2159 517.626 97.1702C517.688 97.0252 517.793 96.7774 517.85 96.5919C517.849 96.5932 517.85 96.5926 517.85 96.5919C517.854 96.5842 517.876 96.5375 517.964 96.4048C517.972 96.3923 517.981 96.3781 517.992 96.3624C518.072 96.242 518.211 96.0336 518.307 95.8157C518.398 95.61 518.482 95.3289 518.459 95.0045C518.637 94.9317 518.78 94.8349 518.883 94.7585C519.066 94.622 519.267 94.4341 519.463 94.2519C519.472 94.243 519.482 94.2341 519.491 94.2252C520.908 92.9046 522.68 92.2384 524.454 92.2051L524.534 92.2036C524.537 92.2036 524.539 92.2036 524.542 92.2036C524.545 92.2036 524.548 92.2036 524.551 92.2036L524.63 92.2051C526.404 92.2384 528.176 92.9042 529.593 94.2246M515.606 92.5305C515.603 92.4585 515.603 92.3873 515.604 92.317L515.604 92.3154C515.606 92.2037 515.568 92.1414 515.523 92.0993C515.47 92.0504 515.37 91.9984 515.218 92L515.217 92C515.116 92.001 515.023 92.0405 514.956 92.1013C514.889 92.162 514.868 92.2233 514.867 92.2646C514.866 92.2815 514.868 92.316 514.886 92.3613C514.904 92.4066 514.931 92.4502 514.964 92.4849C514.996 92.5196 515.024 92.535 515.037 92.5403C515.039 92.5414 515.041 92.5421 515.043 92.5424C515.244 92.5166 515.431 92.5143 515.606 92.5305ZM532.548 94.0574C532.744 93.8846 532.944 93.7208 533.188 93.6205C533.24 93.5269 533.285 93.429 533.324 93.3262M533.916 93.5344C534.64 93.628 535.249 92.9025 535.217 92.2164C535.185 91.55 534.586 91.0083 533.877 91.0001C533.099 90.9919 532.467 91.5385 532.481 92.3346C532.485 92.5452 532.465 92.7311 532.413 92.901C532.345 93.1205 532.223 93.3133 532.024 93.4983L532.547 94.0583C532.547 94.058 532.547 94.0577 532.548 94.0574M536.33 103.017C536.902 102.982 537.161 103.245 537.224 103.76C537.226 103.777 537.228 103.794 537.23 103.81M531.5 97.2705C531.618 97.5744 531.802 97.8862 532.11 98.1353C532.416 98.3834 532.768 98.5069 533.117 98.5652L533.281 97.5789L533.115 98.5649C533.293 98.5951 533.401 98.6347 533.463 98.666C533.519 98.6945 533.533 98.7142 533.535 98.7172C533.537 98.7194 533.609 98.8136 533.578 99.1818C533.533 99.7002 533.431 99.9523 533.218 100.142C532.94 100.389 532.744 100.685 532.641 101.023C532.542 101.35 532.549 101.656 532.583 101.898C532.615 102.132 532.678 102.35 532.721 102.496C532.771 102.668 532.796 102.754 532.808 102.828L532.809 102.83C532.867 103.165 533.034 103.479 533.326 103.703C533.59 103.905 533.873 103.969 534.059 103.994C534.246 104.019 534.425 104.015 534.534 104.011C534.572 104.01 534.603 104.009 534.628 104.008C534.699 104.006 534.733 104.005 534.766 104.006L534.809 103.007L534.764 104.006C535.232 104.027 535.736 104.045 536.25 104.022L536.261 104.094L536.287 104.172C536.333 104.313 536.371 104.558 536.448 105.114L536.448 105.115C536.461 105.21 536.475 105.321 536.489 105.441C536.528 105.772 536.576 106.18 536.661 106.547C536.661 106.559 536.661 106.579 536.66 106.608C536.659 106.617 536.658 106.633 536.657 106.653C536.652 106.732 536.643 106.879 536.645 106.989C536.646 107.118 536.654 107.444 536.842 107.754C536.86 107.784 536.88 107.814 536.901 107.843M537.758 107.3C537.625 107.213 537.639 106.987 537.653 106.757C537.662 106.613 537.67 106.467 537.643 106.354M537.758 107.3C537.796 107.325 537.846 107.338 537.912 107.337C537.964 107.336 538.018 107.337 538.074 107.338C538.075 107.338 538.076 107.338 538.077 107.338C538.093 107.338 538.11 107.339 538.127 107.339C538.374 107.344 538.644 107.351 538.891 107.246C539.093 107.16 539.279 107 539.425 106.705C540.014 105.515 541.122 104.913 542.54 105.082C543.677 105.218 544.416 105.891 544.841 106.889C545.33 108.035 544.638 109.809 543.503 110.339C543.43 110.373 543.341 110.394 543.252 110.415C543.053 110.462 542.854 110.509 542.842 110.7C542.841 110.729 542.843 110.762 542.851 110.799C542.854 110.811 542.856 110.824 542.859 110.837C542.886 110.965 542.914 111.097 542.956 111.224C543.046 111.497 543.202 111.751 543.56 111.922C544.733 112.48 545.013 113.528 544.387 114.494C543.849 115.316 542.677 115.546 541.873 114.958C540.997 114.318 540.826 113.151 541.503 112.368C541.8 112.024 541.951 111.692 541.96 111.388C541.963 111.254 541.939 111.125 541.887 111.004C541.887 111.003 541.887 111.004 541.887 111.004C541.879 110.986 541.871 110.969 541.862 110.952C541.719 110.668 541.418 110.427 540.965 110.251M542.259 113.023C542.397 112.863 542.525 112.689 542.632 112.502ZM542.632 112.502C542.77 112.621 542.934 112.731 543.13 112.824C543.526 113.013 543.654 113.223 543.692 113.348C543.728 113.467 543.732 113.666 543.55 113.948C543.318 114.299 542.795 114.393 542.463 114.151C542.012 113.821 542.002 113.32 542.259 113.023M531.5 97.2705C531.5 97.27 531.5 97.2695 531.5 97.269L532.432 96.9075L531.501 97.2714C531.5 97.2711 531.5 97.2708 531.5 97.2705ZM533.578 99.1818C533.578 99.1816 533.578 99.1821 533.578 99.1818Z" fill="#578D8D"/>
</svg>
