<svg width="120" height="126" viewBox="0 0 120 126" fill="none" xmlns="http://www.w3.org/2000/svg">
<rect y="3" width="120" height="120" rx="60" fill="#73DFE9"/>
<path d="M72.3192 110.175V102.555H47.6808V110.175C47.6827 112.163 46.9584 114.083 45.6441 115.574C44.3298 117.065 42.516 118.024 40.5438 118.272V118.335H79.48V118.272C77.5035 118.03 75.684 117.073 74.3649 115.581C73.0457 114.09 72.318 112.167 72.3192 110.175Z" fill="#D9DCD8" stroke="#020302" stroke-width="2"/>
<path d="M113 103.554C113 104.605 112.582 105.614 111.839 106.358C111.095 107.101 110.087 107.519 109.035 107.519H10.9967C9.94515 107.519 8.93664 107.101 8.19306 106.358C7.44948 105.614 7.03174 104.605 7.03174 103.554V49.4794C7.03174 48.4278 7.44948 47.4193 8.19306 46.6757C8.93664 45.9321 9.94515 45.5144 10.9967 45.5144H109.011C110.063 45.5144 111.071 45.9321 111.815 46.6757C112.558 47.4193 112.976 48.4278 112.976 49.4794L113 103.554Z" fill="white" stroke="black" stroke-width="2" stroke-linecap="round" stroke-linejoin="round"/>
<path d="M109.003 35.3561H10.9967C8.78939 35.3561 7 37.1455 7 39.3528V93.4273C7 95.6346 8.78939 97.424 10.9967 97.424H109.003C111.211 97.424 113 95.6346 113 93.4273V39.3528C113 37.1455 111.211 35.3561 109.003 35.3561Z" fill="white" stroke="black" stroke-width="2" stroke-linecap="round" stroke-linejoin="round"/>
<path d="M108.083 39.8841H11.9165V92.6264H108.083V39.8841Z" fill="#408E8E"/>
<path d="M86.49 121.642C86.49 122.273 86.2394 122.878 85.7933 123.324C85.3471 123.771 84.742 124.021 84.1111 124.021H35.8651C35.2341 124.021 34.629 123.771 34.1829 123.324C33.7367 122.878 33.4861 122.273 33.4861 121.642V120.691C33.4861 120.06 33.7367 119.455 34.1829 119.008C34.629 118.562 35.2341 118.312 35.8651 118.312H84.1348C84.7658 118.312 85.3709 118.562 85.817 119.008C86.2632 119.455 86.5138 120.06 86.5138 120.691L86.49 121.642Z" fill="white" stroke="black" stroke-width="2" stroke-linecap="round" stroke-linejoin="round"/>
<path d="M74.0559 84.0541H33.8906C32.7492 84.0478 31.6569 83.5894 30.8528 82.7794C30.0487 81.9693 29.5984 80.8736 29.6005 79.7323V6.28481C29.6005 5.14553 30.0519 4.05269 30.856 3.24561C31.6602 2.43854 32.7513 1.98302 33.8906 1.97883H86.1174C87.2594 1.97883 88.3547 2.43249 89.1622 3.24002C89.9697 4.04755 90.4234 5.14279 90.4234 6.28481V67.6787L74.0559 84.0541Z" fill="white" stroke="#040505" stroke-width="2" stroke-linecap="round" stroke-linejoin="round"/>
<path d="M74.0559 84.0541V71.4296C74.0559 70.4348 74.4511 69.4807 75.1545 68.7773C75.8579 68.0739 76.812 67.6787 77.8068 67.6787H90.4234L74.0559 84.0541Z" fill="white" stroke="#040505" stroke-width="2" stroke-linecap="round" stroke-linejoin="round"/>
<path d="M81.2563 39.3528H37.5145" stroke="#040505" stroke-width="2" stroke-linecap="round" stroke-linejoin="round"/>
<path d="M71.0504 49.5587H37.5145" stroke="#040505" stroke-width="2" stroke-linecap="round" stroke-linejoin="round"/>
<path d="M81.2563 29.1469H37.5145" stroke="#040505" stroke-width="2" stroke-linecap="round" stroke-linejoin="round"/>
<path d="M81.2563 18.941H37.5145" stroke="#040505" stroke-width="2" stroke-linecap="round" stroke-linejoin="round"/>
</svg>
