<svg width="120" height="132" viewBox="0 0 120 132" fill="none" xmlns="http://www.w3.org/2000/svg">
<rect y="3" width="120" height="120" rx="60" fill="#73DFE9"/>
<path d="M91.8287 24.0083C97.0058 18.8311 97.0058 10.4373 91.8287 5.26012C86.6515 0.0829558 78.2577 0.0829558 73.0805 5.26012C67.9033 10.4373 67.9033 18.8311 73.0805 24.0083C78.2577 29.1854 86.6515 29.1854 91.8287 24.0083Z" fill="white" stroke="black" stroke-width="2" stroke-linecap="round" stroke-linejoin="round"/>
<path d="M56.4733 31.2383C56.4705 33.8611 55.6902 36.4242 54.231 38.6036C52.7719 40.783 50.6994 42.4809 48.2755 43.4826C45.8515 44.4844 43.185 44.745 40.613 44.2317C38.041 43.7183 35.6789 42.4539 33.8253 40.5984C31.9717 38.7428 30.7098 36.3794 30.1992 33.8068C29.6885 31.2342 29.952 28.568 30.9563 26.1451C31.9607 23.7223 33.6607 21.6516 35.8417 20.1947C38.0226 18.7379 40.5865 17.9603 43.2093 17.9603C44.9526 17.9594 46.6789 18.3023 48.2895 18.9694C49.9001 19.6365 51.3633 20.6148 52.5954 21.8481C53.8274 23.0815 54.8041 24.5457 55.4695 26.157C56.1349 27.7683 56.476 29.495 56.4733 31.2383Z" fill="white" stroke="black" stroke-width="2" stroke-linecap="round" stroke-linejoin="round"/>
<path d="M107 71.0513C106.999 75.9059 105.558 80.6511 102.86 84.6869C100.162 88.7226 96.3275 91.8678 91.8421 93.7246C87.3566 95.5814 82.4213 96.0665 77.6601 95.1186C72.899 94.1706 68.5258 91.8322 65.0936 88.399C61.6614 84.9658 59.3242 80.592 58.3777 75.8306C57.4311 71.0691 57.9176 66.134 59.7757 61.649C61.6338 57.1641 64.78 53.3308 68.8166 50.6339C72.8531 47.937 77.5987 46.4975 82.4533 46.4975C85.6774 46.4975 88.8699 47.1327 91.8486 48.3667C94.8272 49.6007 97.5335 51.4095 99.813 53.6896C102.092 55.9697 103.9 58.6766 105.134 61.6555C106.367 64.6345 107.001 67.8272 107 71.0513Z" stroke="#010101" stroke-width="2" stroke-linecap="round" stroke-linejoin="round"/>
<path d="M82.4532 46.4975V28.5195" stroke="#010101" stroke-width="2" stroke-linecap="round" stroke-linejoin="round"/>
<path d="M64.4962 54.3028L51.3517 42.0434" stroke="#010101" stroke-width="2" stroke-linecap="round" stroke-linejoin="round"/>
<path d="M57.9626 72.7585L40.0267 74.016" stroke="#010101" stroke-width="2" stroke-linecap="round" stroke-linejoin="round"/>
<path d="M67.0043 90.1253L55.6864 104.099" stroke="#010101" stroke-width="2" stroke-linecap="round" stroke-linejoin="round"/>
<path d="M39.528 74.0161C39.5266 76.6391 38.7475 79.2029 37.2892 81.3832C35.8309 83.5635 33.7588 85.2625 31.335 86.2654C28.9112 87.2682 26.2445 87.5299 23.672 87.0173C21.0995 86.5047 18.7367 85.2409 16.8825 83.3856C15.0282 81.5303 13.7656 79.1669 13.2544 76.5941C12.7431 74.0214 13.0062 71.3548 14.0103 68.9315C15.0145 66.5082 16.7145 64.4371 18.8956 62.98C21.0767 61.5228 23.6409 60.7451 26.264 60.7451C28.0067 60.7441 29.7325 61.0868 31.3426 61.7535C32.9527 62.4202 34.4156 63.3978 35.6476 64.6304C36.8795 65.863 37.8564 67.3264 38.5222 68.9369C39.188 70.5474 39.5298 72.2734 39.528 74.0161Z" fill="white" stroke="black" stroke-width="2" stroke-linecap="round" stroke-linejoin="round"/>
<path d="M29.0742 70.0397C29.0742 70.5955 28.9094 71.1388 28.6006 71.6009C28.2918 72.063 27.8529 72.4232 27.3394 72.6359C26.8259 72.8486 26.2609 72.9043 25.7158 72.7958C25.1707 72.6874 24.6699 72.4198 24.2769 72.0268C23.8839 71.6337 23.6163 71.133 23.5079 70.5879C23.3994 70.0428 23.4551 69.4778 23.6678 68.9643C23.8805 68.4508 24.2406 68.0119 24.7028 67.7031C25.1649 67.3943 25.7082 67.2295 26.264 67.2295C27.0093 67.2295 27.7241 67.5256 28.2511 68.0526C28.7781 68.5796 29.0742 69.2944 29.0742 70.0397Z" fill="#408E8E"/>
<path d="M32.2636 78.4069L30.4511 74.3322C30.2306 73.8345 29.9264 73.3783 29.5518 72.9833C29.1568 73.4756 28.6563 73.873 28.0873 74.146C27.5182 74.419 26.8951 74.5607 26.2639 74.5607C25.6327 74.5607 25.0096 74.419 24.4406 74.146C23.8715 73.873 23.371 73.4756 22.976 72.9833C22.6037 73.3786 22.3019 73.8349 22.0838 74.3322L20.2712 78.4069C19.7935 79.4678 20.3907 80.7956 21.3321 80.7956H31.1677C32.1442 80.7956 32.7343 79.4678 32.2636 78.4069Z" fill="#408E8E"/>
<path d="M62.4519 116.885C62.4463 119.506 61.6643 122.066 60.2045 124.242C58.7448 126.418 56.6728 128.113 54.2503 129.112C51.8278 130.112 49.1636 130.37 46.594 129.856C44.0245 129.342 41.6649 128.078 39.8134 126.224C37.9619 124.369 36.7016 122.008 36.1915 119.437C35.6815 116.867 35.9447 114.203 36.9478 111.782C37.9509 109.361 39.649 107.292 41.8276 105.836C44.0061 104.379 46.5674 103.601 49.1879 103.6C50.9318 103.599 52.6587 103.942 54.2698 104.61C55.8808 105.277 57.3443 106.256 58.5765 107.49C59.8086 108.724 60.7851 110.19 61.4502 111.802C62.1152 113.414 62.4556 115.141 62.4519 116.885Z" fill="white" stroke="black" stroke-width="2" stroke-linecap="round" stroke-linejoin="round"/>
<path d="M54.9839 109.206H43.4131V124.557H54.9839V109.206Z" fill="#D9DCD8"/>
<path d="M46.1599 112.944H52.2299" stroke="#010101" stroke-width="2" stroke-linecap="round" stroke-linejoin="round"/>
<path d="M46.1599 116.169H52.2299" stroke="#010101" stroke-width="2" stroke-linecap="round" stroke-linejoin="round"/>
<path d="M79.3971 84.3294C79.4013 85.8025 78.9684 87.2438 78.1533 88.4709C77.3382 89.698 76.1774 90.6558 74.8179 91.2231C73.4583 91.7904 71.9611 91.9417 70.5155 91.6578C69.0699 91.374 67.741 90.6678 66.6969 89.6286C65.6528 88.5894 64.9403 87.2638 64.6497 85.8196C64.359 84.3754 64.5033 82.8775 65.0641 81.5152C65.625 80.153 66.5773 78.9877 67.8005 78.1668C69.0238 77.3459 70.463 76.9063 71.9362 76.9035C73.91 76.8998 75.8046 77.6798 77.2036 79.0722C78.6026 80.4647 79.3916 82.3555 79.3971 84.3294Z" fill="white" stroke="black" stroke-width="2" stroke-linecap="round" stroke-linejoin="round"/>
<path d="M95.1481 84.2802C92.8871 84.2802 90.6769 83.6096 88.797 82.3533C86.9172 81.097 85.4521 79.3115 84.5872 77.2224C83.7223 75.1334 83.4963 72.8348 83.9379 70.6173C84.3795 68.3998 85.4689 66.3632 87.0681 64.7649C88.6674 63.1666 90.7047 62.0785 92.9225 61.6383C95.1402 61.198 97.4387 61.4254 99.5272 62.2916C101.616 63.1578 103.4 64.624 104.656 66.5046C105.911 68.3852 106.58 70.5959 106.578 72.8569C106.573 75.886 105.367 78.7894 103.224 80.9307C101.081 83.072 98.1773 84.2765 95.1481 84.2802Z" fill="white" stroke="black" stroke-width="2" stroke-linecap="round" stroke-linejoin="round"/>
<path d="M95.1482 64.7917V80.915" stroke="#010101" stroke-width="2" stroke-linecap="round" stroke-linejoin="round"/>
<path d="M99.4617 69.9202C99.4617 68.185 98.1831 66.6675 95.8507 66.6675H94.291C89.9212 66.6675 89.6683 72.2878 93.5885 72.5969C94.1435 72.6391 95.8296 72.5969 95.8296 72.5969C101.049 72.5548 100.298 79.0322 95.8296 79.0322H94.291C93.8426 79.065 93.3923 79.0051 92.968 78.8562C92.5438 78.7073 92.1548 78.4726 91.8252 78.1668C91.4956 77.861 91.2326 77.4905 91.0525 77.0786C90.8724 76.6666 90.7791 76.222 90.7783 75.7724" stroke="#010101" stroke-width="2" stroke-linecap="round" stroke-linejoin="round"/>
<path d="M80.3104 61.0963C80.3104 62.8651 79.7859 64.5943 78.8032 66.065C77.8205 67.5357 76.4237 68.682 74.7895 69.3589C73.1553 70.0358 71.3571 70.2129 69.6223 69.8678C67.8875 69.5227 66.2939 68.671 65.0432 67.4202C63.7924 66.1695 62.9406 64.5759 62.5956 62.8411C62.2505 61.1062 62.4276 59.308 63.1045 57.6738C63.7814 56.0397 64.9277 54.6429 66.3984 53.6602C67.8691 52.6775 69.5982 52.153 71.3671 52.153C73.739 52.153 76.0138 53.0952 77.691 54.7724C79.3682 56.4496 80.3104 58.7244 80.3104 61.0963Z" fill="white" stroke="black" stroke-width="2" stroke-linecap="round" stroke-linejoin="round"/>
<path d="M71.3671 55.0826V67.1171" stroke="#010101" stroke-width="2" stroke-linecap="round" stroke-linejoin="round"/>
<path d="M77.3809 61.0963H65.3534" stroke="#010101" stroke-width="2" stroke-linecap="round" stroke-linejoin="round"/>
<path d="M42.7386 24.6485C42.7818 24.5594 42.8491 24.4843 42.933 24.4317C43.0169 24.3791 43.1138 24.3513 43.2128 24.3513C43.3118 24.3513 43.4088 24.3791 43.4927 24.4317C43.5765 24.4843 43.6439 24.5594 43.687 24.6485L45.3872 28.0909C45.459 28.2396 45.5665 28.3681 45.7001 28.465C45.8338 28.5618 45.9894 28.624 46.153 28.6459L49.9537 29.201C50.0514 29.2145 50.1432 29.2553 50.2189 29.3185C50.2946 29.3817 50.351 29.4649 50.3817 29.5586C50.4124 29.6522 50.4163 29.7527 50.3928 29.8484C50.3693 29.9442 50.3194 30.0314 50.2488 30.1002L47.4948 32.7839C47.3765 32.8987 47.2879 33.0406 47.2365 33.1972C47.1851 33.3538 47.1725 33.5206 47.1997 33.6832L47.8531 37.4699C47.8698 37.5669 47.859 37.6667 47.8218 37.7579C47.7847 37.8491 47.7228 37.928 47.643 37.9858C47.5633 38.0436 47.469 38.0779 47.3708 38.0848C47.2726 38.0917 47.1744 38.0709 47.0873 38.0249L43.687 36.2404C43.5406 36.1641 43.3779 36.1242 43.2128 36.1242C43.0477 36.1242 42.885 36.1641 42.7386 36.2404L39.3524 38.0249C39.2653 38.0709 39.1671 38.0917 39.0689 38.0848C38.9707 38.0779 38.8764 38.0436 38.7967 37.9858C38.7169 37.928 38.655 37.8491 38.6179 37.7579C38.5807 37.6667 38.5699 37.5669 38.5866 37.4699L39.2329 33.6832C39.2629 33.5211 39.2523 33.3542 39.202 33.1973C39.1518 33.0404 39.0634 32.8984 38.9449 32.7839L36.1909 30.1002C36.1203 30.0314 36.0704 29.9442 36.0469 29.8484C36.0234 29.7527 36.0273 29.6522 36.058 29.5586C36.0887 29.4649 36.1451 29.3817 36.2208 29.3185C36.2965 29.2553 36.3883 29.2145 36.486 29.201L40.2867 28.6459C40.4503 28.624 40.6059 28.5618 40.7396 28.465C40.8732 28.3681 40.9807 28.2396 41.0525 28.0909L42.7386 24.6485Z" fill="#408E8E"/>
<path d="M75.7862 84.3293H68.0863" stroke="black" stroke-width="2" stroke-linecap="round" stroke-linejoin="round"/>
<path d="M87.6379 12.2697C87.647 11.375 87.4244 10.4933 86.9918 9.71008C86.5592 8.92691 85.9312 8.26902 85.1691 7.80039C84.4069 7.33176 83.5364 7.06834 82.6423 7.03575C81.7482 7.00316 80.8608 7.2025 80.0666 7.61439C79.2723 8.02629 78.5981 8.63671 78.1096 9.38631C77.6211 10.1359 77.3349 10.9992 77.2789 11.8921C77.2228 12.7851 77.3988 13.6773 77.7896 14.4822C78.1805 15.287 78.773 15.9769 79.5095 16.485C79.6152 16.5537 79.7025 16.6473 79.7637 16.7575C79.8249 16.8677 79.8583 16.9912 79.8608 17.1173V18.8315C79.8608 19.5972 80.479 19.534 81.2659 19.534H83.6826C84.4414 19.534 85.0877 19.5972 85.0877 18.8315V17.1383C85.0902 17.0123 85.1236 16.8888 85.1848 16.7786C85.246 16.6683 85.3333 16.5748 85.439 16.506C86.118 16.0277 86.6722 15.3932 87.0549 14.656C87.4376 13.9187 87.6375 13.1004 87.6379 12.2697Z" fill="#408E8E"/>
<path d="M82.4532 7.05687C83.6616 7.05687 84.6452 9.37525 84.6452 12.2416C84.6953 13.7137 84.3688 15.1743 83.6967 16.485C83.5921 16.6788 83.5412 16.8971 83.5492 17.1173V18.8315C83.5492 19.4427 83.3806 19.534 83.1488 19.534H83.6616C84.4204 19.534 85.0667 19.5972 85.0667 18.8315V17.1383C85.0706 17.0118 85.1053 16.8881 85.1677 16.7779C85.2301 16.6677 85.3184 16.5744 85.425 16.506C86.3337 15.8777 87.0179 14.9755 87.3779 13.931C87.7378 12.8865 87.7548 11.7543 87.4262 10.6995C87.0976 9.64475 86.4406 8.7225 85.5512 8.06725C84.6617 7.41199 83.5861 7.058 82.4813 7.05687H82.4532Z" fill="#D9DCD8"/>
<path d="M83.5281 14.4265V18.2132" stroke="#010101" stroke-width="2" stroke-linecap="round" stroke-linejoin="round"/>
<path d="M81.3081 14.0682V18.2132" stroke="#010101" stroke-width="2" stroke-linecap="round" stroke-linejoin="round"/>
<path d="M81.2448 14.0471C81.0934 14.163 80.9164 14.2409 80.7286 14.2743C80.5409 14.3077 80.3479 14.2957 80.1657 14.2393C79.9836 14.1828 79.8176 14.0836 79.6817 13.9499C79.5457 13.8161 79.4438 13.6518 79.3844 13.4706C79.325 13.2894 79.3098 13.0966 79.3402 12.9083C79.3705 12.7201 79.4456 12.5418 79.5589 12.3885C79.6723 12.2351 79.8207 12.1112 79.9918 12.027C80.1629 11.9427 80.3516 11.9007 80.5423 11.9044C81.2448 11.9044 81.7085 12.361 82.4111 13.1057C83.1136 13.8504 83.6054 14.293 84.2658 14.293C84.4564 14.2967 84.6452 14.2547 84.8163 14.1705C84.9874 14.0862 85.1358 13.9623 85.2492 13.8089C85.3625 13.6556 85.4375 13.4774 85.4679 13.2891C85.4983 13.1008 85.4831 12.908 85.4237 12.7268C85.3643 12.5456 85.2623 12.3813 85.1264 12.2476C84.9905 12.1138 84.8245 12.0146 84.6423 11.9581C84.4602 11.9017 84.2672 11.8897 84.0794 11.9231C83.8917 11.9565 83.7147 12.0344 83.5632 12.1503" stroke="#010101" stroke-width="2" stroke-linecap="round" stroke-linejoin="round"/>
<path d="M83.8793 20.7002C83.8934 20.9058 83.8651 21.1121 83.7961 21.3063C83.7271 21.5005 83.6189 21.6784 83.4782 21.8291C83.3376 21.9797 83.1674 22.0998 82.9784 22.1819C82.7894 22.264 82.5855 22.3064 82.3794 22.3064C82.1733 22.3064 81.9694 22.264 81.7804 22.1819C81.5914 22.0998 81.4213 21.9797 81.2806 21.8291C81.1399 21.6784 81.0318 21.5005 80.9628 21.3063C80.8938 21.1121 80.8654 20.9058 80.8795 20.7002C80.8795 19.8712 81.582 19.8782 82.3829 19.8782C83.1838 19.8782 83.8793 19.8923 83.8793 20.7002Z" fill="#408E8E"/>
<path d="M79.8608 17.7074V19.2951C79.8618 19.4243 79.8881 19.552 79.9384 19.671C79.9887 19.79 80.0619 19.8979 80.1539 19.9886C80.2459 20.0792 80.3548 20.1509 80.4745 20.1995C80.5942 20.2481 80.7223 20.2726 80.8514 20.2717H84.055C84.311 20.2662 84.5547 20.1611 84.7345 19.9788C84.9142 19.7964 85.0157 19.5512 85.0175 19.2951V17.7074H79.8608Z" fill="#408E8E"/>
</svg>
