<svg width="120" height="120" viewBox="0 0 120 120" fill="none" xmlns="http://www.w3.org/2000/svg">
<rect width="120" height="120" rx="60" fill="#73DFE9"/>
<path d="M109.251 74.2363C107.876 73.5621 107.675 72.3855 107.451 71.299C107.245 70.2984 108.448 70.4143 109.105 70.0966C111.986 68.7095 113.743 64.0672 112.501 61.0698C111.424 58.4588 109.547 56.6981 106.661 56.3417C103.062 55.8993 100.25 57.4754 98.7552 60.5888C97.7975 62.5857 96.1528 62.2164 94.916 62.2421C93.8038 62.2636 94.4436 60.5759 94.2332 59.6698C93.9584 58.4931 93.8768 57.2693 93.7136 56.0668C93.5332 54.727 93.4087 53.7951 93.2025 53.1466C93.1897 53.0608 93.1811 52.9706 93.1682 52.8847C93.0093 51.5363 92.3523 50.8492 90.9008 50.9394C89.6167 51.0167 88.3241 50.9737 87.0401 50.9136C86.0868 50.8707 84.6696 51.2314 84.4635 50.0032C84.2144 48.5044 83.1451 46.7867 84.6868 45.3738C85.958 44.2101 86.3101 42.7199 86.4432 41.131C86.6579 38.5458 85.7003 37.1544 83.1623 36.7121C81.9899 36.5103 81.3844 35.9606 81.0065 34.9557C80.8047 34.4232 80.5513 33.9036 80.3924 33.3582C79.9244 31.7907 77.614 30.3521 80.0532 28.5743C81.4961 27.5264 82.4537 25.8216 84.7727 26.1308C86.6107 26.3755 88.1567 24.4774 88.0751 22.6824C87.9935 20.9389 86.4733 19.5217 84.6739 19.5002C82.6985 19.4788 81.0967 20.9088 81.1311 22.9916C81.1525 24.2541 80.8648 25.1774 79.9716 26.0363C77.7643 28.1663 77.7771 28.1835 75.5312 26.0234C71.4644 22.1155 66.3627 20.1358 61.2524 20.037V20.0285C61.1622 20.0285 61.072 20.0327 60.9819 20.0327C60.8917 20.0327 60.8015 20.0285 60.7113 20.0285V20.037C55.601 20.1358 50.4993 22.1155 46.4325 26.0234C44.1823 28.1835 44.1952 28.1663 41.9921 26.0363C41.1032 25.1774 40.8112 24.2541 40.8327 22.9916C40.8713 20.9131 39.2652 19.4788 37.2898 19.5002C35.4905 19.5174 33.9703 20.9389 33.8887 22.6824C33.8028 24.4817 35.3531 26.3755 37.1911 26.1308C39.51 25.8216 40.4677 27.5264 41.9106 28.5743C44.3541 30.3521 42.0394 31.795 41.5713 33.3582C41.4081 33.9036 41.159 34.4232 40.9572 34.9557C40.575 35.9606 39.9738 36.5103 38.8015 36.7121C36.2592 37.1544 35.3058 38.5458 35.5205 41.131C35.6537 42.7199 36.0058 44.2101 37.2769 45.3738C38.8186 46.7867 37.7536 48.5044 37.5002 50.0032C37.2941 51.2314 35.877 50.8707 34.9236 50.9136C33.6396 50.9737 32.3427 51.0167 31.063 50.9394C29.6115 50.8492 28.9587 51.5363 28.7955 52.8847C28.7827 52.9878 28.7698 53.0865 28.7569 53.1853H28.7698C28.744 53.3098 28.7183 53.4344 28.7011 53.5718C28.4477 55.7018 28.0011 57.8275 27.971 59.9618C27.9409 62.2121 26.7772 62.4783 24.9478 62.444C23.5178 62.4139 23.2429 61.4692 22.762 60.5072C20.3571 55.6589 14.5812 54.8687 11.0512 58.8797C8.1439 62.1863 9.10154 67.1163 13.28 69.4009C14.7916 70.2254 14.9204 71.1057 14.4566 72.5143C14.1088 73.575 13.3573 74.0646 12.434 74.5584C9.9819 75.8682 9.26903 78.3718 10.626 80.5147C11.953 82.6147 14.6671 83.1085 16.5909 81.6012C18.6093 80.0208 18.7939 77.4228 17.0289 75.3615C15.2983 73.3345 15.9468 70.8567 18.4847 69.826C20.4773 69.0144 22.1607 67.8034 22.8822 65.7163C23.5521 63.7752 25.0337 64.1274 26.4121 64.2476C27.9796 64.385 27.7348 65.6862 27.752 66.7212C27.8379 71.6812 28.5465 76.551 29.9937 81.292C32.5918 89.8034 37.3542 96.5757 45.7368 100.29C52.1913 103.15 59.0322 103.644 65.9204 102.927C77.7256 101.699 86.2929 95.9272 90.7977 84.6201C93.1295 78.7755 93.8467 72.6646 94.3191 66.485C94.3749 65.7678 94.0357 64.6642 95.251 64.7071C96.3117 64.7415 97.5613 64.0114 98.3558 65.6819C99.2361 67.5242 100.64 69.053 102.663 69.8646C105.459 70.9855 105.965 73.0983 104.029 75.4044C102.311 77.4528 102.745 80.5061 104.969 82.1809C107.009 83.7183 109.985 83.1171 111.351 80.9656C112.939 78.4405 112.227 75.6964 109.251 74.2363ZM84.6567 21.4456C85.4512 21.4284 86.031 21.802 86.0825 22.6867C86.1383 23.64 85.5886 24.1038 84.6138 24.3056C83.8795 24.1553 83.1923 23.786 83.1537 22.8541C83.1065 21.8836 83.7807 21.4671 84.6567 21.4456ZM37.3414 24.3056C36.3665 24.1038 35.8168 23.64 35.8727 22.6867C35.9242 21.802 36.504 21.4284 37.2984 21.4456C38.1745 21.4628 38.8487 21.8793 38.8058 22.8541C38.7628 23.786 38.0757 24.1553 37.3414 24.3056ZM16.7026 78.8828C16.621 79.411 16.4278 79.8534 15.8996 80.0509C15.3713 80.2485 15.1223 79.892 14.9118 79.4926C14.6241 78.943 14.2076 78.724 13.7395 79.2307C13.31 79.6988 12.9622 80.4674 12.2321 79.8491C11.5751 79.2908 11.6266 78.4319 11.88 77.6461C12.2021 76.6369 13.091 76.04 14.1732 76.0528C15.7106 76.07 16.9259 77.4356 16.7026 78.8828ZM16.4836 68.6622C13.4775 68.688 11.2101 66.4377 11.1843 63.4059C11.1628 60.417 13.4217 58.0165 16.329 57.9392C19.1676 57.8619 21.7957 60.3354 21.8515 63.1311C21.916 66.1672 19.5197 68.6365 16.4836 68.6622ZM83.1494 38.782C84.2573 38.9967 84.5537 39.8384 84.558 40.8862C84.412 41.5647 84.5666 42.9303 83.7077 42.6856C82.4366 42.3205 82.9433 40.6372 82.4967 39.5807C82.3206 39.1642 82.5911 38.6746 83.1494 38.782ZM39.7462 48.5001C40.4075 43.0763 41.5456 37.7857 44.0535 32.8815C47.2098 26.7105 52.157 23.0173 59.1482 22.3946C59.7709 22.3388 60.3807 22.3173 60.9776 22.313C61.5745 22.3173 62.1843 22.3388 62.807 22.3946C69.7982 23.0216 74.7453 26.7105 77.9017 32.8815C80.4096 37.7857 81.5476 43.0763 82.209 48.5001C82.4409 50.394 81.8826 51.2271 79.7955 51.1927C74.0239 51.0982 68.248 51.1455 62.472 51.1541V51.1584H61.2481H61.0592H61.0506C61.0248 51.1584 61.0034 51.1584 60.9776 51.1584C60.9518 51.1584 60.9303 51.1584 60.9046 51.1584H60.896H60.7071H59.4831V51.1541C53.7072 51.1455 47.9313 51.0982 42.1596 51.1927C40.0769 51.2271 39.5186 50.3982 39.7462 48.5001ZM37.3929 40.8905C37.3972 39.8384 37.6935 38.9967 38.8015 38.7863C39.3597 38.6789 39.6302 39.1642 39.4542 39.585C39.0075 40.6415 39.5186 42.3248 38.2432 42.6899C37.3843 42.9346 37.5389 41.5647 37.3929 40.8905ZM89.0628 83.014C84.6997 94.7248 75.9392 100.385 63.683 100.973C58.2292 101.235 52.8612 100.84 47.6264 98.9805C40.5707 96.4726 36.2678 91.3022 33.382 84.7361C30.5734 78.3417 29.7832 71.548 29.8047 63.247C29.7875 61.7698 30.0323 58.9269 30.363 56.0797C30.5648 54.3405 31.3593 53.8123 33.0212 53.8295C40.5278 53.9154 48.0387 53.9239 55.5495 53.9497C66.5646 53.9883 77.5753 54.0657 88.5904 54.0141C90.5873 54.0055 91.2701 54.611 91.4891 56.6165C92.4682 65.5918 92.2492 74.4554 89.0628 83.014ZM104.806 68.4604C102.556 68.4948 100.623 66.1801 100.61 63.436C100.593 60.344 102.367 58.579 105.519 58.5447C108.46 58.5146 110.526 60.5459 110.526 63.4703C110.522 66.4893 108.323 68.4089 104.806 68.4604ZM109.616 79.6773C108.083 77.9767 107.529 78.0068 106.3 79.7417C105.338 78.9 105.51 78.0197 106.219 77.1651C106.897 76.3491 107.808 76.1946 108.701 76.6927C109.86 77.3412 109.946 78.3933 109.616 79.6773Z" fill="black"/>
<path d="M73.9381 36.9096H48.5927C47.9227 36.9096 47.3774 37.4593 47.3774 38.1249V44.8113C47.3774 45.4812 47.927 46.0266 48.5927 46.0266H73.9381C74.608 46.0266 75.1534 45.4769 75.1534 44.8113V38.1249C75.1577 37.455 74.608 36.9096 73.9381 36.9096ZM73.2767 42.6426C73.2767 43.3125 72.7271 43.8579 72.0614 43.8579H50.4736C49.8037 43.8579 49.2583 43.3082 49.2583 42.6426V40.2979C49.2583 39.628 49.808 39.0826 50.4736 39.0826H72.0614C72.7314 39.0826 73.2767 39.6323 73.2767 40.2979V42.6426Z" fill="black"/>
</svg>
