<svg width="120" height="120" viewBox="0 0 120 120" fill="none" xmlns="http://www.w3.org/2000/svg">
<rect width="120" height="120" rx="60" fill="#73DFE9"/>
<g clip-path="url(#clip0_24_63)">
<path d="M57.0798 102.766H1.59924V44.3107" stroke="black" stroke-width="2" stroke-linecap="round" stroke-linejoin="round"/>
<path d="M15.9915 78.6645H7.3811V96.6915H15.9915V78.6645Z" fill="white" stroke="black" stroke-width="2" stroke-linecap="round" stroke-linejoin="round"/>
<path d="M29.3872 83.4717H20.7767V96.6842H29.3872V83.4717Z" fill="white" stroke="black" stroke-width="2" stroke-linecap="round" stroke-linejoin="round"/>
<path d="M42.7901 76.2609H34.1797V96.6915H42.7901V76.2609Z" fill="white" stroke="black" stroke-width="2" stroke-linecap="round" stroke-linejoin="round"/>
<path d="M56.1931 69.0501H47.5753V96.6842H56.1931V69.0501Z" fill="#408E8E" stroke="#010101" stroke-width="2"/>
<path d="M43.8014 61.4583L50.1035 46.2306L34.8759 52.5327L43.8014 61.4583Z" fill="#408E8E" stroke="#010101" stroke-width="2"/>
<path d="M6.31848 72.0326L17.6183 60.7328L26.4413 69.5631L38.8037 57.208" stroke="black" stroke-width="2" stroke-linecap="round" stroke-linejoin="round"/>
<path d="M86.6191 90.47L94.2989 113.876C98.0215 112.691 101.408 110.637 104.177 107.881C105.967 106.089 107.472 104.033 108.64 101.784L86.6191 90.47Z" fill="#D9DCD8" stroke="#020302" stroke-width="2" stroke-linecap="round" stroke-linejoin="round"/>
<path d="M62.4806 85.6042C62.3047 87.8759 62.0043 87.1357 62.0189 90.47C62.0248 97.002 64.6236 103.265 69.2444 107.881L86.6192 90.4993V65.6866C80.9139 65.706 75.3915 67.7009 70.9908 71.3321C66.5902 74.9632 63.583 80.0064 62.4806 85.6042Z" fill="#408E8E" stroke="#010101" stroke-width="2"/>
<path d="M86.6192 90.47L69.2444 107.881C72.4644 111.09 76.5074 113.347 80.9281 114.404C85.3488 115.462 89.9756 115.279 94.2989 113.876L86.6192 90.47Z" fill="#D9DCD8" stroke="#020302" stroke-width="2" stroke-linecap="round" stroke-linejoin="round"/>
<path d="M97.9629 68.354H97.9263C94.4312 66.5837 90.5663 65.6671 86.6484 65.6792V90.4626L108.706 101.748C110.205 98.8522 111.116 95.6885 111.387 92.4391C111.658 89.1897 111.284 85.9188 110.285 82.8148C109.287 79.7108 107.684 76.835 105.569 74.3532C103.454 71.8713 100.869 69.8324 97.9629 68.354Z" fill="#D9DCD8" stroke="#020302" stroke-width="2" stroke-linecap="round" stroke-linejoin="round"/>
<path d="M90.6349 44.2887C90.4962 42.3802 90.7523 40.4637 91.3873 38.6586C92.0223 36.8536 93.0226 35.1988 94.3257 33.7976C95.6287 32.3964 97.2066 31.2788 98.9609 30.5146C100.715 29.7504 102.608 29.356 104.522 29.356C106.435 29.356 108.328 29.7504 110.082 30.5146C111.836 31.2788 113.414 32.3964 114.717 33.7976C116.02 35.1988 117.021 36.8536 117.656 38.6586C118.291 40.4637 118.547 42.3802 118.408 44.2887V51.0745C118.547 52.9829 118.291 54.8994 117.656 56.7045C117.021 58.5095 116.02 60.1643 114.717 61.5655C113.414 62.9667 111.836 64.0843 110.082 64.8485C108.328 65.6127 106.435 66.0072 104.522 66.0072C102.608 66.0072 100.715 65.6127 98.9609 64.8485C97.2066 64.0843 95.6287 62.9667 94.3257 61.5655C93.0226 60.1643 92.0223 58.5095 91.3873 56.7045C90.7523 54.8994 90.4962 52.9829 90.6349 51.0745V44.2887Z" fill="#DDDDDD" stroke="#010101" stroke-width="2" stroke-linecap="round" stroke-linejoin="round"/>
<path d="M104.492 58.2193C101.738 58.2193 99.0466 57.4027 96.7569 55.8728C94.4672 54.3429 92.6826 52.1684 91.6288 49.6242C90.575 47.0801 90.2993 44.2806 90.8365 41.5797C91.3737 38.8789 92.6998 36.398 94.647 34.4508C96.5942 32.5036 99.0751 31.1775 101.776 30.6403C104.477 30.103 107.276 30.3788 109.82 31.4326C112.365 32.4864 114.539 34.271 116.069 36.5607C117.599 38.8503 118.416 41.5422 118.416 44.296C118.416 47.9887 116.949 51.5301 114.337 54.1413C111.726 56.7524 108.185 58.2193 104.492 58.2193Z" fill="#E8F2FC" stroke="#010101" stroke-width="2" stroke-linecap="round" stroke-linejoin="round"/>
<path d="M101.092 4.92247H27.3793V42.2295H101.092V4.92247Z" fill="#408E8E" stroke="#010101" stroke-width="2"/>
<path d="M35.2423 35.7075H94.1304V12.1186H35.2423V35.7075Z" fill="#E8F2FC" stroke="#010101" stroke-width="2" stroke-linecap="round" stroke-linejoin="round"/>
<path d="M78.7855 23.9094C78.7855 26.6762 77.965 29.3809 76.4279 31.6814C74.8907 33.9819 72.7059 35.775 70.1497 36.8338C67.5935 37.8926 64.7807 38.1696 62.0671 37.6298C59.3534 37.0901 56.8608 35.7577 54.9044 33.8013C52.9479 31.8449 51.6156 29.3522 51.0758 26.6386C50.536 23.9249 50.8131 21.1122 51.8719 18.556C52.9307 15.9998 54.7237 13.815 57.0242 12.2778C59.3248 10.7406 62.0294 9.92019 64.7962 9.92019C68.5064 9.92019 72.0646 11.394 74.6881 14.0175C77.3116 16.641 78.7855 20.1992 78.7855 23.9094Z" fill="white" stroke="black" stroke-width="2" stroke-linecap="round" stroke-linejoin="round"/>
<path d="M59.9011 28.5847C59.902 29.0959 60.0077 29.6016 60.2118 30.0703C60.4159 30.539 60.714 30.9609 61.0877 31.3099C61.4613 31.6588 61.9026 31.9273 62.3842 32.0989C62.8658 32.2705 63.3775 32.3414 63.8876 32.3073H65.661C70.7906 32.3073 71.6113 24.2465 65.661 24.3418L63.8876 24.1732C58.67 24.2245 58.6041 16.2443 63.8876 16.2223H65.661C68.3284 16.2223 69.794 17.9444 69.794 19.9376" fill="white"/>
<path d="M59.9011 28.5847C59.902 29.0959 60.0077 29.6016 60.2118 30.0703C60.4159 30.539 60.714 30.9609 61.0877 31.3099C61.4613 31.6588 61.9026 31.9273 62.3842 32.0989C62.8658 32.2705 63.3775 32.3414 63.8876 32.3073H65.661C70.7906 32.3073 71.6113 24.2465 65.661 24.3418L63.8876 24.1732C58.67 24.2245 58.6041 16.2443 63.8876 16.2223H65.661C68.3284 16.2223 69.794 17.9444 69.794 19.9376" stroke="black" stroke-width="2" stroke-linecap="round" stroke-linejoin="round"/>
<path d="M90.5249 24.9207C90.5264 25.6718 90.305 26.4064 89.8888 27.0316C89.4726 27.6568 88.8802 28.1445 88.1867 28.4329C87.4933 28.7213 86.7298 28.7975 85.993 28.6519C85.2562 28.5062 84.5791 28.1453 84.0475 27.6147C83.5159 27.0841 83.1536 26.4078 83.0066 25.6713C82.8595 24.9347 82.9343 24.1711 83.2214 23.4771C83.5084 22.783 83.995 22.1898 84.6194 21.7723C85.2438 21.3549 85.9779 21.1321 86.729 21.1321C87.7345 21.1321 88.6989 21.531 89.4106 22.2413C90.1222 22.9516 90.523 23.9152 90.5249 24.9207Z" fill="#408E8E"/>
<path d="M42.6949 28.5481C41.7179 28.5051 40.7953 28.0868 40.1192 27.3803C39.4431 26.6738 39.0657 25.7337 39.0657 24.7558C39.0657 23.7779 39.4431 22.8378 40.1192 22.1313C40.7953 21.4248 41.7179 21.0065 42.6949 20.9635C47.7072 20.9635 47.7146 28.5481 42.6949 28.5481Z" fill="#408E8E"/>
<path d="M64.8622 13.6428V34.8795" stroke="black" stroke-width="2" stroke-linecap="round" stroke-linejoin="round"/>
<path d="M90.6349 30.424C90.4962 28.5156 90.7523 26.599 91.3873 24.794C92.0223 22.989 93.0226 21.3342 94.3257 19.933C95.6287 18.5317 97.2066 17.4142 98.9609 16.6499C100.715 15.8857 102.608 15.4913 104.522 15.4913C106.435 15.4913 108.328 15.8857 110.082 16.6499C111.836 17.4142 113.414 18.5317 114.717 19.933C116.02 21.3342 117.021 22.989 117.656 24.794C118.291 26.599 118.547 28.5156 118.408 30.424V37.2098C118.547 39.1182 118.291 41.0348 117.656 42.8398C117.021 44.6449 116.02 46.2997 114.717 47.7009C113.414 49.1021 111.836 50.2197 110.082 50.9839C108.328 51.7481 106.435 52.1425 104.522 52.1425C102.608 52.1425 100.715 51.7481 98.9609 50.9839C97.2066 50.2197 95.6287 49.1021 94.3257 47.7009C93.0226 46.2997 92.0223 44.6449 91.3873 42.8398C90.7523 41.0348 90.4962 39.1182 90.6349 37.2098V30.424Z" fill="#DDDDDD" stroke="#010101" stroke-width="2" stroke-linecap="round" stroke-linejoin="round"/>
<path d="M104.492 44.3546C101.738 44.3546 99.0466 43.5381 96.7569 42.0081C94.4672 40.4782 92.6826 38.3037 91.6288 35.7596C90.575 33.2154 90.2993 30.4159 90.8365 27.7151C91.3737 25.0142 92.6998 22.5333 94.647 20.5861C96.5942 18.6389 99.0751 17.3129 101.776 16.7756C104.477 16.2384 107.276 16.5141 109.82 17.5679C112.365 18.6218 114.539 20.4063 116.069 22.696C117.599 24.9857 118.416 27.6776 118.416 30.4314C118.416 34.124 116.949 37.6655 114.337 40.2766C111.726 42.8877 108.185 44.3546 104.492 44.3546Z" fill="#E8F2FC" stroke="#010101" stroke-width="2" stroke-linecap="round" stroke-linejoin="round"/>
<path d="M107.79 34.11C107.803 33.7899 107.736 33.4714 107.596 33.1835C107.455 32.8956 107.245 32.6474 106.984 32.4612C106.128 31.9433 105.18 31.5973 104.192 31.4426C103.096 31.2358 102.03 30.8937 101.019 30.424C100.333 30.1008 99.7391 29.6123 99.2894 29.0024C98.9048 28.4209 98.7079 27.7354 98.7251 27.0385C98.7251 26.4185 98.8695 25.807 99.1467 25.2524C99.424 24.6979 99.8266 24.2155 100.323 23.8435C101.489 22.9402 102.938 22.4783 104.412 22.5391C105.939 22.4691 107.441 22.9473 108.647 23.8874C109.167 24.2981 109.584 24.8234 109.866 25.4222C110.148 26.021 110.288 26.6771 110.274 27.3389H107.636C107.638 26.9827 107.56 26.6305 107.408 26.3084C107.256 25.9862 107.033 25.7023 106.757 25.4776C106.108 24.9442 105.288 24.6654 104.448 24.6935C103.649 24.6475 102.858 24.8693 102.199 25.3237C101.943 25.5116 101.737 25.7581 101.596 26.0425C101.456 26.3269 101.386 26.6408 101.393 26.9579C101.369 27.2458 101.425 27.5345 101.555 27.7929C101.684 28.0512 101.881 28.2693 102.125 28.4235C102.978 28.8719 103.895 29.1835 104.844 29.3468C105.945 29.5687 107.016 29.923 108.032 30.4021C108.75 30.729 109.373 31.2334 109.842 31.8677C110.249 32.489 110.454 33.2211 110.428 33.9635C110.447 34.6068 110.307 35.2448 110.02 35.8212C109.734 36.3975 109.31 36.8946 108.787 37.2684C107.535 38.1414 106.031 38.5767 104.507 38.5069C103.385 38.5314 102.272 38.3088 101.246 37.8547C100.358 37.4615 99.5975 36.8299 99.0475 36.03C98.5261 35.2875 98.247 34.4018 98.2488 33.4945H100.872C100.882 33.9009 100.983 34.2998 101.167 34.6624C101.351 35.025 101.613 35.342 101.935 35.5903C102.687 36.1401 103.606 36.4144 104.536 36.3671C105.378 36.4071 106.212 36.1954 106.933 35.7588C107.208 35.5838 107.432 35.3391 107.583 35.0496C107.733 34.7601 107.805 34.436 107.79 34.11Z" fill="#010101"/>
<path d="M104.595 21.6597V39.4668" stroke="black" stroke-width="2" stroke-linecap="round" stroke-linejoin="round"/>
</g>
<defs>
<clipPath id="clip0_24_63">
<rect width="119" height="112.353" fill="white" transform="translate(0.5 3.82326)"/>
</clipPath>
</defs>
</svg>
