<svg width="136" height="122" viewBox="0 0 136 122" fill="none" xmlns="http://www.w3.org/2000/svg">
<rect x="8" y="1" width="120" height="120" rx="60" fill="#73DFE9"/>
<path d="M100.448 62.7576C101.008 62.7576 101.569 62.7576 102.123 62.8276V1.4203H38.2571V86.8759H77.4885C77.4885 86.5002 77.4885 86.1244 77.4885 85.7487C77.4885 79.6566 79.9064 73.8135 84.2111 69.5027C88.5159 65.192 94.3556 62.766 100.448 62.7576Z" fill="#F2F2F2" stroke="#010101" stroke-width="2" stroke-linecap="round" stroke-linejoin="round"/>
<path d="M119.509 99.1803L133.712 113.268C134.113 113.658 134.433 114.123 134.654 114.636C134.875 115.15 134.993 115.702 135 116.261C135.007 116.82 134.903 117.376 134.696 117.895C134.488 118.414 134.179 118.887 133.788 119.286L133.705 119.376C132.895 120.162 131.805 120.595 130.676 120.579C129.546 120.564 128.469 120.101 127.68 119.293L113.478 105.212" fill="#F2F2F2"/>
<path d="M119.509 99.1803L133.712 113.268C134.113 113.658 134.433 114.123 134.654 114.636C134.875 115.15 134.993 115.702 135 116.261C135.007 116.82 134.903 117.376 134.696 117.895C134.488 118.414 134.179 118.887 133.788 119.286L133.705 119.376C132.895 120.162 131.805 120.595 130.676 120.579C129.546 120.564 128.469 120.101 127.68 119.293L113.478 105.212" stroke="#010101" stroke-width="2" stroke-linecap="round" stroke-linejoin="round"/>
<path d="M123.433 85.7487C123.433 90.2962 122.084 94.7415 119.557 98.5225C117.031 102.304 113.44 105.25 109.238 106.99C105.037 108.73 100.414 109.185 95.9537 108.298C91.4937 107.41 87.3971 105.22 84.182 102.004C80.9668 98.7876 78.7777 94.6904 77.8913 90.2301C77.0049 85.7699 77.4611 81.1469 79.2022 76.9459C80.9433 72.745 83.8911 69.1547 87.6728 66.6292C91.4545 64.1036 95.9003 62.7563 100.448 62.7576C103.467 62.7576 106.456 63.3523 109.245 64.5078C112.034 65.6633 114.568 67.3569 116.703 69.4919C118.837 71.6269 120.53 74.1615 121.685 76.9508C122.839 79.7402 123.433 82.7297 123.433 85.7487Z" fill="#F2F2F2" stroke="#010101" stroke-width="2" stroke-linecap="round" stroke-linejoin="round"/>
<path d="M117.229 85.7487C117.229 89.0693 116.245 92.3153 114.4 95.0762C112.555 97.8371 109.932 99.9889 106.864 101.259C103.796 102.53 100.421 102.862 97.1639 102.214C93.9071 101.565 90.9158 99.9658 88.5682 97.6173C86.2206 95.2688 84.6222 92.2769 83.9752 89.0199C83.3281 85.763 83.6615 82.3873 84.9331 79.3198C86.2047 76.2523 88.3575 73.6308 91.1191 71.7869C93.8807 69.943 97.1271 68.9594 100.448 68.9607C102.652 68.9607 104.835 69.395 106.871 70.2387C108.908 71.0825 110.758 72.3192 112.316 73.8782C113.875 75.4372 115.111 77.2879 115.954 79.3247C116.797 81.3614 117.23 83.5444 117.229 85.7487Z" fill="#408E8E"/>
<path d="M62.9678 22.1951H48.4407V30.035H62.9678V22.1951Z" fill="#408E8E"/>
<path d="M77.4502 30.0286H62.9232V37.8685H77.4502V30.0286Z" fill="#408E8E" stroke="#010101" stroke-width="2"/>
<path d="M92.041 7.10121H48.4407V16.3104H92.041V7.10121Z" stroke="#010101" stroke-width="2" stroke-linecap="round" stroke-linejoin="round"/>
<path d="M92.041 22.1951H48.4407V37.8686H92.041V22.1951Z" stroke="#010101" stroke-width="2" stroke-linecap="round" stroke-linejoin="round"/>
<path d="M48.4407 30.0286H92.041" stroke="#010101" stroke-width="2" stroke-linecap="round" stroke-linejoin="round"/>
<path d="M77.5076 22.1951V37.8686" stroke="#010101" stroke-width="2" stroke-linecap="round" stroke-linejoin="round"/>
<path d="M62.9678 22.1951V37.8686" stroke="#010101" stroke-width="2" stroke-linecap="round" stroke-linejoin="round"/>
<path d="M48.4407 47.6764H92.041" stroke="#010101" stroke-width="2" stroke-linecap="round" stroke-linejoin="round"/>
<path d="M48.4407 53.1535H92.041" stroke="#010101" stroke-width="2" stroke-linecap="round" stroke-linejoin="round"/>
<path d="M48.4407 58.6306H92.041" stroke="#010101" stroke-width="2" stroke-linecap="round" stroke-linejoin="round"/>
<path d="M66.9482 76.9917H10.1837V105.721H66.9482V76.9917Z" fill="#408E8E" stroke="#010101" stroke-width="2"/>
<path d="M16.2404 100.696H61.5921V82.5325H16.2404V100.696Z" fill="#408E8E" stroke="#010101" stroke-width="2"/>
<path d="M49.7718 91.6079C49.7718 93.7379 49.1402 95.8201 47.9568 97.5911C46.7734 99.3622 45.0914 100.743 43.1236 101.558C41.1557 102.373 38.9903 102.586 36.9012 102.17C34.8121 101.755 32.8932 100.729 31.3871 99.2231C29.8809 97.717 28.8552 95.798 28.4397 93.7089C28.0241 91.6199 28.2374 89.4545 29.0525 87.4866C29.8676 85.5187 31.248 83.8367 33.019 82.6534C34.7901 81.47 36.8722 80.8384 39.0023 80.8384C41.858 80.8401 44.5963 81.9753 46.6156 83.9946C48.6349 86.0139 49.7701 88.7522 49.7718 91.6079Z" fill="white" stroke="black" stroke-width="2" stroke-linecap="round" stroke-linejoin="round"/>
<path d="M35.2319 95.2126C35.2329 95.6056 35.3143 95.9943 35.4711 96.3546C35.628 96.715 35.8569 97.0394 36.1439 97.3079C36.4309 97.5764 36.7699 97.7833 37.1399 97.9159C37.5099 98.0484 37.9031 98.1038 38.2953 98.0785H39.6646C43.6196 98.0785 44.2437 91.8818 39.6646 91.9454L38.2953 91.8181C34.283 91.8499 34.232 85.7041 38.2953 85.685H39.6646C41.7153 85.685 42.8489 87.0224 42.8489 88.5509" fill="white"/>
<path d="M35.2319 95.2126C35.2329 95.6056 35.3143 95.9943 35.4711 96.3546C35.628 96.715 35.8569 97.0394 36.1439 97.3079C36.4309 97.5764 36.7699 97.7833 37.1399 97.9159C37.5099 98.0484 37.9031 98.1038 38.2953 98.0785H39.6646C43.6196 98.0785 44.2437 91.8818 39.6646 91.9454L38.2953 91.8181C34.283 91.8499 34.232 85.7041 38.2953 85.685H39.6646C41.7153 85.685 42.8489 87.0224 42.8489 88.5509" stroke="black" stroke-width="2" stroke-linecap="round" stroke-linejoin="round"/>
<path d="M58.809 92.3913C58.809 92.9697 58.6374 93.5351 58.3159 94.016C57.9944 94.4968 57.5375 94.8715 57.003 95.0926C56.4684 95.3137 55.8804 95.3712 55.3131 95.2579C54.7459 95.1446 54.225 94.8655 53.8165 94.456C53.4079 94.0466 53.13 93.5251 53.0179 92.9576C52.9058 92.3902 52.9646 91.8022 53.1869 91.2682C53.4091 90.7341 53.7848 90.278 54.2663 89.9576C54.7479 89.6371 55.3137 89.4667 55.8921 89.468C56.6663 89.4697 57.4082 89.7784 57.9551 90.3265C58.5019 90.8745 58.809 91.6171 58.809 92.3913Z" fill="black"/>
<path d="M21.9786 95.1808C21.2278 95.1457 20.5193 94.8227 20.0003 94.2789C19.4813 93.7352 19.1918 93.0124 19.1918 92.2607C19.1918 91.509 19.4813 90.7862 20.0003 90.2424C20.5193 89.6987 21.2278 89.3757 21.9786 89.3406C25.8381 89.3406 25.8444 95.1808 21.9786 95.1808Z" fill="black"/>
<path d="M39.0532 83.7043V100.059" stroke="black" stroke-width="2" stroke-linecap="round" stroke-linejoin="round"/>
<path d="M39.1614 30.8184H4.77029C3.77028 30.8217 2.81228 31.2209 2.10576 31.9286C1.39924 32.6363 1.00168 33.595 1 34.595V55.1469C1.00169 56.1474 1.40033 57.1064 2.10841 57.8133C2.81648 58.5202 3.77613 58.9172 4.77666 58.9172H39.1678C39.6635 58.918 40.1544 58.8211 40.6126 58.632C41.0708 58.4429 41.4871 58.1654 41.8379 57.8152C42.1887 57.465 42.467 57.0491 42.6569 56.5912C42.8467 56.1334 42.9445 55.6426 42.9445 55.1469V34.595C42.9445 34.0985 42.8466 33.6069 42.6564 33.1483C42.4662 32.6897 42.1874 32.273 41.8361 31.9223C41.4847 31.5715 41.0676 31.2934 40.6087 31.104C40.1497 30.9146 39.6579 30.8175 39.1614 30.8184Z" fill="white"/>
<path d="M39.1614 30.8184H4.77029C3.77028 30.8217 2.81228 31.2209 2.10576 31.9286C1.39924 32.6363 1.00168 33.595 1 34.595V55.1469C1.00169 56.1474 1.40033 57.1064 2.10841 57.8133C2.81648 58.5202 3.77613 58.9172 4.77666 58.9172H39.1678C39.6635 58.918 40.1544 58.8211 40.6126 58.632C41.0708 58.4429 41.4871 58.1654 41.8379 57.8152C42.1887 57.465 42.467 57.0491 42.6569 56.5912C42.8467 56.1334 42.9445 55.6426 42.9445 55.1469V34.595C42.9445 34.0985 42.8466 33.6069 42.6564 33.1483C42.4662 32.6897 42.1874 32.273 41.8361 31.9223C41.4847 31.5715 41.0676 31.2934 40.6087 31.104C40.1497 30.9146 39.6579 30.8175 39.1614 30.8184Z" stroke="black" stroke-width="2" stroke-linecap="round" stroke-linejoin="round"/>
<path d="M15.7181 39.8174C15.7165 40.3737 15.4943 40.9066 15.1003 41.2994C14.7064 41.6921 14.1728 41.9127 13.6165 41.9127H7.12036C6.56406 41.9127 6.03045 41.6921 5.63649 41.2994C5.24253 40.9066 5.02036 40.3737 5.01868 39.8174V37.3208C5.02036 36.7645 5.24253 36.2316 5.63649 35.8388C6.03045 35.4461 6.56406 35.2255 7.12036 35.2255H13.6165C14.1728 35.2255 14.7064 35.4461 15.1003 35.8388C15.4943 36.2316 15.7165 36.7645 15.7181 37.3208V39.8174Z" fill="#408E8E"/>
<path d="M10.6423 52.9561H6.16504" stroke="black" stroke-width="2" stroke-linecap="round" stroke-linejoin="round"/>
<path d="M19.6031 52.9561H15.1259" stroke="black" stroke-width="2" stroke-linecap="round" stroke-linejoin="round"/>
<path d="M28.5639 52.9561H24.093" stroke="black" stroke-width="2" stroke-linecap="round" stroke-linejoin="round"/>
<path d="M37.5311 52.9561H33.0538" stroke="black" stroke-width="2" stroke-linecap="round" stroke-linejoin="round"/>
<path d="M25.8763 47.4726H6.16504" stroke="black" stroke-width="2" stroke-linecap="round" stroke-linejoin="round"/>
</svg>
