<svg width="228" height="228" viewBox="0 0 228 228" fill="none" xmlns="http://www.w3.org/2000/svg">
<circle opacity="0.6" cx="114" cy="114" r="114" fill="url(#paint0_linear_210_134)"/>
<circle opacity="0.9" cx="114" cy="114" r="96" fill="white"/>
<path d="M72.9271 107.082H83.0827C86.814 107.082 88.1414 109.095 88.1414 111.734C88.1414 114.04 86.9874 116.386 83.2943 116.386H77.5048V121.038H72.9271V107.083V107.082ZM77.5048 113.492H81.5818C82.8514 113.492 83.4087 112.964 83.4087 111.733C83.4087 110.501 82.8514 109.974 81.5818 109.974H77.5048V113.492Z" fill="url(#paint1_linear_210_134)"/>
<path d="M98.2564 106.652C103.103 106.652 107.2 108.275 107.2 114.059C107.2 119.844 103.103 121.467 98.2564 121.467C93.4093 121.467 89.3126 119.844 89.3126 114.059C89.3126 108.275 93.4093 106.652 98.2564 106.652ZM98.2564 118.34C100.718 118.34 102.353 116.991 102.353 114.059C102.353 111.128 100.718 109.779 98.2564 109.779C95.7947 109.779 94.1597 111.146 94.1597 114.059C94.1597 116.972 95.8143 118.34 98.2564 118.34Z" fill="url(#paint2_linear_210_134)"/>
<path d="M118.759 111.166C118.625 110.209 117.875 109.544 115.779 109.544C114.24 109.544 113.393 109.994 113.393 110.911C113.393 111.38 113.72 111.654 114.413 111.771C115.567 111.966 119.087 112.494 120.433 112.729C122.99 113.179 124.529 114.234 124.529 116.697C124.529 121.427 118.49 121.466 116.605 121.466C111.951 121.466 108.585 120.626 108.316 116.737H113.74C113.856 117.792 114.433 118.457 116.817 118.457C117.971 118.457 119.221 118.183 119.221 116.991C119.221 116.248 118.644 115.994 117.047 115.739L112.469 115.036C109.642 114.606 108.546 113.159 108.546 111.088C108.546 109.25 109.662 106.651 115.681 106.651C120.663 106.651 123.663 107.862 123.952 111.165H118.759V111.166Z" fill="url(#paint3_linear_210_134)"/>
<path d="M124.952 107.082H139.608V110.209H134.569V121.036H129.991V110.209H124.952V107.082Z" fill="url(#paint4_linear_210_134)"/>
<path d="M149.205 106.652C154.052 106.652 158.149 108.275 158.149 114.059C158.149 119.844 154.052 121.467 149.205 121.467C144.358 121.467 140.261 119.844 140.261 114.059C140.261 108.275 144.358 106.652 149.205 106.652ZM149.205 118.34C151.667 118.34 153.302 116.991 153.302 114.059C153.302 111.128 151.667 109.779 149.205 109.779C146.744 109.779 145.109 111.146 145.109 114.059C145.109 116.972 146.762 118.34 149.205 118.34Z" fill="url(#paint5_linear_210_134)"/>
<path d="M160.207 107.082H164.785V117.792H173.152V121.036H160.208V107.082H160.207Z" fill="url(#paint6_linear_210_134)"/>
<path d="M183.056 106.652C187.903 106.652 192 108.275 192 114.059C192 119.844 187.903 121.467 183.056 121.467C178.209 121.467 174.112 119.844 174.112 114.059C174.112 108.275 178.209 106.652 183.056 106.652ZM183.056 118.34C185.518 118.34 187.153 116.991 187.153 114.059C187.153 111.128 185.518 109.779 183.056 109.779C180.594 109.779 178.96 111.146 178.96 114.059C178.96 116.972 180.613 118.34 183.056 118.34Z" fill="url(#paint7_linear_210_134)"/>
<path d="M57.1683 103.868H44.5534C40.6093 103.868 37.4122 107.117 37.4122 111.125V130.258L42.9831 123.849H57.1683C61.1123 123.849 64.3094 120.6 64.3094 116.592V111.126C64.3094 107.118 61.1123 103.869 57.1683 103.869V103.868ZM58.9224 115.513C58.9224 116.97 57.7603 118.151 56.3265 118.151H45.5778C44.144 118.151 42.982 116.97 42.982 115.513V112.114C42.982 110.657 44.144 109.477 45.5778 109.477H56.3265C57.7603 109.477 58.9224 110.657 58.9224 112.114V115.513Z" fill="url(#paint8_linear_210_134)"/>
<path d="M50.8608 121.741C56.9544 121.741 62.1692 117.918 64.3094 112.502V111.125C64.3094 107.117 61.1123 103.868 57.1683 103.868H44.5534C40.6093 103.868 37.4122 107.117 37.4122 111.125V112.502C39.5525 117.918 44.7673 121.741 50.8608 121.741ZM42.9831 112.114C42.9831 110.657 44.1452 109.477 45.579 109.477H56.3277C57.7615 109.477 58.9235 110.657 58.9235 112.114V115.513C58.9235 116.97 57.7615 118.151 56.3277 118.151H45.579C44.1452 118.151 42.9831 116.97 42.9831 115.513V112.114Z" fill="url(#paint9_linear_210_134)"/>
<path d="M49.0917 113.813C49.0917 112.754 48.2464 111.896 47.2046 111.896C44.7013 111.997 44.7013 115.631 47.2046 115.732C48.2476 115.732 49.0917 114.873 49.0917 113.815V113.813Z" fill="#004B6B"/>
<path d="M56.5104 113.813C56.5104 112.754 55.6651 111.896 54.6233 111.896C52.12 111.997 52.12 115.631 54.6233 115.732C55.6663 115.732 56.5104 114.873 56.5104 113.815V113.813Z" fill="#004B6B"/>
<path d="M51.2909 101.512H50.4307V103.389H51.2909V101.512Z" fill="url(#paint10_linear_210_134)"/>
<path d="M52.0148 103.39H49.7057C49.4455 103.39 49.2351 103.604 49.2351 103.868H52.4854C52.4854 103.604 52.2749 103.39 52.0148 103.39Z" fill="#004B6B"/>
<path d="M52.231 100.392C52.231 99.6239 51.6171 99 50.8609 99C49.0432 99.0729 49.0444 101.712 50.8609 101.785C51.6171 101.785 52.231 101.161 52.231 100.392Z" fill="#004B6B"/>
<defs>
<linearGradient id="paint0_linear_210_134" x1="114" y1="0" x2="114" y2="228" gradientUnits="userSpaceOnUse">
<stop offset="0.5" stop-color="#2F5C92"/>
<stop offset="1" stop-color="#18304D" stop-opacity="0"/>
</linearGradient>
<linearGradient id="paint1_linear_210_134" x1="65.0471" y1="111.022" x2="216.184" y2="144.101" gradientUnits="userSpaceOnUse">
<stop stop-color="#004B6B"/>
<stop offset="0.4" stop-color="#014C6C"/>
<stop offset="0.56" stop-color="#055372"/>
<stop offset="0.68" stop-color="#0D607C"/>
<stop offset="0.77" stop-color="#18718B"/>
<stop offset="0.85" stop-color="#26889E"/>
<stop offset="0.93" stop-color="#38A3B5"/>
<stop offset="0.99" stop-color="#4CC4D0"/>
<stop offset="1" stop-color="#50C9D5"/>
</linearGradient>
<linearGradient id="paint2_linear_210_134" x1="65.9791" y1="106.763" x2="217.115" y2="139.843" gradientUnits="userSpaceOnUse">
<stop stop-color="#004B6B"/>
<stop offset="0.4" stop-color="#014C6C"/>
<stop offset="0.56" stop-color="#055372"/>
<stop offset="0.68" stop-color="#0D607C"/>
<stop offset="0.77" stop-color="#18718B"/>
<stop offset="0.85" stop-color="#26889E"/>
<stop offset="0.93" stop-color="#38A3B5"/>
<stop offset="0.99" stop-color="#4CC4D0"/>
<stop offset="1" stop-color="#50C9D5"/>
</linearGradient>
<linearGradient id="paint3_linear_210_134" x1="66.8186" y1="102.931" x2="217.954" y2="136.009" gradientUnits="userSpaceOnUse">
<stop stop-color="#004B6B"/>
<stop offset="0.4" stop-color="#014C6C"/>
<stop offset="0.56" stop-color="#055372"/>
<stop offset="0.68" stop-color="#0D607C"/>
<stop offset="0.77" stop-color="#18718B"/>
<stop offset="0.85" stop-color="#26889E"/>
<stop offset="0.93" stop-color="#38A3B5"/>
<stop offset="0.99" stop-color="#4CC4D0"/>
<stop offset="1" stop-color="#50C9D5"/>
</linearGradient>
<linearGradient id="paint4_linear_210_134" x1="67.7019" y1="98.8931" x2="218.837" y2="131.972" gradientUnits="userSpaceOnUse">
<stop stop-color="#004B6B"/>
<stop offset="0.4" stop-color="#014C6C"/>
<stop offset="0.56" stop-color="#055372"/>
<stop offset="0.68" stop-color="#0D607C"/>
<stop offset="0.77" stop-color="#18718B"/>
<stop offset="0.85" stop-color="#26889E"/>
<stop offset="0.93" stop-color="#38A3B5"/>
<stop offset="0.99" stop-color="#4CC4D0"/>
<stop offset="1" stop-color="#50C9D5"/>
</linearGradient>
<linearGradient id="paint5_linear_210_134" x1="68.3807" y1="95.7911" x2="219.517" y2="128.869" gradientUnits="userSpaceOnUse">
<stop stop-color="#004B6B"/>
<stop offset="0.4" stop-color="#014C6C"/>
<stop offset="0.56" stop-color="#055372"/>
<stop offset="0.68" stop-color="#0D607C"/>
<stop offset="0.77" stop-color="#18718B"/>
<stop offset="0.85" stop-color="#26889E"/>
<stop offset="0.93" stop-color="#38A3B5"/>
<stop offset="0.99" stop-color="#4CC4D0"/>
<stop offset="1" stop-color="#50C9D5"/>
</linearGradient>
<linearGradient id="paint6_linear_210_134" x1="69.0074" y1="92.9286" x2="220.143" y2="126.007" gradientUnits="userSpaceOnUse">
<stop stop-color="#004B6B"/>
<stop offset="0.4" stop-color="#014C6C"/>
<stop offset="0.56" stop-color="#055372"/>
<stop offset="0.68" stop-color="#0D607C"/>
<stop offset="0.77" stop-color="#18718B"/>
<stop offset="0.85" stop-color="#26889E"/>
<stop offset="0.93" stop-color="#38A3B5"/>
<stop offset="0.99" stop-color="#4CC4D0"/>
<stop offset="1" stop-color="#50C9D5"/>
</linearGradient>
<linearGradient id="paint7_linear_210_134" x1="69.9763" y1="88.5001" x2="221.113" y2="121.579" gradientUnits="userSpaceOnUse">
<stop stop-color="#004B6B"/>
<stop offset="0.4" stop-color="#014C6C"/>
<stop offset="0.56" stop-color="#055372"/>
<stop offset="0.68" stop-color="#0D607C"/>
<stop offset="0.77" stop-color="#18718B"/>
<stop offset="0.85" stop-color="#26889E"/>
<stop offset="0.93" stop-color="#38A3B5"/>
<stop offset="0.99" stop-color="#4CC4D0"/>
<stop offset="1" stop-color="#50C9D5"/>
</linearGradient>
<linearGradient id="paint8_linear_210_134" x1="34.976" y1="129.39" x2="62.6235" y2="103.213" gradientUnits="userSpaceOnUse">
<stop stop-color="#50C9D5"/>
<stop offset="0.2" stop-color="#38A4B5"/>
<stop offset="0.44" stop-color="#207D95"/>
<stop offset="0.66" stop-color="#0E617E"/>
<stop offset="0.85" stop-color="#035070"/>
<stop offset="1" stop-color="#004B6B"/>
</linearGradient>
<linearGradient id="paint9_linear_210_134" x1="50.8608" y1="121.741" x2="50.8608" y2="103.868" gradientUnits="userSpaceOnUse">
<stop stop-color="#004B6B"/>
<stop offset="0.09" stop-color="#0C5E7B"/>
<stop offset="0.28" stop-color="#24849B"/>
<stop offset="0.46" stop-color="#37A2B4"/>
<stop offset="0.65" stop-color="#45B7C6"/>
<stop offset="0.83" stop-color="#4DC4D1"/>
<stop offset="1" stop-color="#50C9D5"/>
</linearGradient>
<linearGradient id="paint10_linear_210_134" x1="50.8608" y1="103.39" x2="50.8608" y2="101.512" gradientUnits="userSpaceOnUse">
<stop stop-color="#50C9D5"/>
<stop offset="0.2" stop-color="#38A4B5"/>
<stop offset="0.44" stop-color="#207D95"/>
<stop offset="0.66" stop-color="#0E617E"/>
<stop offset="0.85" stop-color="#035070"/>
<stop offset="1" stop-color="#004B6B"/>
</linearGradient>
</defs>
</svg>
