<svg width="90" height="27" viewBox="0 0 90 27" fill="none" xmlns="http://www.w3.org/2000/svg">
<g clip-path="url(#clip0_216_147)">
<path d="M88.0682 19.8226C86.6136 19.1476 84.7727 19.6876 83.9318 21.0376C83.0682 22.4326 83.4318 24.3226 84.75 25.3126C85.1136 25.5826 85.5 25.7626 85.9318 25.8751C86.1136 25.9201 86.3182 25.9201 86.4773 26.0101C86.6136 26.0776 86.6591 26.2351 86.6818 26.3701C86.7046 26.5051 86.6818 26.6626 86.6818 26.7976C86.6818 26.9326 86.6591 26.9776 86.8182 26.9326C87.0682 26.8426 87.3182 26.7076 87.5455 26.5726C89 25.6726 90.2046 23.9851 89.8636 22.2076C89.6818 21.1726 89.0227 20.2726 88.0682 19.8226Z" fill="#D01B24"/>
<path d="M31.3863 8.54989C30.8181 7.85239 30.4772 7.31239 30.4772 6.61489C30.4772 6.00739 30.8863 5.08489 32.0227 5.08489C33.409 5.08489 33.4999 6.38989 33.4999 6.63739V7.62739H38.6136V6.68239C38.6136 2.8574 35.9318 0.202393 32.0908 0.202393C28.2272 0.202393 25.3181 2.9924 25.3181 6.68239C25.3181 7.71739 25.6136 8.79739 26.2045 9.85489C23.8636 11.7224 22.5681 14.1974 22.5681 16.8749C22.5681 21.8474 26.9318 25.8974 32.2954 25.8974C34.2954 25.8974 36.1363 25.4249 37.7272 24.5024L38.4999 25.4924H44.8863L31.3863 8.54989ZM29.2499 13.8824L34.5454 20.4749C33.8181 20.7899 33.0681 20.9474 32.2954 20.9474C29.8408 20.9474 27.7954 19.0799 27.7954 16.8524C27.7954 15.5249 28.5908 14.4899 29.2499 13.8824Z" fill="white"/>
<path d="M15.6818 0.540039H21.2954V25.425H15.6818V16.0425H5.68175V25.425H0.0681152V0.540039H5.68175V10.5075H15.6818V0.540039Z" fill="white"/>
<path d="M71.9318 0.0224609C64.7046 0.0224609 58.8636 5.80496 58.8636 12.96C58.8636 20.115 64.7046 25.8975 71.9318 25.8975C79.1591 25.8975 85 20.0925 85 12.96C85 5.80496 79.1591 0.0224609 71.9318 0.0224609ZM71.9318 20.835C67.5455 20.835 63.9773 17.3025 63.9773 12.96C63.9773 8.61746 67.5455 5.08496 71.9318 5.08496C76.3182 5.08496 79.8864 8.61746 79.8864 12.96C79.8864 17.3025 76.3182 20.835 71.9318 20.835Z" fill="white"/>
<path d="M51.5682 20.835C47.1818 20.835 43.6136 17.3025 43.6136 12.96C43.6136 8.61746 47.1818 5.08496 51.5682 5.08496C53.9091 5.08496 56 6.09746 57.4772 7.69496C58.0909 6.02996 59 4.49996 60.1363 3.17246C57.8409 1.21496 54.8636 0.0224609 51.5909 0.0224609C44.3636 0.0224609 38.5227 5.80496 38.5227 12.96C38.5227 13.275 38.5454 13.59 38.5682 13.905L47.6363 25.29C48.8863 25.695 50.2273 25.8975 51.6136 25.8975C54.8863 25.8975 57.8636 24.705 60.1591 22.7475C59.0227 21.42 58.1136 19.89 57.5 18.225C56.0227 19.8225 53.9091 20.835 51.5682 20.835Z" fill="white"/>
</g>
<defs>
<clipPath id="clip0_216_147">
<rect width="90" height="27" fill="white"/>
</clipPath>
</defs>
</svg>
